{
.appVersion = "118";
DisplayStrings = (
"the/space quick/space brown/space fox/space jutkexemps/space over/space the/space lauzy/space dog\012\012ABCDEFtGHIJLMNOPQRSTUVWXYZ\012abcdefghijklmnopqrstuvwxyz",
";",
"/quotedblright",
"/quotedblleft",
"/quotedblbase",
"/quotesinglbase",
"/r.002",
o,
"ð",
"î",
"ï",
"þ",
i,
f
);
copyright = "Copyright © 2022 by Florian Hannich.";
date = "2024-06-21 14:50:15 +0000";
designer = "Florian Hannich";
designerURL = "https://florianhannich.com";
familyName = Base;
featurePrefixes = (
{
automatic = 1;
code = "languagesystem DFLT dflt;\012";
name = Languagesystems;
}
);
fontMaster = (
{
alignmentZones = (
"{716, 15}",
"{517, 13}",
"{0, -15}",
"{-166, -16}"
);
ascender = 775;
capHeight = 715;
descender = -166;
horizontalStems = (
62,
68
);
id = "9382C8E1-E850-40EA-B00A-FA5C7367EA84";
userData = {
GSOffsetHorizontal = 4;
GSOffsetVertical = 4;
};
verticalStems = (
74,
81
);
weightValue = 400;
widthValue = 5;
xHeight = 510;
}
);
glyphs = (
{
glyphname = A;
lastChange = "2024-06-23 12:44:50 +0000";
layers = (
{
hints = (
{
horizontal = 1;
place = "{4, 21}";
target = up;
type = BottomGhost;
},
{
horizontal = 1;
place = "{224, 75}";
type = Stem;
},
{
horizontal = 1;
place = "{719, -20}";
target = down;
type = TopGhost;
},
{
place = "{9, 610}";
type = Stem;
}
);
layerId = "9382C8E1-E850-40EA-B00A-FA5C7367EA84";
paths = (
{
closed = 1;
nodes = (
"631 0 LINE",
"369 715 LINE",
"287 715 LINE",
"25 0 LINE",
"106 0 LINE",
"184 220 LINE",
"472 220 LINE",
"550 0 LINE"
);
},
{
closed = 1;
nodes = (
"278 470 LINE SMOOTH",
"291 506 OFFCURVE",
"312 571 OFFCURVE",
"328 624 CURVE",
"344 571 OFFCURVE",
"365 506 OFFCURVE",
"378 470 CURVE SMOOTH",
"444 291 LINE",
"212 291 LINE"
);
}
);
width = 656;
}
);
leftMetricsKey = V;
note = A;
rightMetricsKey = V;
unicode = 0041;
},
{
glyphname = Aacute;
lastChange = "2024-06-23 12:44:50 +0000";
layers = (
{
hints = (
{
horizontal = 1;
place = "{4, 21}";
target = up;
type = BottomGhost;
},
{
horizontal = 1;
place = "{224, 75}";
type = Stem;
},
{
horizontal = 1;
place = "{719, -20}";
target = down;
type = TopGhost;
},
{
horizontal = 1;
place = "{799, 103}";
type = Stem;
},
{
place = "{9, 610}";
type = Stem;
}
);
layerId = "9382C8E1-E850-40EA-B00A-FA5C7367EA84";
paths = (
{
closed = 1;
nodes = (
"356 828 LINE SMOOTH",
"391 861 OFFCURVE",
"420 894 OFFCURVE",
"420 894 CURVE SMOOTH",
"340 894 LINE SMOOTH",
"340 894 OFFCURVE",
"300 861 OFFCURVE",
"266 828 CURVE SMOOTH",
"232 795 LINE",
"323 795 LINE"
);
},
{
closed = 1;
nodes = (
"631 0 LINE",
"369 715 LINE",
"287 715 LINE",
"25 0 LINE",
"106 0 LINE",
"184 220 LINE",
"472 220 LINE",
"550 0 LINE"
);
},
{
closed = 1;
nodes = (
"278 470 LINE SMOOTH",
"291 506 OFFCURVE",
"312 571 OFFCURVE",
"328 624 CURVE",
"344 571 OFFCURVE",
"365 506 OFFCURVE",
"378 470 CURVE SMOOTH",
"444 291 LINE",
"212 291 LINE"
);
}
);
width = 656;
}
);
leftKerningGroup = A;
leftMetricsKey = A;
note = Aacute;
rightKerningGroup = A;
rightMetricsKey = A;
unicode = 00C1;
},
{
glyphname = Acircumflex;
lastChange = "2024-06-23 12:44:50 +0000";
layers = (
{
hints = (
{
horizontal = 1;
place = "{4, 21}";
target = up;
type = BottomGhost;
},
{
horizontal = 1;
place = "{224, 75}";
type = Stem;
},
{
horizontal = 1;
place = "{628, 95}";
type = Stem;
},
{
horizontal = 1;
place = "{799, 103}";
type = Stem;
},
{
place = "{9, 610}";
type = Stem;
}
);
layerId = "9382C8E1-E850-40EA-B00A-FA5C7367EA84";
paths = (
{
closed = 1;
nodes = (
"372 795 LINE",
"435 795 LINE",
"372 894 LINE",
"289 894 LINE",
"227 795 LINE",
"289 795 LINE",
"331 860 LINE"
);
},
{
closed = 1;
nodes = (
"287 715 LINE",
"25 0 LINE",
"106 0 LINE",
"184 220 LINE",
"472 220 LINE",
"550 0 LINE",
"631 0 LINE",
"369 715 LINE"
);
},
{
closed = 1;
nodes = (
"278 470 LINE SMOOTH",
"291 506 OFFCURVE",
"312 571 OFFCURVE",
"328 624 CURVE",
"344 571 OFFCURVE",
"365 506 OFFCURVE",
"378 470 CURVE SMOOTH",
"444 291 LINE",
"212 291 LINE"
);
}
);
width = 656;
}
);
leftKerningGroup = A;
leftMetricsKey = A;
note = Acircumflex;
rightKerningGroup = A;
rightMetricsKey = A;
unicode = 00C2;
},
{
glyphname = Adieresis;
lastChange = "2024-06-23 12:44:50 +0000";
layers = (
{
hints = (
{
horizontal = 1;
place = "{4, 21}";
target = up;
type = BottomGhost;
},
{
horizontal = 1;
place = "{224, 75}";
type = Stem;
},
{
horizontal = 1;
place = "{719, -20}";
target = down;
type = TopGhost;
},
{
horizontal = 1;
place = "{795, 106}";
type = Stem;
},
{
place = "{177, 108}";
type = Stem;
},
{
place = "{371, 108}";
type = Stem;
}
);
layerId = "9382C8E1-E850-40EA-B00A-FA5C7367EA84";
paths = (
{
closed = 1;
nodes = (
"193 813 OFFCURVE",
"215 791 OFFCURVE",
"245 791 CURVE SMOOTH",
"275 791 OFFCURVE",
"297 813 OFFCURVE",
"297 842 CURVE SMOOTH",
"297 871 OFFCURVE",
"275 893 OFFCURVE",
"245 893 CURVE SMOOTH",
"215 893 OFFCURVE",
"193 871 OFFCURVE",
"193 842 CURVE SMOOTH"
);
},
{
closed = 1;
nodes = (
"387 813 OFFCURVE",
"409 791 OFFCURVE",
"439 791 CURVE SMOOTH",
"469 791 OFFCURVE",
"491 813 OFFCURVE",
"491 842 CURVE SMOOTH",
"491 871 OFFCURVE",
"469 893 OFFCURVE",
"439 893 CURVE SMOOTH",
"409 893 OFFCURVE",
"387 871 OFFCURVE",
"387 842 CURVE SMOOTH"
);
},
{
closed = 1;
nodes = (
"631 0 LINE",
"369 715 LINE",
"287 715 LINE",
"25 0 LINE",
"106 0 LINE",
"184 220 LINE",
"472 220 LINE",
"550 0 LINE"
);
},
{
closed = 1;
nodes = (
"278 470 LINE SMOOTH",
"291 506 OFFCURVE",
"312 571 OFFCURVE",
"328 624 CURVE",
"344 571 OFFCURVE",
"365 506 OFFCURVE",
"378 470 CURVE SMOOTH",
"444 291 LINE",
"212 291 LINE"
);
}
);
width = 656;
}
);
leftKerningGroup = A;
leftMetricsKey = A;
note = Adieresis;
rightKerningGroup = A;
rightMetricsKey = A;
unicode = 00C4;
},
{
glyphname = Agrave;
lastChange = "2024-06-23 12:44:50 +0000";
layers = (
{
hints = (
{
horizontal = 1;
place = "{4, 21}";
target = up;
type = BottomGhost;
},
{
horizontal = 1;
place = "{224, 75}";
type = Stem;
},
{
horizontal = 1;
place = "{719, -20}";
target = down;
type = TopGhost;
},
{
horizontal = 1;
place = "{799, 103}";
type = Stem;
},
{
place = "{9, 610}";
type = Stem;
}
);
layerId = "9382C8E1-E850-40EA-B00A-FA5C7367EA84";
paths = (
{
closed = 1;
nodes = (
"427 795 LINE",
"393 828 LINE SMOOTH",
"359 861 OFFCURVE",
"319 894 OFFCURVE",
"319 894 CURVE SMOOTH",
"239 894 LINE SMOOTH",
"239 894 OFFCURVE",
"268 861 OFFCURVE",
"303 828 CURVE SMOOTH",
"336 795 LINE"
);
},
{
closed = 1;
nodes = (
"631 0 LINE",
"369 715 LINE",
"287 715 LINE",
"25 0 LINE",
"106 0 LINE",
"184 220 LINE",
"472 220 LINE",
"550 0 LINE"
);
},
{
closed = 1;
nodes = (
"278 470 LINE SMOOTH",
"291 506 OFFCURVE",
"312 571 OFFCURVE",
"328 624 CURVE",
"344 571 OFFCURVE",
"365 506 OFFCURVE",
"378 470 CURVE SMOOTH",
"444 291 LINE",
"212 291 LINE"
);
}
);
width = 656;
}
);
leftKerningGroup = A;
leftMetricsKey = A;
note = Agrave;
rightKerningGroup = A;
rightMetricsKey = A;
unicode = 00C0;
},
{
glyphname = Aring;
lastChange = "2024-06-23 12:44:50 +0000";
layers = (
{
hints = (
{
horizontal = 1;
place = "{4, 21}";
target = up;
type = BottomGhost;
},
{
horizontal = 1;
place = "{224, 75}";
type = Stem;
},
{
horizontal = 1;
place = "{719, -20}";
target = down;
type = TopGhost;
},
{
horizontal = 1;
place = "{801, 40}";
type = Stem;
},
{
horizontal = 1;
place = "{885, 40}";
type = Stem;
},
{
place = "{249, 42}";
type = Stem;
},
{
place = "{335, 42}";
type = Stem;
}
);
layerId = "9382C8E1-E850-40EA-B00A-FA5C7367EA84";
paths = (
{
closed = 1;
nodes = (
"362 797 OFFCURVE",
"389 823 OFFCURVE",
"389 857 CURVE SMOOTH",
"389 891 OFFCURVE",
"362 917 OFFCURVE",
"327 917 CURVE SMOOTH",
"292 917 OFFCURVE",
"265 891 OFFCURVE",
"265 857 CURVE SMOOTH",
"265 823 OFFCURVE",
"292 797 OFFCURVE",
"327 797 CURVE SMOOTH"
);
},
{
closed = 1;
nodes = (
"313 833 OFFCURVE",
"303 844 OFFCURVE",
"303 857 CURVE SMOOTH",
"303 871 OFFCURVE",
"313 881 OFFCURVE",
"327 881 CURVE SMOOTH",
"341 881 OFFCURVE",
"351 871 OFFCURVE",
"351 857 CURVE SMOOTH",
"351 844 OFFCURVE",
"341 833 OFFCURVE",
"327 833 CURVE SMOOTH"
);
},
{
closed = 1;
nodes = (
"631 0 LINE",
"369 715 LINE",
"287 715 LINE",
"25 0 LINE",
"106 0 LINE",
"184 220 LINE",
"472 220 LINE",
"550 0 LINE"
);
},
{
closed = 1;
nodes = (
"278 470 LINE SMOOTH",
"291 506 OFFCURVE",
"312 571 OFFCURVE",
"328 624 CURVE",
"344 571 OFFCURVE",
"365 506 OFFCURVE",
"378 470 CURVE SMOOTH",
"444 291 LINE",
"212 291 LINE"
);
}
);
width = 656;
}
);
leftKerningGroup = A;
leftMetricsKey = A;
note = Aring;
rightKerningGroup = A;
rightMetricsKey = A;
unicode = 00C5;
},
{
glyphname = Atilde;
lastChange = "2024-06-23 12:44:50 +0000";
layers = (
{
hints = (
{
horizontal = 1;
place = "{4, 21}";
target = up;
type = BottomGhost;
},
{
horizontal = 1;
place = "{224, 75}";
type = Stem;
},
{
horizontal = 1;
place = "{719, -20}";
target = down;
type = TopGhost;
},
{
place = "{9, 610}";
type = Stem;
}
);
layerId = "9382C8E1-E850-40EA-B00A-FA5C7367EA84";
paths = (
{
closed = 1;
nodes = (
"631 0 LINE",
"369 715 LINE",
"287 715 LINE",
"25 0 LINE",
"106 0 LINE",
"184 220 LINE",
"472 220 LINE",
"550 0 LINE"
);
},
{
closed = 1;
nodes = (
"278 470 LINE SMOOTH",
"291 506 OFFCURVE",
"312 571 OFFCURVE",
"328 624 CURVE",
"344 571 OFFCURVE",
"365 506 OFFCURVE",
"378 470 CURVE SMOOTH",
"444 291 LINE",
"212 291 LINE"
);
}
);
width = 656;
}
);
leftKerningGroup = A;
leftMetricsKey = A;
note = Atilde;
rightKerningGroup = A;
rightMetricsKey = A;
unicode = 00C3;
},
{
glyphname = AE;
lastChange = "2024-06-23 12:44:50 +0000";
layers = (
{
hints = (
{
horizontal = 1;
place = "{5, 75}";
type = Stem;
},
{
horizontal = 1;
place = "{224, 75}";
type = Stem;
},
{
horizontal = 1;
place = "{329, 75}";
type = Stem;
},
{
horizontal = 1;
place = "{648, 75}";
type = Stem;
},
{
place = "{401, 89}";
type = Stem;
}
);
layerId = "9382C8E1-E850-40EA-B00A-FA5C7367EA84";
paths = (
{
closed = 1;
nodes = (
"602 72 LINE SMOOTH",
"569 72 OFFCURVE",
"502 70 OFFCURVE",
"502 70 CURVE",
"502 326 LINE",
"502 326 OFFCURVE",
"569 325 OFFCURVE",
"602 325 CURVE SMOOTH",
"858 325 LINE",
"858 396 LINE",
"602 396 LINE SMOOTH",
"569 396 OFFCURVE",
"502 395 OFFCURVE",
"502 395 CURVE",
"502 645 LINE",
"502 645 OFFCURVE",
"569 644 OFFCURVE",
"602 644 CURVE SMOOTH",
"868 644 LINE",
"868 715 LINE",
"287 715 LINE",
"25 0 LINE",
"106 0 LINE",
"184 220 LINE",
"417 220 LINE",
"417 1 LINE",
"878 1 LINE",
"878 72 LINE"
);
},
{
closed = 1;
nodes = (
"278 470 LINE SMOOTH",
"291 506 OFFCURVE",
"319 592 OFFCURVE",
"335 645 CURVE",
"417 645 LINE",
"417 291 LINE",
"212 291 LINE"
);
}
);
width = 957;
}
);
leftKerningGroup = A;
leftMetricsKey = A;
note = AE;
rightKerningGroup = E;
rightMetricsKey = E;
unicode = 00C6;
},
{
glyphname = B;
lastChange = "2024-06-23 16:04:35 +0000";
layers = (
{
hints = (
{
horizontal = 1;
place = "{4, 78}";
type = Stem;
},
{
horizontal = 1;
place = "{345, 79}";
type = Stem;
},
{
horizontal = 1;
place = "{645, 78}";
type = Stem;
},
{
place = "{79, 89}";
type = Stem;
},
{
place = "{529, 89}";
type = Stem;
},
{
place = "{503, 89}";
type = Stem;
}
);
layerId = "9382C8E1-E850-40EA-B00A-FA5C7367EA84";
paths = (
{
closed = 1;
nodes = (
"411 0 LINE SMOOTH",
"541 0 OFFCURVE",
"614 94 OFFCURVE",
"614 208 CURVE SMOOTH",
"614 300 OFFCURVE",
"563 359 OFFCURVE",
"480 381 CURVE",
"547 404 OFFCURVE",
"588 457 OFFCURVE",
"588 531 CURVE SMOOTH",
"588 632 OFFCURVE",
"521 715 OFFCURVE",
"407 715 CURVE SMOOTH",
"79 715 LINE",
"79 0 LINE"
);
},
{
closed = 1;
nodes = (
"164 640 LINE",
"390 641 LINE SMOOTH",
"460 641 OFFCURVE",
"503 591 OFFCURVE",
"503 528 CURVE SMOOTH",
"503 467 OFFCURVE",
"453 416 OFFCURVE",
"381 416 CURVE SMOOTH",
"164 416 LINE"
);
},
{
closed = 1;
nodes = (
"164 341 LINE",
"389 341 LINE SMOOTH",
"470 341 OFFCURVE",
"529 280 OFFCURVE",
"529 207 CURVE SMOOTH",
"529 134 OFFCURVE",
"482 74 OFFCURVE",
"398 74 CURVE SMOOTH",
"164 74 LINE"
);
}
);
width = 669;
}
);
leftMetricsKey = N;
note = B;
unicode = 0042;
},
{
glyphname = C;
lastChange = "2024-06-23 12:36:36 +0000";
layers = (
{
hints = (
{
horizontal = 1;
place = "{-11, 79}";
type = Stem;
},
{
horizontal = 1;
place = "{660, 79}";
type = Stem;
},
{
place = "{46, 92}";
type = Stem;
}
);
layerId = "9382C8E1-E850-40EA-B00A-FA5C7367EA84";
paths = (
{
closed = 1;
nodes = (
"561 -15 OFFCURVE",
"667 93 OFFCURVE",
"694 243 CURVE",
"605 243 LINE",
"587 135 OFFCURVE",
"514 60 OFFCURVE",
"393 60 CURVE SMOOTH",
"227 60 OFFCURVE",
"134 195 OFFCURVE",
"134 356 CURVE SMOOTH",
"134 519 OFFCURVE",
"224 656 OFFCURVE",
"391 656 CURVE SMOOTH",
"501 656 OFFCURVE",
"577 591 OFFCURVE",
"599 494 CURVE",
"692 494 LINE",
"659 633 OFFCURVE",
"554 731 OFFCURVE",
"389 731 CURVE SMOOTH",
"177 731 OFFCURVE",
"46 563 OFFCURVE",
"46 357 CURVE SMOOTH",
"46 152 OFFCURVE",
"177 -15 OFFCURVE",
"389 -15 CURVE SMOOTH"
);
}
);
width = 740;
}
);
leftKerningGroup = O;
leftMetricsKey = O;
note = C;
rightKerningGroup = O;
rightMetricsKey = O;
unicode = 0043;
},
{
glyphname = Ccedilla;
lastChange = "2024-06-23 12:36:36 +0000";
layers = (
{
hints = (
{
horizontal = 1;
place = "{-11, 79}";
type = Stem;
},
{
horizontal = 1;
place = "{660, 79}";
type = Stem;
},
{
place = "{46, 92}";
type = Stem;
}
);
layerId = "9382C8E1-E850-40EA-B00A-FA5C7367EA84";
paths = (
{
closed = 1;
nodes = (
"561 -15 OFFCURVE",
"667 93 OFFCURVE",
"694 243 CURVE",
"605 243 LINE",
"587 135 OFFCURVE",
"514 60 OFFCURVE",
"393 60 CURVE SMOOTH",
"227 60 OFFCURVE",
"134 195 OFFCURVE",
"134 356 CURVE SMOOTH",
"134 519 OFFCURVE",
"224 656 OFFCURVE",
"391 656 CURVE SMOOTH",
"501 656 OFFCURVE",
"577 591 OFFCURVE",
"599 494 CURVE",
"692 494 LINE",
"659 633 OFFCURVE",
"554 731 OFFCURVE",
"389 731 CURVE SMOOTH",
"177 731 OFFCURVE",
"46 563 OFFCURVE",
"46 357 CURVE SMOOTH",
"46 152 OFFCURVE",
"177 -15 OFFCURVE",
"389 -15 CURVE SMOOTH"
);
}
);
width = 740;
}
);
leftKerningGroup = O;
leftMetricsKey = O;
note = Ccedilla;
rightKerningGroup = O;
rightMetricsKey = O;
unicode = 00C7;
},
{
glyphname = D;
lastChange = "2024-06-23 12:36:43 +0000";
layers = (
{
hints = (
{
horizontal = 1;
place = "{4, 78}";
type = Stem;
},
{
horizontal = 1;
place = "{645, 79}";
type = Stem;
},
{
place = "{79, 89}";
type = Stem;
},
{
place = "{587, 92}";
type = Stem;
}
);
layerId = "9382C8E1-E850-40EA-B00A-FA5C7367EA84";
paths = (
{
closed = 1;
nodes = (
"347 0 LINE SMOOTH",
"551 0 OFFCURVE",
"675 161 OFFCURVE",
"675 358 CURVE SMOOTH",
"675 555 OFFCURVE",
"554 717 OFFCURVE",
"347 716 CURVE SMOOTH",
"79 715 LINE",
"79 0 LINE"
);
},
{
closed = 1;
nodes = (
"164 641 LINE",
"341 641 LINE SMOOTH",
"499 641 OFFCURVE",
"587 510 OFFCURVE",
"587 357 CURVE SMOOTH",
"587 206 OFFCURVE",
"496 74 OFFCURVE",
"344 74 CURVE SMOOTH",
"164 74 LINE"
);
}
);
width = 705;
}
);
leftKerningGroup = N;
leftMetricsKey = N;
note = D;
rightKerningGroup = O;
rightMetricsKey = P;
unicode = 0044;
},
{
glyphname = Eth;
lastChange = "2024-06-23 12:36:43 +0000";
layers = (
{
hints = (
{
horizontal = 1;
place = "{4, 78}";
type = Stem;
},
{
horizontal = 1;
place = "{327, 75}";
type = Stem;
},
{
horizontal = 1;
place = "{645, 79}";
type = Stem;
},
{
place = "{79, 89}";
type = Stem;
},
{
place = "{587, 92}";
type = Stem;
}
);
layerId = "9382C8E1-E850-40EA-B00A-FA5C7367EA84";
paths = (
{
closed = 1;
nodes = (
"134 715 LINE",
"134 394 LINE",
"79 394 LINE",
"79 323 LINE",
"134 323 LINE",
"134 0 LINE",
"402 0 LINE SMOOTH",
"606 0 OFFCURVE",
"730 161 OFFCURVE",
"730 358 CURVE SMOOTH",
"730 555 OFFCURVE",
"609 717 OFFCURVE",
"402 716 CURVE SMOOTH"
);
},
{
closed = 1;
nodes = (
"219 74 LINE",
"219 323 LINE",
"359 323 LINE",
"359 394 LINE",
"219 394 LINE",
"219 641 LINE",
"396 641 LINE SMOOTH",
"554 641 OFFCURVE",
"642 510 OFFCURVE",
"642 357 CURVE SMOOTH",
"642 206 OFFCURVE",
"551 74 OFFCURVE",
"399 74 CURVE SMOOTH"
);
}
);
width = 760;
}
);
leftKerningGroup = N;
leftMetricsKey = N;
note = Eth;
rightKerningGroup = O;
rightMetricsKey = P;
unicode = 00D0;
},
{
glyphname = E;
lastChange = "2024-06-23 12:36:51 +0000";
layers = (
{
hints = (
{
horizontal = 1;
place = "{5, 75}";
type = Stem;
},
{
horizontal = 1;
place = "{329, 75}";
type = Stem;
},
{
horizontal = 1;
place = "{648, 75}";
type = Stem;
},
{
place = "{79, 89}";
type = Stem;
}
);
layerId = "9382C8E1-E850-40EA-B00A-FA5C7367EA84";
paths = (
{
closed = 1;
nodes = (
"540 1 LINE",
"540 72 LINE",
"264 72 LINE SMOOTH",
"231 72 OFFCURVE",
"164 70 OFFCURVE",
"164 70 CURVE",
"164 326 LINE",
"164 326 OFFCURVE",
"231 325 OFFCURVE",
"264 325 CURVE SMOOTH",
"520 325 LINE",
"520 396 LINE",
"264 396 LINE SMOOTH",
"231 396 OFFCURVE",
"164 395 OFFCURVE",
"164 395 CURVE",
"164 645 LINE",
"164 645 OFFCURVE",
"231 644 OFFCURVE",
"264 644 CURVE SMOOTH",
"530 644 LINE",
"530 715 LINE",
"79 715 LINE",
"79 1 LINE"
);
}
);
width = 619;
}
);
leftKerningGroup = N;
leftMetricsKey = N;
note = E;
rightKerningGroup = N;
rightMetricsKey = N;
unicode = 0045;
},
{
glyphname = Eacute;
lastChange = "2024-06-23 12:36:51 +0000";
layers = (
{
hints = (
{
horizontal = 1;
place = "{5, 75}";
type = Stem;
},
{
horizontal = 1;
place = "{329, 75}";
type = Stem;
},
{
horizontal = 1;
place = "{648, 75}";
type = Stem;
},
{
horizontal = 1;
place = "{798, 103}";
type = Stem;
},
{
place = "{79, 89}";
type = Stem;
}
);
layerId = "9382C8E1-E850-40EA-B00A-FA5C7367EA84";
paths = (
{
closed = 1;
nodes = (
"336 827 LINE SMOOTH",
"371 860 OFFCURVE",
"400 893 OFFCURVE",
"400 893 CURVE SMOOTH",
"320 893 LINE SMOOTH",
"320 893 OFFCURVE",
"280 860 OFFCURVE",
"246 827 CURVE SMOOTH",
"212 794 LINE",
"303 794 LINE"
);
},
{
closed = 1;
nodes = (
"540 1 LINE",
"540 72 LINE",
"264 72 LINE SMOOTH",
"231 72 OFFCURVE",
"164 70 OFFCURVE",
"164 70 CURVE",
"164 326 LINE",
"164 326 OFFCURVE",
"231 325 OFFCURVE",
"264 325 CURVE SMOOTH",
"520 325 LINE",
"520 396 LINE",
"264 396 LINE SMOOTH",
"231 396 OFFCURVE",
"164 395 OFFCURVE",
"164 395 CURVE",
"164 645 LINE",
"164 645 OFFCURVE",
"231 644 OFFCURVE",
"264 644 CURVE SMOOTH",
"530 644 LINE",
"530 715 LINE",
"79 715 LINE",
"79 1 LINE"
);
}
);
width = 619;
}
);
leftKerningGroup = N;
leftMetricsKey = N;
note = Eacute;
rightKerningGroup = N;
rightMetricsKey = N;
unicode = 00C9;
},
{
glyphname = Ecircumflex;
lastChange = "2024-06-23 12:36:51 +0000";
layers = (
{
hints = (
{
horizontal = 1;
place = "{5, 75}";
type = Stem;
},
{
horizontal = 1;
place = "{329, 75}";
type = Stem;
},
{
horizontal = 1;
place = "{648, 75}";
type = Stem;
},
{
horizontal = 1;
place = "{799, 103}";
type = Stem;
},
{
place = "{79, 89}";
type = Stem;
}
);
layerId = "9382C8E1-E850-40EA-B00A-FA5C7367EA84";
paths = (
{
closed = 1;
nodes = (
"351 795 LINE",
"414 795 LINE",
"351 894 LINE",
"268 894 LINE",
"206 795 LINE",
"268 795 LINE",
"310 860 LINE"
);
},
{
closed = 1;
nodes = (
"264 72 LINE SMOOTH",
"231 72 OFFCURVE",
"164 70 OFFCURVE",
"164 70 CURVE",
"164 326 LINE",
"164 326 OFFCURVE",
"231 325 OFFCURVE",
"264 325 CURVE SMOOTH",
"520 325 LINE",
"520 396 LINE",
"264 396 LINE SMOOTH",
"231 396 OFFCURVE",
"164 395 OFFCURVE",
"164 395 CURVE",
"164 645 LINE",
"164 645 OFFCURVE",
"231 644 OFFCURVE",
"264 644 CURVE SMOOTH",
"530 644 LINE",
"530 715 LINE",
"79 715 LINE",
"79 1 LINE",
"540 1 LINE",
"540 72 LINE"
);
}
);
width = 619;
}
);
leftKerningGroup = N;
leftMetricsKey = N;
note = Ecircumflex;
rightKerningGroup = N;
rightMetricsKey = N;
unicode = 00CA;
},
{
glyphname = Edieresis;
lastChange = "2024-06-23 12:36:51 +0000";
layers = (
{
hints = (
{
horizontal = 1;
place = "{5, 75}";
type = Stem;
},
{
horizontal = 1;
place = "{329, 75}";
type = Stem;
},
{
horizontal = 1;
place = "{648, 75}";
type = Stem;
},
{
horizontal = 1;
place = "{795, 106}";
type = Stem;
},
{
place = "{160, 108}";
type = Stem;
},
{
place = "{354, 108}";
type = Stem;
},
{
place = "{79, 89}";
type = Stem;
}
);
layerId = "9382C8E1-E850-40EA-B00A-FA5C7367EA84";
paths = (
{
closed = 1;
nodes = (
"160 813 OFFCURVE",
"182 791 OFFCURVE",
"212 791 CURVE SMOOTH",
"242 791 OFFCURVE",
"264 813 OFFCURVE",
"264 842 CURVE SMOOTH",
"264 871 OFFCURVE",
"242 893 OFFCURVE",
"212 893 CURVE SMOOTH",
"182 893 OFFCURVE",
"160 871 OFFCURVE",
"160 842 CURVE SMOOTH"
);
},
{
closed = 1;
nodes = (
"354 813 OFFCURVE",
"376 791 OFFCURVE",
"406 791 CURVE SMOOTH",
"436 791 OFFCURVE",
"458 813 OFFCURVE",
"458 842 CURVE SMOOTH",
"458 871 OFFCURVE",
"436 893 OFFCURVE",
"406 893 CURVE SMOOTH",
"376 893 OFFCURVE",
"354 871 OFFCURVE",
"354 842 CURVE SMOOTH"
);
},
{
closed = 1;
nodes = (
"540 1 LINE",
"540 72 LINE",
"264 72 LINE SMOOTH",
"231 72 OFFCURVE",
"164 70 OFFCURVE",
"164 70 CURVE",
"164 326 LINE",
"164 326 OFFCURVE",
"231 325 OFFCURVE",
"264 325 CURVE SMOOTH",
"520 325 LINE",
"520 396 LINE",
"264 396 LINE SMOOTH",
"231 396 OFFCURVE",
"164 395 OFFCURVE",
"164 395 CURVE",
"164 645 LINE",
"164 645 OFFCURVE",
"231 644 OFFCURVE",
"264 644 CURVE SMOOTH",
"530 644 LINE",
"530 715 LINE",
"79 715 LINE",
"79 1 LINE"
);
}
);
width = 619;
}
);
leftKerningGroup = N;
leftMetricsKey = N;
note = Edieresis;
rightKerningGroup = N;
rightMetricsKey = N;
unicode = 00CB;
},
{
glyphname = F;
lastChange = "2024-06-23 12:44:50 +0000";
layers = (
{
hints = (
{
horizontal = 1;
place = "{4, 21}";
target = up;
type = BottomGhost;
},
{
horizontal = 1;
place = "{330, 75}";
type = Stem;
},
{
horizontal = 1;
place = "{648, 75}";
type = Stem;
},
{
place = "{79, 89}";
type = Stem;
}
);
layerId = "9382C8E1-E850-40EA-B00A-FA5C7367EA84";
paths = (
{
closed = 1;
nodes = (
"164 0 LINE",
"164 326 LINE",
"490 326 LINE",
"490 397 LINE",
"264 397 LINE SMOOTH",
"231 397 OFFCURVE",
"164 395 OFFCURVE",
"164 395 CURVE",
"164 646 LINE",
"164 646 OFFCURVE",
"231 644 OFFCURVE",
"264 644 CURVE SMOOTH",
"530 644 LINE",
"530 715 LINE",
"79 715 LINE",
"79 0 LINE"
);
}
);
width = 570;
}
);
leftKerningGroup = N;
leftMetricsKey = N;
note = F;
rightMetricsKey = B;
unicode = 0046;
},
{
glyphname = G;
lastChange = "2024-06-23 10:44:54 +0000";
layers = (
{
hints = (
{
horizontal = 1;
place = "{-11, 79}";
type = Stem;
},
{
horizontal = 1;
place = "{308, 75}";
type = Stem;
},
{
horizontal = 1;
place = "{659, 79}";
type = Stem;
},
{
place = "{46, 92}";
type = Stem;
},
{
place = "{634, 75}";
type = Stem;
},
{
place = "{614, 95}";
type = Stem;
}
);
layerId = "9382C8E1-E850-40EA-B00A-FA5C7367EA84";
paths = (
{
closed = 1;
nodes = (
"491 -15 OFFCURVE",
"602 49 OFFCURVE",
"634 145 CURVE",
"634 0 LINE",
"705 0 LINE",
"705 375 LINE",
"400 375 LINE",
"400 304 LINE",
"517 304 LINE SMOOTH",
"553 304 OFFCURVE",
"605 307 OFFCURVE",
"614 307 CURVE",
"601 169 OFFCURVE",
"513 60 OFFCURVE",
"389 60 CURVE SMOOTH",
"230 60 OFFCURVE",
"134 197 OFFCURVE",
"134 356 CURVE SMOOTH",
"134 517 OFFCURVE",
"229 655 OFFCURVE",
"389 655 CURVE SMOOTH",
"504 655 OFFCURVE",
"569 589 OFFCURVE",
"598 494 CURVE",
"688 494 LINE",
"651 632 OFFCURVE",
"553 730 OFFCURVE",
"389 730 CURVE SMOOTH",
"178 730 OFFCURVE",
"46 563 OFFCURVE",
"46 357 CURVE SMOOTH",
"46 152 OFFCURVE",
"168 -15 OFFCURVE",
"379 -15 CURVE SMOOTH"
);
}
);
width = 784;
}
);
leftKerningGroup = O;
leftMetricsKey = O;
note = G;
rightKerningGroup = N;
rightMetricsKey = N;
unicode = 0047;
},
{
glyphname = H;
lastChange = "2024-06-23 10:44:54 +0000";
layers = (
{
hints = (
{
horizontal = 1;
place = "{4, 21}";
target = up;
type = BottomGhost;
},
{
horizontal = 1;
place = "{337, 75}";
type = Stem;
},
{
horizontal = 1;
place = "{719, -20}";
target = down;
type = TopGhost;
},
{
place = "{79, 89}";
type = Stem;
},
{
place = "{556, 89}";
type = Stem;
}
);
layerId = "9382C8E1-E850-40EA-B00A-FA5C7367EA84";
paths = (
{
closed = 1;
nodes = (
"641 0 LINE",
"641 715 LINE",
"556 715 LINE",
"556 402 LINE",
"556 402 OFFCURVE",
"505 404 OFFCURVE",
"469 404 CURVE SMOOTH",
"255 404 LINE SMOOTH",
"219 404 OFFCURVE",
"164 402 OFFCURVE",
"164 402 CURVE",
"164 715 LINE",
"79 715 LINE",
"79 0 LINE",
"164 0 LINE",
"164 335 LINE",
"164 335 OFFCURVE",
"219 333 OFFCURVE",
"255 333 CURVE SMOOTH",
"469 333 LINE SMOOTH",
"505 333 OFFCURVE",
"556 335 OFFCURVE",
"556 335 CURVE",
"556 0 LINE"
);
}
);
width = 720;
}
);
leftKerningGroup = N;
leftMetricsKey = N;
note = H;
rightKerningGroup = N;
rightMetricsKey = N;
unicode = 0048;
},
{
glyphname = I;
lastChange = "2024-06-23 10:44:54 +0000";
layers = (
{
hints = (
{
horizontal = 1;
place = "{4, 21}";
target = up;
type = BottomGhost;
},
{
horizontal = 1;
place = "{719, -20}";
target = down;
type = TopGhost;
},
{
place = "{79, 89}";
type = Stem;
}
);
layerId = "9382C8E1-E850-40EA-B00A-FA5C7367EA84";
paths = (
{
closed = 1;
nodes = (
"164 0 LINE",
"164 715 LINE",
"79 715 LINE",
"79 0 LINE"
);
}
);
width = 243;
}
);
leftKerningGroup = N;
leftMetricsKey = N;
note = I;
rightKerningGroup = N;
rightMetricsKey = N;
unicode = 0049;
},
{
glyphname = Icircumflex;
lastChange = "2024-06-23 12:37:09 +0000";
layers = (
{
hints = (
{
horizontal = 1;
place = "{4, 21}";
target = up;
type = BottomGhost;
},
{
horizontal = 1;
place = "{719, -20}";
target = down;
type = TopGhost;
},
{
horizontal = 1;
place = "{799, 103}";
type = Stem;
},
{
place = "{79, 89}";
type = Stem;
}
);
layerId = "9382C8E1-E850-40EA-B00A-FA5C7367EA84";
paths = (
{
closed = 1;
nodes = (
"287 795 LINE",
"224 894 LINE",
"141 894 LINE",
"79 795 LINE",
"141 795 LINE",
"183 860 LINE",
"224 795 LINE"
);
},
{
closed = 1;
nodes = (
"229 0 LINE",
"229 715 LINE",
"144 715 LINE",
"144 0 LINE"
);
}
);
width = 366;
}
);
leftKerningGroup = I;
leftMetricsKey = I;
note = Icircumflex;
rightKerningGroup = I;
rightMetricsKey = I;
unicode = 00CE;
},
{
glyphname = Idieresis;
lastChange = "2024-06-23 12:37:09 +0000";
layers = (
{
hints = (
{
horizontal = 1;
place = "{4, 21}";
target = up;
type = BottomGhost;
},
{
horizontal = 1;
place = "{719, -20}";
target = down;
type = TopGhost;
},
{
horizontal = 1;
place = "{795, 106}";
type = Stem;
},
{
place = "{-29, 108}";
type = Stem;
},
{
place = "{165, 108}";
type = Stem;
},
{
place = "{79, 89}";
type = Stem;
}
);
layerId = "9382C8E1-E850-40EA-B00A-FA5C7367EA84";
paths = (
{
closed = 1;
nodes = (
"79 813 OFFCURVE",
"101 791 OFFCURVE",
"131 791 CURVE SMOOTH",
"161 791 OFFCURVE",
"183 813 OFFCURVE",
"183 842 CURVE SMOOTH",
"183 871 OFFCURVE",
"161 893 OFFCURVE",
"131 893 CURVE SMOOTH",
"101 893 OFFCURVE",
"79 871 OFFCURVE",
"79 842 CURVE SMOOTH"
);
},
{
closed = 1;
nodes = (
"273 813 OFFCURVE",
"295 791 OFFCURVE",
"325 791 CURVE SMOOTH",
"355 791 OFFCURVE",
"377 813 OFFCURVE",
"377 842 CURVE SMOOTH",
"377 871 OFFCURVE",
"355 893 OFFCURVE",
"325 893 CURVE SMOOTH",
"295 893 OFFCURVE",
"273 871 OFFCURVE",
"273 842 CURVE SMOOTH"
);
},
{
closed = 1;
nodes = (
"272 0 LINE",
"272 715 LINE",
"187 715 LINE",
"187 0 LINE"
);
}
);
width = 456;
}
);
leftKerningGroup = I;
leftMetricsKey = I;
note = Idieresis;
rightKerningGroup = I;
rightMetricsKey = I;
unicode = 00CF;
},
{
glyphname = Igrave;
lastChange = "2024-06-23 12:37:09 +0000";
layers = (
{
hints = (
{
horizontal = 1;
place = "{4, 21}";
target = up;
type = BottomGhost;
},
{
horizontal = 1;
place = "{719, -20}";
target = down;
type = TopGhost;
},
{
horizontal = 1;
place = "{799, 103}";
type = Stem;
},
{
place = "{79, 89}";
type = Stem;
}
);
layerId = "9382C8E1-E850-40EA-B00A-FA5C7367EA84";
paths = (
{
closed = 1;
nodes = (
"267 795 LINE",
"233 828 LINE SMOOTH",
"199 861 OFFCURVE",
"159 894 OFFCURVE",
"159 894 CURVE SMOOTH",
"79 894 LINE SMOOTH",
"79 894 OFFCURVE",
"108 861 OFFCURVE",
"143 828 CURVE SMOOTH",
"176 795 LINE"
);
},
{
closed = 1;
nodes = (
"211 0 LINE",
"211 715 LINE",
"126 715 LINE",
"126 0 LINE"
);
}
);
width = 346;
}
);
leftKerningGroup = I;
leftMetricsKey = I;
note = Igrave;
rightKerningGroup = I;
rightMetricsKey = I;
unicode = 00CC;
},
{
glyphname = J;
lastChange = "2024-06-23 12:44:50 +0000";
layers = (
{
hints = (
{
horizontal = 1;
place = "{-12, 73}";
type = Stem;
},
{
horizontal = 1;
place = "{719, -20}";
target = down;
type = TopGhost;
},
{
place = "{9, 89}";
type = Stem;
},
{
place = "{341, 88}";
type = Stem;
}
);
layerId = "9382C8E1-E850-40EA-B00A-FA5C7367EA84";
paths = (
{
closed = 1;
nodes = (
"373 -16 OFFCURVE",
"441 76 OFFCURVE",
"441 211 CURVE SMOOTH",
"442 715 LINE",
"357 715 LINE",
"357 198 LINE SMOOTH",
"357 109 OFFCURVE",
"324 53 OFFCURVE",
"234 53 CURVE SMOOTH",
"144 53 OFFCURVE",
"110 111 OFFCURVE",
"110 191 CURVE",
"25 191 LINE",
"25 78 OFFCURVE",
"95 -16 OFFCURVE",
"234 -16 CURVE SMOOTH"
);
}
);
width = 521;
}
);
leftKerningGroup = V;
leftMetricsKey = V;
note = J;
rightKerningGroup = N;
rightMetricsKey = N;
unicode = 004A;
},
{
glyphname = K;
lastChange = "2024-06-23 12:44:50 +0000";
layers = (
{
hints = (
{
horizontal = 1;
place = "{5, 21}";
target = up;
type = BottomGhost;
},
{
horizontal = 1;
place = "{721, -20}";
target = down;
type = TopGhost;
},
{
place = "{80, 88}";
type = Stem;
}
);
layerId = "9382C8E1-E850-40EA-B00A-FA5C7367EA84";
paths = (
{
closed = 1;
nodes = (
"164 0 LINE",
"164 251 LINE",
"287 377 LINE",
"561 1 LINE",
"655 1 LINE",
"340 431 LINE",
"620 716 LINE",
"514 716 LINE",
"163 360 LINE",
"164 717 LINE",
"80 717 LINE",
"79 0 LINE"
);
}
);
width = 680;
}
);
leftKerningGroup = N;
leftMetricsKey = N;
note = K;
rightKerningGroup = V;
rightMetricsKey = V;
unicode = 004B;
},
{
glyphname = L;
lastChange = "2024-06-23 10:44:54 +0000";
layers = (
{
hints = (
{
horizontal = 1;
place = "{4, 79}";
type = Stem;
},
{
horizontal = 1;
place = "{719, -20}";
target = down;
type = TopGhost;
},
{
place = "{79, 89}";
type = Stem;
}
);
layerId = "9382C8E1-E850-40EA-B00A-FA5C7367EA84";
paths = (
{
closed = 1;
nodes = (
"529 0 LINE",
"529 75 LINE",
"264 75 LINE SMOOTH",
"231 75 OFFCURVE",
"164 73 OFFCURVE",
"164 73 CURVE",
"164 715 LINE",
"79 715 LINE",
"79 0 LINE"
);
}
);
width = 538;
}
);
note = L;
unicode = 004C;
},
{
glyphname = M;
lastChange = "2024-06-23 10:44:54 +0000";
layers = (
{
hints = (
{
horizontal = 1;
place = "{4, 89}";
type = Stem;
},
{
horizontal = 1;
place = "{719, -20}";
target = down;
type = TopGhost;
},
{
place = "{79, 89}";
type = Stem;
},
{
place = "{748, 89}";
type = Stem;
}
);
layerId = "9382C8E1-E850-40EA-B00A-FA5C7367EA84";
paths = (
{
closed = 1;
nodes = (
"500 0 LINE",
"694 441 LINE SMOOTH",
"705 465 OFFCURVE",
"727 517 OFFCURVE",
"748 570 CURVE",
"748 0 LINE",
"833 0 LINE",
"833 715 LINE",
"734 715 LINE",
"522 240 LINE SMOOTH",
"504 199 OFFCURVE",
"479 136 OFFCURVE",
"459 85 CURVE",
"439 136 OFFCURVE",
"414 199 OFFCURVE",
"396 240 CURVE SMOOTH",
"184 715 LINE",
"79 715 LINE",
"79 0 LINE",
"164 0 LINE",
"164 586 LINE",
"187 528 OFFCURVE",
"212 468 OFFCURVE",
"224 441 CURVE SMOOTH",
"418 0 LINE"
);
}
);
width = 912;
}
);
leftKerningGroup = N;
leftMetricsKey = N;
note = M;
rightKerningGroup = N;
rightMetricsKey = N;
unicode = 004D;
},
{
glyphname = N;
lastChange = "2024-06-23 16:03:03 +0000";
layers = (
{
hints = (
{
horizontal = 1;
place = "{4, 21}";
target = up;
type = BottomGhost;
},
{
horizontal = 1;
place = "{719, -20}";
target = down;
type = TopGhost;
},
{
place = "{79, 89}";
type = Stem;
},
{
place = "{526, 89}";
type = Stem;
}
);
layerId = "9382C8E1-E850-40EA-B00A-FA5C7367EA84";
paths = (
{
closed = 1;
nodes = (
"617 0 LINE",
"617 715 LINE",
"532 715 LINE",
"532 132 LINE",
"511 170 OFFCURVE",
"489 209 OFFCURVE",
"471 238 CURVE SMOOTH",
"170 715 LINE",
"85 715 LINE",
"85 0 LINE",
"170 0 LINE",
"170 584 LINE",
"195 538 OFFCURVE",
"223 489 OFFCURVE",
"245 454 CURVE SMOOTH",
"532 0 LINE"
);
}
);
width = 702;
}
);
note = N;
unicode = 004E;
},
{
glyphname = Ntilde;
lastChange = "2024-06-23 10:44:54 +0000";
layers = (
{
hints = (
{
horizontal = 1;
place = "{4, 21}";
target = up;
type = BottomGhost;
},
{
horizontal = 1;
place = "{719, -20}";
target = down;
type = TopGhost;
},
{
place = "{79, 89}";
type = Stem;
},
{
place = "{526, 89}";
type = Stem;
}
);
layerId = "9382C8E1-E850-40EA-B00A-FA5C7367EA84";
paths = (
{
closed = 1;
nodes = (
"611 0 LINE",
"611 715 LINE",
"526 715 LINE",
"526 132 LINE",
"505 170 OFFCURVE",
"483 209 OFFCURVE",
"465 238 CURVE SMOOTH",
"164 715 LINE",
"79 715 LINE",
"79 0 LINE",
"164 0 LINE",
"164 584 LINE",
"189 538 OFFCURVE",
"217 489 OFFCURVE",
"239 454 CURVE SMOOTH",
"526 0 LINE"
);
}
);
width = 690;
}
);
note = Ntilde;
unicode = 00D1;
},
{
glyphname = O;
lastChange = "2024-06-23 16:03:33 +0000";
layers = (
{
hints = (
{
horizontal = 1;
place = "{-11, 79}";
type = Stem;
},
{
horizontal = 1;
place = "{659, 79}";
type = Stem;
},
{
place = "{46, 92}";
type = Stem;
},
{
place = "{644, 91}";
type = Stem;
}
);
layerId = "9382C8E1-E850-40EA-B00A-FA5C7367EA84";
paths = (
{
closed = 1;
nodes = (
"605 -15 OFFCURVE",
"735 152 OFFCURVE",
"735 357 CURVE SMOOTH",
"735 563 OFFCURVE",
"608 730 OFFCURVE",
"393 730 CURVE SMOOTH",
"182 730 OFFCURVE",
"50 563 OFFCURVE",
"50 357 CURVE SMOOTH",
"50 152 OFFCURVE",
"182 -15 OFFCURVE",
"393 -15 CURVE SMOOTH"
);
},
{
closed = 1;
nodes = (
"138 517 OFFCURVE",
"230 655 OFFCURVE",
"392 655 CURVE SMOOTH",
"559 655 OFFCURVE",
"648 517 OFFCURVE",
"648 356 CURVE SMOOTH",
"648 198 OFFCURVE",
"555 60 OFFCURVE",
"392 60 CURVE SMOOTH",
"231 60 OFFCURVE",
"138 198 OFFCURVE",
"138 356 CURVE SMOOTH"
);
}
);
width = 785;
}
);
note = O;
unicode = 004F;
},
{
glyphname = Oacute;
lastChange = "2024-06-23 12:37:21 +0000";
layers = (
{
hints = (
{
horizontal = 1;
place = "{-11, 79}";
type = Stem;
},
{
horizontal = 1;
place = "{659, 79}";
type = Stem;
},
{
horizontal = 1;
place = "{799, 103}";
type = Stem;
},
{
place = "{46, 92}";
type = Stem;
},
{
place = "{644, 91}";
type = Stem;
}
);
layerId = "9382C8E1-E850-40EA-B00A-FA5C7367EA84";
paths = (
{
closed = 1;
nodes = (
"407 828 LINE SMOOTH",
"442 861 OFFCURVE",
"471 894 OFFCURVE",
"471 894 CURVE SMOOTH",
"391 894 LINE SMOOTH",
"391 894 OFFCURVE",
"351 861 OFFCURVE",
"317 828 CURVE SMOOTH",
"283 795 LINE",
"374 795 LINE"
);
},
{
closed = 1;
nodes = (
"601 -15 OFFCURVE",
"731 152 OFFCURVE",
"731 357 CURVE SMOOTH",
"731 563 OFFCURVE",
"604 730 OFFCURVE",
"389 730 CURVE SMOOTH",
"178 730 OFFCURVE",
"46 563 OFFCURVE",
"46 357 CURVE SMOOTH",
"46 152 OFFCURVE",
"178 -15 OFFCURVE",
"389 -15 CURVE SMOOTH"
);
},
{
closed = 1;
nodes = (
"134 517 OFFCURVE",
"226 655 OFFCURVE",
"388 655 CURVE SMOOTH",
"555 655 OFFCURVE",
"644 517 OFFCURVE",
"644 356 CURVE SMOOTH",
"644 198 OFFCURVE",
"551 60 OFFCURVE",
"388 60 CURVE SMOOTH",
"227 60 OFFCURVE",
"134 198 OFFCURVE",
"134 356 CURVE SMOOTH"
);
}
);
width = 777;
}
);
leftKerningGroup = O;
leftMetricsKey = O;
note = Oacute;
rightKerningGroup = O;
rightMetricsKey = O;
unicode = 00D3;
},
{
glyphname = Ocircumflex;
lastChange = "2024-06-23 12:37:21 +0000";
layers = (
{
hints = (
{
horizontal = 1;
place = "{-11, 79}";
type = Stem;
},
{
horizontal = 1;
place = "{659, 79}";
type = Stem;
},
{
horizontal = 1;
place = "{799, 103}";
type = Stem;
},
{
place = "{46, 92}";
type = Stem;
},
{
place = "{644, 91}";
type = Stem;
}
);
layerId = "9382C8E1-E850-40EA-B00A-FA5C7367EA84";
paths = (
{
closed = 1;
nodes = (
"423 795 LINE",
"486 795 LINE",
"423 894 LINE",
"340 894 LINE",
"278 795 LINE",
"340 795 LINE",
"382 860 LINE"
);
},
{
closed = 1;
nodes = (
"178 730 OFFCURVE",
"46 563 OFFCURVE",
"46 357 CURVE SMOOTH",
"46 152 OFFCURVE",
"178 -15 OFFCURVE",
"389 -15 CURVE SMOOTH",
"601 -15 OFFCURVE",
"731 152 OFFCURVE",
"731 357 CURVE SMOOTH",
"731 563 OFFCURVE",
"604 730 OFFCURVE",
"389 730 CURVE SMOOTH"
);
},
{
closed = 1;
nodes = (
"227 60 OFFCURVE",
"134 198 OFFCURVE",
"134 356 CURVE SMOOTH",
"134 517 OFFCURVE",
"226 655 OFFCURVE",
"388 655 CURVE SMOOTH",
"555 655 OFFCURVE",
"644 517 OFFCURVE",
"644 356 CURVE SMOOTH",
"644 198 OFFCURVE",
"551 60 OFFCURVE",
"388 60 CURVE SMOOTH"
);
}
);
width = 777;
}
);
leftKerningGroup = O;
leftMetricsKey = O;
note = Ocircumflex;
rightKerningGroup = O;
rightMetricsKey = O;
unicode = 00D4;
},
{
glyphname = Odieresis;
lastChange = "2024-06-23 12:37:21 +0000";
layers = (
{
hints = (
{
horizontal = 1;
place = "{-11, 79}";
type = Stem;
},
{
horizontal = 1;
place = "{659, 79}";
type = Stem;
},
{
horizontal = 1;
place = "{796, 106}";
type = Stem;
},
{
place = "{46, 92}";
type = Stem;
},
{
place = "{233, 108}";
type = Stem;
},
{
place = "{427, 108}";
type = Stem;
},
{
place = "{644, 91}";
type = Stem;
}
);
layerId = "9382C8E1-E850-40EA-B00A-FA5C7367EA84";
paths = (
{
closed = 1;
nodes = (
"233 814 OFFCURVE",
"255 792 OFFCURVE",
"285 792 CURVE SMOOTH",
"315 792 OFFCURVE",
"337 814 OFFCURVE",
"337 843 CURVE SMOOTH",
"337 872 OFFCURVE",
"315 894 OFFCURVE",
"285 894 CURVE SMOOTH",
"255 894 OFFCURVE",
"233 872 OFFCURVE",
"233 843 CURVE SMOOTH"
);
},
{
closed = 1;
nodes = (
"427 814 OFFCURVE",
"449 792 OFFCURVE",
"479 792 CURVE SMOOTH",
"509 792 OFFCURVE",
"531 814 OFFCURVE",
"531 843 CURVE SMOOTH",
"531 872 OFFCURVE",
"509 894 OFFCURVE",
"479 894 CURVE SMOOTH",
"449 894 OFFCURVE",
"427 872 OFFCURVE",
"427 843 CURVE SMOOTH"
);
},
{
closed = 1;
nodes = (
"601 -15 OFFCURVE",
"731 152 OFFCURVE",
"731 357 CURVE SMOOTH",
"731 563 OFFCURVE",
"604 730 OFFCURVE",
"389 730 CURVE SMOOTH",
"178 730 OFFCURVE",
"46 563 OFFCURVE",
"46 357 CURVE SMOOTH",
"46 152 OFFCURVE",
"178 -15 OFFCURVE",
"389 -15 CURVE SMOOTH"
);
},
{
closed = 1;
nodes = (
"134 517 OFFCURVE",
"226 655 OFFCURVE",
"388 655 CURVE SMOOTH",
"555 655 OFFCURVE",
"644 517 OFFCURVE",
"644 356 CURVE SMOOTH",
"644 198 OFFCURVE",
"551 60 OFFCURVE",
"388 60 CURVE SMOOTH",
"227 60 OFFCURVE",
"134 198 OFFCURVE",
"134 356 CURVE SMOOTH"
);
}
);
width = 777;
}
);
leftKerningGroup = O;
leftMetricsKey = O;
note = Odieresis;
rightKerningGroup = O;
rightMetricsKey = O;
unicode = 00D6;
},
{
glyphname = Ograve;
lastChange = "2024-06-23 12:37:21 +0000";
layers = (
{
hints = (
{
horizontal = 1;
place = "{-11, 79}";
type = Stem;
},
{
horizontal = 1;
place = "{659, 79}";
type = Stem;
},
{
horizontal = 1;
place = "{799, 103}";
type = Stem;
},
{
place = "{46, 92}";
type = Stem;
},
{
place = "{644, 91}";
type = Stem;
}
);
layerId = "9382C8E1-E850-40EA-B00A-FA5C7367EA84";
paths = (
{
closed = 1;
nodes = (
"481 795 LINE",
"447 828 LINE SMOOTH",
"413 861 OFFCURVE",
"373 894 OFFCURVE",
"373 894 CURVE SMOOTH",
"293 894 LINE SMOOTH",
"293 894 OFFCURVE",
"322 861 OFFCURVE",
"357 828 CURVE SMOOTH",
"390 795 LINE"
);
},
{
closed = 1;
nodes = (
"601 -15 OFFCURVE",
"731 152 OFFCURVE",
"731 357 CURVE SMOOTH",
"731 563 OFFCURVE",
"604 730 OFFCURVE",
"389 730 CURVE SMOOTH",
"178 730 OFFCURVE",
"46 563 OFFCURVE",
"46 357 CURVE SMOOTH",
"46 152 OFFCURVE",
"178 -15 OFFCURVE",
"389 -15 CURVE SMOOTH"
);
},
{
closed = 1;
nodes = (
"134 517 OFFCURVE",
"226 655 OFFCURVE",
"388 655 CURVE SMOOTH",
"555 655 OFFCURVE",
"644 517 OFFCURVE",
"644 356 CURVE SMOOTH",
"644 198 OFFCURVE",
"551 60 OFFCURVE",
"388 60 CURVE SMOOTH",
"227 60 OFFCURVE",
"134 198 OFFCURVE",
"134 356 CURVE SMOOTH"
);
}
);
width = 777;
}
);
leftKerningGroup = O;
leftMetricsKey = O;
note = Ograve;
rightKerningGroup = O;
rightMetricsKey = O;
unicode = 00D2;
},
{
glyphname = Oslash;
lastChange = "2024-06-23 12:37:21 +0000";
layers = (
{
hints = (
{
horizontal = 1;
place = "{-11, 79}";
type = Stem;
},
{
horizontal = 1;
place = "{659, 79}";
type = Stem;
},
{
place = "{46, 92}";
type = Stem;
},
{
place = "{644, 91}";
type = Stem;
}
);
layerId = "9382C8E1-E850-40EA-B00A-FA5C7367EA84";
paths = (
{
closed = 1;
nodes = (
"641 731 LINE",
"554 731 LINE",
"536 700 LINE",
"493 719 OFFCURVE",
"444 730 OFFCURVE",
"389 730 CURVE SMOOTH",
"178 730 OFFCURVE",
"46 563 OFFCURVE",
"46 357 CURVE SMOOTH",
"46 239 OFFCURVE",
"90 133 OFFCURVE",
"167 65 CURVE",
"121 -15 LINE",
"208 -15 LINE",
"230 22 LINE",
"276 -2 OFFCURVE",
"329 -15 OFFCURVE",
"389 -15 CURVE SMOOTH",
"601 -15 OFFCURVE",
"731 152 OFFCURVE",
"731 357 CURVE SMOOTH",
"731 482 OFFCURVE",
"684 592 OFFCURVE",
"600 660 CURVE"
);
},
{
closed = 1;
nodes = (
"134 517 OFFCURVE",
"226 655 OFFCURVE",
"388 655 CURVE SMOOTH",
"429 655 OFFCURVE",
"465 647 OFFCURVE",
"496 632 CURVE",
"210 138 LINE",
"161 193 OFFCURVE",
"134 272 OFFCURVE",
"134 356 CURVE SMOOTH"
);
},
{
closed = 1;
nodes = (
"343 60 OFFCURVE",
"303 71 OFFCURVE",
"269 90 CURVE",
"558 589 LINE",
"615 533 OFFCURVE",
"644 448 OFFCURVE",
"644 356 CURVE SMOOTH",
"644 198 OFFCURVE",
"551 60 OFFCURVE",
"388 60 CURVE SMOOTH"
);
}
);
width = 777;
}
);
leftKerningGroup = O;
leftMetricsKey = O;
note = Oslash;
rightKerningGroup = O;
rightMetricsKey = O;
unicode = 00D8;
},
{
glyphname = Otilde;
lastChange = "2024-06-23 12:37:21 +0000";
layers = (
{
hints = (
{
horizontal = 1;
place = "{-11, 79}";
type = Stem;
},
{
horizontal = 1;
place = "{659, 79}";
type = Stem;
},
{
place = "{46, 92}";
type = Stem;
},
{
place = "{644, 91}";
type = Stem;
}
);
layerId = "9382C8E1-E850-40EA-B00A-FA5C7367EA84";
paths = (
{
closed = 1;
nodes = (
"601 -15 OFFCURVE",
"731 152 OFFCURVE",
"731 357 CURVE SMOOTH",
"731 563 OFFCURVE",
"604 730 OFFCURVE",
"389 730 CURVE SMOOTH",
"178 730 OFFCURVE",
"46 563 OFFCURVE",
"46 357 CURVE SMOOTH",
"46 152 OFFCURVE",
"178 -15 OFFCURVE",
"389 -15 CURVE SMOOTH"
);
},
{
closed = 1;
nodes = (
"134 517 OFFCURVE",
"226 655 OFFCURVE",
"388 655 CURVE SMOOTH",
"555 655 OFFCURVE",
"644 517 OFFCURVE",
"644 356 CURVE SMOOTH",
"644 198 OFFCURVE",
"551 60 OFFCURVE",
"388 60 CURVE SMOOTH",
"227 60 OFFCURVE",
"134 198 OFFCURVE",
"134 356 CURVE SMOOTH"
);
}
);
width = 777;
}
);
leftKerningGroup = O;
leftMetricsKey = O;
note = Otilde;
rightKerningGroup = O;
rightMetricsKey = O;
unicode = 00D5;
},
{
glyphname = OE;
lastChange = "2024-06-23 12:37:27 +0000";
layers = (
{
hints = (
{
horizontal = 1;
place = "{5, 75}";
type = Stem;
},
{
horizontal = 1;
place = "{329, 75}";
type = Stem;
},
{
horizontal = 1;
place = "{648, 75}";
type = Stem;
},
{
place = "{46, 92}";
type = Stem;
},
{
place = "{638, 89}";
type = Stem;
}
);
layerId = "9382C8E1-E850-40EA-B00A-FA5C7367EA84";
paths = (
{
closed = 1;
nodes = (
"823 72 LINE SMOOTH",
"790 72 OFFCURVE",
"723 70 OFFCURVE",
"723 70 CURVE",
"723 271 LINE",
"726 289 OFFCURVE",
"729 307 OFFCURVE",
"730 326 CURVE",
"823 325 LINE",
"1079 325 LINE",
"1079 396 LINE",
"823 396 LINE",
"730 395 LINE",
"728 412 OFFCURVE",
"726 428 OFFCURVE",
"723 444 CURVE",
"723 645 LINE",
"723 645 OFFCURVE",
"790 644 OFFCURVE",
"823 644 CURVE SMOOTH",
"1089 644 LINE",
"1089 715 LINE",
"638 715 LINE",
"638 624 LINE",
"579 689 OFFCURVE",
"495 730 OFFCURVE",
"389 730 CURVE SMOOTH",
"178 730 OFFCURVE",
"46 563 OFFCURVE",
"46 357 CURVE SMOOTH",
"46 152 OFFCURVE",
"178 -15 OFFCURVE",
"389 -15 CURVE SMOOTH",
"494 -15 OFFCURVE",
"579 26 OFFCURVE",
"638 92 CURVE",
"638 1 LINE",
"1099 1 LINE",
"1099 72 LINE"
);
},
{
closed = 1;
nodes = (
"227 60 OFFCURVE",
"134 198 OFFCURVE",
"134 356 CURVE SMOOTH",
"134 517 OFFCURVE",
"226 655 OFFCURVE",
"388 655 CURVE SMOOTH",
"530 655 OFFCURVE",
"615 555 OFFCURVE",
"638 427 CURVE",
"638 288 LINE",
"615 160 OFFCURVE",
"527 60 OFFCURVE",
"388 60 CURVE SMOOTH"
);
}
);
width = 1178;
}
);
leftKerningGroup = O;
leftMetricsKey = O;
note = OE;
rightKerningGroup = E;
rightMetricsKey = E;
unicode = 0152;
},
{
glyphname = P;
lastChange = "2024-06-23 10:44:54 +0000";
layers = (
{
hints = (
{
horizontal = 1;
place = "{4, 21}";
target = up;
type = BottomGhost;
},
{
horizontal = 1;
place = "{283, 74}";
type = Stem;
},
{
horizontal = 1;
place = "{648, 75}";
type = Stem;
},
{
place = "{79, 89}";
type = Stem;
},
{
place = "{521, 90}";
type = Stem;
}
);
layerId = "9382C8E1-E850-40EA-B00A-FA5C7367EA84";
paths = (
{
closed = 1;
nodes = (
"406 279 LINE SMOOTH",
"531 279 OFFCURVE",
"607 376 OFFCURVE",
"607 497 CURVE SMOOTH",
"607 618 OFFCURVE",
"533 715 OFFCURVE",
"406 715 CURVE SMOOTH",
"79 715 LINE",
"79 0 LINE",
"164 0 LINE",
"164 279 LINE"
);
},
{
closed = 1;
nodes = (
"164 644 LINE",
"396 644 LINE SMOOTH",
"479 644 OFFCURVE",
"521 577 OFFCURVE",
"521 496 CURVE SMOOTH",
"521 416 OFFCURVE",
"476 349 OFFCURVE",
"396 349 CURVE SMOOTH",
"164 350 LINE"
);
}
);
width = 637;
}
);
leftKerningGroup = N;
leftMetricsKey = N;
note = P;
rightKerningGroup = B;
rightMetricsKey = "=B-10";
unicode = 0050;
},
{
glyphname = Thorn;
lastChange = "2024-06-23 12:37:35 +0000";
layers = (
{
hints = (
{
horizontal = 1;
place = "{4, 21}";
target = up;
type = BottomGhost;
},
{
horizontal = 1;
place = "{169, 74}";
type = Stem;
},
{
horizontal = 1;
place = "{534, 75}";
type = Stem;
},
{
place = "{79, 89}";
type = Stem;
},
{
place = "{521, 90}";
type = Stem;
}
);
layerId = "9382C8E1-E850-40EA-B00A-FA5C7367EA84";
paths = (
{
closed = 1;
nodes = (
"164 0 LINE",
"164 165 LINE",
"406 165 LINE SMOOTH",
"531 165 OFFCURVE",
"607 262 OFFCURVE",
"607 383 CURVE SMOOTH",
"607 504 OFFCURVE",
"533 601 OFFCURVE",
"406 601 CURVE SMOOTH",
"164 601 LINE",
"164 715 LINE",
"79 715 LINE",
"79 0 LINE"
);
},
{
closed = 1;
nodes = (
"164 530 LINE",
"396 530 LINE SMOOTH",
"479 530 OFFCURVE",
"521 463 OFFCURVE",
"521 382 CURVE SMOOTH",
"521 302 OFFCURVE",
"476 235 OFFCURVE",
"396 235 CURVE SMOOTH",
"164 236 LINE"
);
}
);
width = 637;
}
);
leftKerningGroup = P;
leftMetricsKey = P;
note = Thorn;
rightKerningGroup = P;
rightMetricsKey = P;
unicode = 00DE;
},
{
glyphname = Q;
lastChange = "2024-06-23 10:44:54 +0000";
layers = (
{
hints = (
{
horizontal = 1;
place = "{-11, 79}";
type = Stem;
},
{
horizontal = 1;
place = "{659, 79}";
type = Stem;
},
{
place = "{46, 92}";
type = Stem;
},
{
place = "{644, 91}";
type = Stem;
}
);
layerId = "9382C8E1-E850-40EA-B00A-FA5C7367EA84";
paths = (
{
closed = 1;
nodes = (
"731 563 OFFCURVE",
"604 730 OFFCURVE",
"389 730 CURVE SMOOTH",
"178 730 OFFCURVE",
"46 563 OFFCURVE",
"46 357 CURVE SMOOTH",
"46 152 OFFCURVE",
"178 -15 OFFCURVE",
"389 -15 CURVE SMOOTH",
"435 -15 OFFCURVE",
"477 -7 OFFCURVE",
"515 7 CURVE",
"565 -57 LINE",
"660 -57 LINE",
"582 42 LINE",
"677 109 OFFCURVE",
"731 225 OFFCURVE",
"731 357 CURVE SMOOTH"
);
},
{
closed = 1;
nodes = (
"227 60 OFFCURVE",
"134 198 OFFCURVE",
"134 356 CURVE SMOOTH",
"134 517 OFFCURVE",
"226 655 OFFCURVE",
"388 655 CURVE SMOOTH",
"555 655 OFFCURVE",
"644 517 OFFCURVE",
"644 356 CURVE SMOOTH",
"644 253 OFFCURVE",
"605 159 OFFCURVE",
"532 106 CURVE",
"484 167 LINE",
"389 167 LINE",
"464 71 LINE",
"441 64 OFFCURVE",
"415 60 OFFCURVE",
"388 60 CURVE SMOOTH"
);
}
);
width = 777;
}
);
leftKerningGroup = O;
leftMetricsKey = O;
note = Q;
rightKerningGroup = O;
rightMetricsKey = O;
unicode = 0051;
},
{
glyphname = R;
lastChange = "2024-06-23 12:44:50 +0000";
layers = (
{
hints = (
{
horizontal = 1;
place = "{4, 21}";
target = up;
type = BottomGhost;
},
{
horizontal = 1;
place = "{279, 74}";
type = Stem;
},
{
horizontal = 1;
place = "{648, 75}";
type = Stem;
},
{
place = "{79, 89}";
type = Stem;
},
{
place = "{521, 90}";
type = Stem;
}
);
layerId = "9382C8E1-E850-40EA-B00A-FA5C7367EA84";
paths = (
{
closed = 1;
nodes = (
"362 275 LINE",
"554 0 LINE",
"647 0 LINE",
"451 280 LINE",
"549 300 OFFCURVE",
"607 389 OFFCURVE",
"607 495 CURVE SMOOTH",
"607 616 OFFCURVE",
"533 715 OFFCURVE",
"406 715 CURVE SMOOTH",
"79 715 LINE",
"79 0 LINE",
"164 0 LINE",
"164 275 LINE"
);
},
{
closed = 1;
nodes = (
"164 644 LINE",
"396 644 LINE SMOOTH",
"479 644 OFFCURVE",
"521 571 OFFCURVE",
"521 494 CURVE SMOOTH",
"521 418 OFFCURVE",
"476 345 OFFCURVE",
"396 345 CURVE SMOOTH",
"164 346 LINE"
);
}
);
width = 687;
}
);
leftKerningGroup = N;
leftMetricsKey = N;
note = R;
rightKerningGroup = B;
rightMetricsKey = B;
unicode = 0052;
},
{
glyphname = S;
lastChange = "2024-06-23 10:44:54 +0000";
layers = (
{
hints = (
{
horizontal = 1;
place = "{-12, 79}";
type = Stem;
},
{
horizontal = 1;
place = "{660, 79}";
type = Stem;
},
{
place = "{70, 92}";
type = Stem;
},
{
place = "{550, 92}";
type = Stem;
}
);
layerId = "9382C8E1-E850-40EA-B00A-FA5C7367EA84";
paths = (
{
closed = 1;
nodes = (
"521 -21 OFFCURVE",
"638 61 OFFCURVE",
"638 195 CURVE SMOOTH",
"638 348 OFFCURVE",
"494 381 OFFCURVE",
"376 410 CURVE SMOOTH",
"250 441 OFFCURVE",
"158 470 OFFCURVE",
"158 547 CURVE SMOOTH",
"158 609 OFFCURVE",
"226 656 OFFCURVE",
"328 656 CURVE SMOOTH",
"436 656 OFFCURVE",
"517 617 OFFCURVE",
"531 509 CURVE",
"616 508 LINE",
"599 651 OFFCURVE",
"495 731 OFFCURVE",
"345 731 CURVE SMOOTH",
"167 731 OFFCURVE",
"70 652 OFFCURVE",
"70 535 CURVE SMOOTH",
"70 400 OFFCURVE",
"217 365 OFFCURVE",
"339 338 CURVE SMOOTH",
"488 305 OFFCURVE",
"551 266 OFFCURVE",
"550 190 CURVE SMOOTH",
"549 112 OFFCURVE",
"469 56 OFFCURVE",
"365 59 CURVE SMOOTH",
"262 62 OFFCURVE",
"150 91 OFFCURVE",
"131 235 CURVE",
"46 236 LINE",
"59 77 OFFCURVE",
"176 -11 OFFCURVE",
"345 -16 CURVE SMOOTH"
);
}
);
width = 684;
}
);
note = S;
unicode = 0053;
},
{
glyphname = T;
lastChange = "2024-06-23 13:48:53 +0000";
layers = (
{
hints = (
{
horizontal = 1;
place = "{4, 21}";
target = up;
type = BottomGhost;
},
{
horizontal = 1;
place = "{648, 75}";
type = Stem;
},
{
place = "{238, 89}";
type = Stem;
}
);
layerId = "9382C8E1-E850-40EA-B00A-FA5C7367EA84";
paths = (
{
closed = 1;
nodes = (
"339 0 LINE",
"339 544 LINE SMOOTH",
"339 579 OFFCURVE",
"336 644 OFFCURVE",
"336 644 CURVE",
"566 644 LINE",
"566 715 LINE",
"25 715 LINE",
"25 644 LINE",
"255 644 LINE",
"255 644 OFFCURVE",
"254 579 OFFCURVE",
"254 544 CURVE SMOOTH",
"254 0 LINE"
);
}
);
width = 591;
}
);
leftKerningGroup = V;
leftMetricsKey = V;
note = T;
rightKerningGroup = T;
rightMetricsKey = V;
unicode = 0054;
},
{
glyphname = U;
lastChange = "2024-06-23 10:44:54 +0000";
layers = (
{
hints = (
{
horizontal = 1;
place = "{-11, 79}";
type = Stem;
},
{
horizontal = 1;
place = "{719, -20}";
target = down;
type = TopGhost;
},
{
place = "{79, 89}";
type = Stem;
},
{
place = "{534, 89}";
type = Stem;
}
);
layerId = "9382C8E1-E850-40EA-B00A-FA5C7367EA84";
paths = (
{
closed = 1;
nodes = (
"517 -15 OFFCURVE",
"619 92 OFFCURVE",
"619 297 CURVE SMOOTH",
"619 715 LINE",
"534 715 LINE",
"534 276 LINE SMOOTH",
"534 138 OFFCURVE",
"466 60 OFFCURVE",
"348 60 CURVE SMOOTH",
"232 60 OFFCURVE",
"164 138 OFFCURVE",
"164 276 CURVE SMOOTH",
"164 715 LINE",
"79 715 LINE",
"79 297 LINE SMOOTH",
"79 92 OFFCURVE",
"183 -15 OFFCURVE",
"349 -15 CURVE SMOOTH"
);
}
);
width = 698;
}
);
leftKerningGroup = N;
leftMetricsKey = N;
note = U;
rightKerningGroup = N;
rightMetricsKey = N;
unicode = 0055;
},
{
glyphname = Uacute;
lastChange = "2024-06-23 12:37:44 +0000";
layers = (
{
hints = (
{
horizontal = 1;
place = "{-11, 79}";
type = Stem;
},
{
horizontal = 1;
place = "{719, -20}";
target = down;
type = TopGhost;
},
{
horizontal = 1;
place = "{799, 103}";
type = Stem;
},
{
place = "{79, 89}";
type = Stem;
},
{
place = "{534, 89}";
type = Stem;
}
);
layerId = "9382C8E1-E850-40EA-B00A-FA5C7367EA84";
paths = (
{
closed = 1;
nodes = (
"394 828 LINE SMOOTH",
"429 861 OFFCURVE",
"458 894 OFFCURVE",
"458 894 CURVE SMOOTH",
"378 894 LINE SMOOTH",
"378 894 OFFCURVE",
"338 861 OFFCURVE",
"304 828 CURVE SMOOTH",
"270 795 LINE",
"361 795 LINE"
);
},
{
closed = 1;
nodes = (
"517 -15 OFFCURVE",
"619 92 OFFCURVE",
"619 297 CURVE SMOOTH",
"619 715 LINE",
"534 715 LINE",
"534 276 LINE SMOOTH",
"534 138 OFFCURVE",
"466 60 OFFCURVE",
"348 60 CURVE SMOOTH",
"232 60 OFFCURVE",
"164 138 OFFCURVE",
"164 276 CURVE SMOOTH",
"164 715 LINE",
"79 715 LINE",
"79 297 LINE SMOOTH",
"79 92 OFFCURVE",
"183 -15 OFFCURVE",
"349 -15 CURVE SMOOTH"
);
}
);
width = 698;
}
);
leftKerningGroup = U;
leftMetricsKey = U;
note = Uacute;
rightKerningGroup = U;
rightMetricsKey = U;
unicode = 00DA;
},
{
glyphname = Ucircumflex;
lastChange = "2024-06-23 12:37:44 +0000";
layers = (
{
hints = (
{
horizontal = 1;
place = "{-11, 79}";
type = Stem;
},
{
horizontal = 1;
place = "{719, -20}";
target = down;
type = TopGhost;
},
{
horizontal = 1;
place = "{799, 103}";
type = Stem;
},
{
place = "{79, 89}";
type = Stem;
},
{
place = "{534, 89}";
type = Stem;
}
);
layerId = "9382C8E1-E850-40EA-B00A-FA5C7367EA84";
paths = (
{
closed = 1;
nodes = (
"390 795 LINE",
"453 795 LINE",
"390 894 LINE",
"307 894 LINE",
"245 795 LINE",
"307 795 LINE",
"349 860 LINE"
);
},
{
closed = 1;
nodes = (
"534 276 LINE SMOOTH",
"534 138 OFFCURVE",
"466 60 OFFCURVE",
"348 60 CURVE SMOOTH",
"232 60 OFFCURVE",
"164 138 OFFCURVE",
"164 276 CURVE SMOOTH",
"164 715 LINE",
"79 715 LINE",
"79 297 LINE SMOOTH",
"79 92 OFFCURVE",
"183 -15 OFFCURVE",
"349 -15 CURVE SMOOTH",
"517 -15 OFFCURVE",
"619 92 OFFCURVE",
"619 297 CURVE SMOOTH",
"619 715 LINE",
"534 715 LINE"
);
}
);
width = 698;
}
);
leftKerningGroup = U;
leftMetricsKey = U;
note = Ucircumflex;
rightKerningGroup = U;
rightMetricsKey = U;
unicode = 00DB;
},
{
glyphname = Udieresis;
lastChange = "2024-06-23 12:37:44 +0000";
layers = (
{
hints = (
{
horizontal = 1;
place = "{-11, 79}";
type = Stem;
},
{
horizontal = 1;
place = "{719, -20}";
target = down;
type = TopGhost;
},
{
horizontal = 1;
place = "{795, 106}";
type = Stem;
},
{
place = "{79, 89}";
type = Stem;
},
{
place = "{201, 108}";
type = Stem;
},
{
place = "{395, 108}";
type = Stem;
},
{
place = "{534, 89}";
type = Stem;
}
);
layerId = "9382C8E1-E850-40EA-B00A-FA5C7367EA84";
paths = (
{
closed = 1;
nodes = (
"201 813 OFFCURVE",
"223 791 OFFCURVE",
"253 791 CURVE SMOOTH",
"283 791 OFFCURVE",
"305 813 OFFCURVE",
"305 842 CURVE SMOOTH",
"305 871 OFFCURVE",
"283 893 OFFCURVE",
"253 893 CURVE SMOOTH",
"223 893 OFFCURVE",
"201 871 OFFCURVE",
"201 842 CURVE SMOOTH"
);
},
{
closed = 1;
nodes = (
"395 813 OFFCURVE",
"417 791 OFFCURVE",
"447 791 CURVE SMOOTH",
"477 791 OFFCURVE",
"499 813 OFFCURVE",
"499 842 CURVE SMOOTH",
"499 871 OFFCURVE",
"477 893 OFFCURVE",
"447 893 CURVE SMOOTH",
"417 893 OFFCURVE",
"395 871 OFFCURVE",
"395 842 CURVE SMOOTH"
);
},
{
closed = 1;
nodes = (
"517 -15 OFFCURVE",
"619 92 OFFCURVE",
"619 297 CURVE SMOOTH",
"619 715 LINE",
"534 715 LINE",
"534 276 LINE SMOOTH",
"534 138 OFFCURVE",
"466 60 OFFCURVE",
"348 60 CURVE SMOOTH",
"232 60 OFFCURVE",
"164 138 OFFCURVE",
"164 276 CURVE SMOOTH",
"164 715 LINE",
"79 715 LINE",
"79 297 LINE SMOOTH",
"79 92 OFFCURVE",
"183 -15 OFFCURVE",
"349 -15 CURVE SMOOTH"
);
}
);
width = 698;
}
);
leftKerningGroup = U;
leftMetricsKey = U;
note = Udieresis;
rightKerningGroup = U;
rightMetricsKey = U;
unicode = 00DC;
},
{
glyphname = Ugrave;
lastChange = "2024-06-23 12:37:44 +0000";
layers = (
{
hints = (
{
horizontal = 1;
place = "{-11, 79}";
type = Stem;
},
{
horizontal = 1;
place = "{719, -20}";
target = down;
type = TopGhost;
},
{
horizontal = 1;
place = "{799, 103}";
type = Stem;
},
{
place = "{79, 89}";
type = Stem;
},
{
place = "{534, 89}";
type = Stem;
}
);
layerId = "9382C8E1-E850-40EA-B00A-FA5C7367EA84";
paths = (
{
closed = 1;
nodes = (
"448 795 LINE",
"414 828 LINE SMOOTH",
"380 861 OFFCURVE",
"340 894 OFFCURVE",
"340 894 CURVE SMOOTH",
"260 894 LINE SMOOTH",
"260 894 OFFCURVE",
"289 861 OFFCURVE",
"324 828 CURVE SMOOTH",
"357 795 LINE"
);
},
{
closed = 1;
nodes = (
"517 -15 OFFCURVE",
"619 92 OFFCURVE",
"619 297 CURVE SMOOTH",
"619 715 LINE",
"534 715 LINE",
"534 276 LINE SMOOTH",
"534 138 OFFCURVE",
"466 60 OFFCURVE",
"348 60 CURVE SMOOTH",
"232 60 OFFCURVE",
"164 138 OFFCURVE",
"164 276 CURVE SMOOTH",
"164 715 LINE",
"79 715 LINE",
"79 297 LINE SMOOTH",
"79 92 OFFCURVE",
"183 -15 OFFCURVE",
"349 -15 CURVE SMOOTH"
);
}
);
width = 698;
}
);
leftKerningGroup = U;
leftMetricsKey = U;
note = Ugrave;
rightKerningGroup = U;
rightMetricsKey = U;
unicode = 00D9;
},
{
glyphname = V;
lastChange = "2024-06-23 16:03:41 +0000";
layers = (
{
hints = (
{
horizontal = 1;
place = "{4, 21}";
target = up;
type = BottomGhost;
},
{
horizontal = 1;
place = "{720, -20}";
target = down;
type = TopGhost;
},
{
place = "{9, 585}";
type = Stem;
}
);
layerId = "9382C8E1-E850-40EA-B00A-FA5C7367EA84";
paths = (
{
closed = 1;
nodes = (
"363 0 LINE",
"611 716 LINE",
"530 716 LINE",
"380 281 LINE SMOOTH",
"363 231 OFFCURVE",
"321 89 OFFCURVE",
"321 89 CURVE SMOOTH",
"321 89 OFFCURVE",
"278 231 OFFCURVE",
"261 281 CURVE SMOOTH",
"111 716 LINE",
"30 716 LINE",
"280 0 LINE"
);
}
);
width = 641;
}
);
note = V;
rightKerningGroup = V;
unicode = 0056;
},
{
glyphname = W;
lastChange = "2024-06-23 12:44:50 +0000";
layers = (
{
hints = (
{
horizontal = 1;
place = "{5, 21}";
target = up;
type = BottomGhost;
},
{
horizontal = 1;
place = "{720, -20}";
target = down;
type = TopGhost;
},
{
place = "{9, 936}";
type = Stem;
}
);
layerId = "9382C8E1-E850-40EA-B00A-FA5C7367EA84";
paths = (
{
closed = 1;
nodes = (
"743 1 LINE",
"957 716 LINE",
"876 716 LINE",
"747 277 LINE SMOOTH",
"734 232 OFFCURVE",
"705 110 OFFCURVE",
"705 110 CURVE SMOOTH",
"705 110 OFFCURVE",
"675 232 OFFCURVE",
"662 277 CURVE SMOOTH",
"531 716 LINE",
"451 716 LINE",
"320 275 LINE SMOOTH",
"307 231 OFFCURVE",
"278 110 OFFCURVE",
"278 110 CURVE SMOOTH",
"278 110 OFFCURVE",
"248 231 OFFCURVE",
"235 275 CURVE SMOOTH",
"106 716 LINE",
"25 716 LINE",
"239 1 LINE",
"316 1 LINE",
"491 586 LINE",
"666 1 LINE"
);
}
);
width = 982;
}
);
leftKerningGroup = V;
leftMetricsKey = V;
note = W;
rightKerningGroup = V;
rightMetricsKey = V;
unicode = 0057;
},
{
glyphname = Wacute;
lastChange = "2024-06-23 12:44:50 +0000";
layers = (
{
hints = (
{
horizontal = 1;
place = "{5, 21}";
target = up;
type = BottomGhost;
},
{
horizontal = 1;
place = "{720, -20}";
target = down;
type = TopGhost;
},
{
horizontal = 1;
place = "{799, 103}";
type = Stem;
},
{
place = "{9, 936}";
type = Stem;
}
);
layerId = "9382C8E1-E850-40EA-B00A-FA5C7367EA84";
paths = (
{
closed = 1;
nodes = (
"519 828 LINE SMOOTH",
"554 861 OFFCURVE",
"583 894 OFFCURVE",
"583 894 CURVE SMOOTH",
"503 894 LINE SMOOTH",
"503 894 OFFCURVE",
"463 861 OFFCURVE",
"429 828 CURVE SMOOTH",
"395 795 LINE",
"486 795 LINE"
);
},
{
closed = 1;
nodes = (
"743 1 LINE",
"957 716 LINE",
"876 716 LINE",
"747 277 LINE SMOOTH",
"734 232 OFFCURVE",
"705 110 OFFCURVE",
"705 110 CURVE SMOOTH",
"705 110 OFFCURVE",
"675 232 OFFCURVE",
"662 277 CURVE SMOOTH",
"531 716 LINE",
"451 716 LINE",
"320 275 LINE SMOOTH",
"307 231 OFFCURVE",
"278 110 OFFCURVE",
"278 110 CURVE SMOOTH",
"278 110 OFFCURVE",
"248 231 OFFCURVE",
"235 275 CURVE SMOOTH",
"106 716 LINE",
"25 716 LINE",
"239 1 LINE",
"316 1 LINE",
"491 586 LINE",
"666 1 LINE"
);
}
);
width = 982;
}
);
leftKerningGroup = W;
leftMetricsKey = W;
note = Wacute;
rightKerningGroup = W;
rightMetricsKey = W;
unicode = 1E82;
},
{
glyphname = Wcircumflex;
lastChange = "2024-06-23 12:44:50 +0000";
layers = (
{
hints = (
{
horizontal = 1;
place = "{5, 21}";
target = up;
type = BottomGhost;
},
{
horizontal = 1;
place = "{720, -20}";
target = down;
type = TopGhost;
},
{
horizontal = 1;
place = "{799, 103}";
type = Stem;
},
{
place = "{9, 936}";
type = Stem;
}
);
layerId = "9382C8E1-E850-40EA-B00A-FA5C7367EA84";
paths = (
{
closed = 1;
nodes = (
"535 795 LINE",
"598 795 LINE",
"535 894 LINE",
"452 894 LINE",
"390 795 LINE",
"452 795 LINE",
"494 860 LINE"
);
},
{
closed = 1;
nodes = (
"747 277 LINE SMOOTH",
"734 232 OFFCURVE",
"705 110 OFFCURVE",
"705 110 CURVE SMOOTH",
"705 110 OFFCURVE",
"675 232 OFFCURVE",
"662 277 CURVE SMOOTH",
"531 716 LINE",
"451 716 LINE",
"320 275 LINE SMOOTH",
"307 231 OFFCURVE",
"278 110 OFFCURVE",
"278 110 CURVE SMOOTH",
"278 110 OFFCURVE",
"248 231 OFFCURVE",
"235 275 CURVE SMOOTH",
"106 716 LINE",
"25 716 LINE",
"239 1 LINE",
"316 1 LINE",
"491 586 LINE",
"666 1 LINE",
"743 1 LINE",
"957 716 LINE",
"876 716 LINE"
);
}
);
width = 982;
}
);
leftKerningGroup = W;
leftMetricsKey = W;
note = Wcircumflex;
rightKerningGroup = W;
rightMetricsKey = W;
unicode = 0174;
},
{
glyphname = Wdieresis;
lastChange = "2024-06-23 12:44:50 +0000";
layers = (
{
hints = (
{
horizontal = 1;
place = "{5, 21}";
target = up;
type = BottomGhost;
},
{
horizontal = 1;
place = "{720, -20}";
target = down;
type = TopGhost;
},
{
horizontal = 1;
place = "{795, 106}";
type = Stem;
},
{
place = "{329, 108}";
type = Stem;
},
{
place = "{523, 108}";
type = Stem;
}
);
layerId = "9382C8E1-E850-40EA-B00A-FA5C7367EA84";
paths = (
{
closed = 1;
nodes = (
"345 813 OFFCURVE",
"367 791 OFFCURVE",
"397 791 CURVE SMOOTH",
"427 791 OFFCURVE",
"449 813 OFFCURVE",
"449 842 CURVE SMOOTH",
"449 871 OFFCURVE",
"427 893 OFFCURVE",
"397 893 CURVE SMOOTH",
"367 893 OFFCURVE",
"345 871 OFFCURVE",
"345 842 CURVE SMOOTH"
);
},
{
closed = 1;
nodes = (
"539 813 OFFCURVE",
"561 791 OFFCURVE",
"591 791 CURVE SMOOTH",
"621 791 OFFCURVE",
"643 813 OFFCURVE",
"643 842 CURVE SMOOTH",
"643 871 OFFCURVE",
"621 893 OFFCURVE",
"591 893 CURVE SMOOTH",
"561 893 OFFCURVE",
"539 871 OFFCURVE",
"539 842 CURVE SMOOTH"
);
},
{
closed = 1;
nodes = (
"743 1 LINE",
"957 716 LINE",
"876 716 LINE",
"747 277 LINE SMOOTH",
"734 232 OFFCURVE",
"705 110 OFFCURVE",
"705 110 CURVE SMOOTH",
"705 110 OFFCURVE",
"675 232 OFFCURVE",
"662 277 CURVE SMOOTH",
"531 716 LINE",
"451 716 LINE",
"320 275 LINE SMOOTH",
"307 231 OFFCURVE",
"278 110 OFFCURVE",
"278 110 CURVE SMOOTH",
"278 110 OFFCURVE",
"248 231 OFFCURVE",
"235 275 CURVE SMOOTH",
"106 716 LINE",
"25 716 LINE",
"239 1 LINE",
"316 1 LINE",
"491 586 LINE",
"666 1 LINE"
);
}
);
width = 982;
}
);
leftKerningGroup = W;
leftMetricsKey = W;
note = Wdieresis;
rightKerningGroup = W;
rightMetricsKey = W;
unicode = 1E84;
},
{
glyphname = Wgrave;
lastChange = "2024-06-23 12:44:50 +0000";
layers = (
{
hints = (
{
horizontal = 1;
place = "{5, 21}";
target = up;
type = BottomGhost;
},
{
horizontal = 1;
place = "{720, -20}";
target = down;
type = TopGhost;
},
{
horizontal = 1;
place = "{799, 103}";
type = Stem;
},
{
place = "{9, 936}";
type = Stem;
}
);
layerId = "9382C8E1-E850-40EA-B00A-FA5C7367EA84";
paths = (
{
closed = 1;
nodes = (
"593 795 LINE",
"559 828 LINE SMOOTH",
"525 861 OFFCURVE",
"485 894 OFFCURVE",
"485 894 CURVE SMOOTH",
"405 894 LINE SMOOTH",
"405 894 OFFCURVE",
"434 861 OFFCURVE",
"469 828 CURVE SMOOTH",
"502 795 LINE"
);
},
{
closed = 1;
nodes = (
"743 1 LINE",
"957 716 LINE",
"876 716 LINE",
"747 277 LINE SMOOTH",
"734 232 OFFCURVE",
"705 110 OFFCURVE",
"705 110 CURVE SMOOTH",
"705 110 OFFCURVE",
"675 232 OFFCURVE",
"662 277 CURVE SMOOTH",
"531 716 LINE",
"451 716 LINE",
"320 275 LINE SMOOTH",
"307 231 OFFCURVE",
"278 110 OFFCURVE",
"278 110 CURVE SMOOTH",
"278 110 OFFCURVE",
"248 231 OFFCURVE",
"235 275 CURVE SMOOTH",
"106 716 LINE",
"25 716 LINE",
"239 1 LINE",
"316 1 LINE",
"491 586 LINE",
"666 1 LINE"
);
}
);
width = 982;
}
);
leftKerningGroup = W;
leftMetricsKey = W;
note = Wgrave;
rightKerningGroup = W;
rightMetricsKey = W;
unicode = 1E80;
},
{
glyphname = X;
lastChange = "2024-06-23 12:44:50 +0000";
layers = (
{
hints = (
{
horizontal = 1;
place = "{4, 21}";
target = up;
type = BottomGhost;
},
{
horizontal = 1;
place = "{719, -20}";
target = down;
type = TopGhost;
},
{
place = "{46, 541}";
type = Stem;
}
);
layerId = "9382C8E1-E850-40EA-B00A-FA5C7367EA84";
paths = (
{
closed = 1;
nodes = (
"184 462 LINE SMOOTH",
"203 431 OFFCURVE",
"243 369 OFFCURVE",
"243 369 CURVE SMOOTH",
"243 369 OFFCURVE",
"204 308 OFFCURVE",
"185 277 CURVE SMOOTH",
"25 22 LINE",
"113 22 LINE",
"210 177 LINE",
"286 299 LINE",
"362 177 LINE",
"473 0 LINE",
"562 0 LINE",
"404 252 LINE SMOOTH",
"380 291 OFFCURVE",
"330 369 OFFCURVE",
"330 369 CURVE SMOOTH",
"330 369 OFFCURVE",
"381 448 OFFCURVE",
"406 488 CURVE SMOOTH",
"562 737 LINE",
"473 737 LINE",
"346 535 LINE",
"286 438 LINE",
"113 715 LINE",
"25 715 LINE"
);
}
);
width = 587;
}
);
leftKerningGroup = V;
leftMetricsKey = V;
note = X;
rightKerningGroup = V;
rightMetricsKey = V;
unicode = 0058;
},
{
glyphname = Y;
lastChange = "2024-06-23 12:44:50 +0000";
layers = (
{
hints = (
{
horizontal = 1;
place = "{4, 21}";
target = up;
type = BottomGhost;
},
{
horizontal = 1;
place = "{720, -20}";
target = down;
type = TopGhost;
},
{
place = "{257, 89}";
type = Stem;
},
{
place = "{299, 47}";
type = Stem;
}
);
layerId = "9382C8E1-E850-40EA-B00A-FA5C7367EA84";
paths = (
{
closed = 1;
nodes = (
"358 0 LINE",
"358 322 LINE",
"605 716 LINE",
"516 716 LINE",
"352 455 LINE SMOOTH",
"337 432 OFFCURVE",
"315 393 OFFCURVE",
"315 393 CURVE SMOOTH",
"315 393 OFFCURVE",
"294 431 OFFCURVE",
"279 454 CURVE SMOOTH",
"114 716 LINE",
"25 716 LINE",
"273 322 LINE",
"273 0 LINE"
);
}
);
width = 630;
}
);
leftKerningGroup = V;
leftMetricsKey = V;
note = Y;
rightKerningGroup = V;
rightMetricsKey = V;
unicode = 0059;
},
{
glyphname = Yacute;
lastChange = "2024-06-23 12:44:50 +0000";
layers = (
{
hints = (
{
horizontal = 1;
place = "{4, 21}";
target = up;
type = BottomGhost;
},
{
horizontal = 1;
place = "{720, -20}";
target = down;
type = TopGhost;
},
{
horizontal = 1;
place = "{799, 103}";
type = Stem;
},
{
place = "{257, 89}";
type = Stem;
}
);
layerId = "9382C8E1-E850-40EA-B00A-FA5C7367EA84";
paths = (
{
closed = 1;
nodes = (
"343 828 LINE SMOOTH",
"378 861 OFFCURVE",
"407 894 OFFCURVE",
"407 894 CURVE SMOOTH",
"327 894 LINE SMOOTH",
"327 894 OFFCURVE",
"287 861 OFFCURVE",
"253 828 CURVE SMOOTH",
"219 795 LINE",
"310 795 LINE"
);
},
{
closed = 1;
nodes = (
"358 0 LINE",
"358 322 LINE",
"605 716 LINE",
"516 716 LINE",
"352 455 LINE SMOOTH",
"337 432 OFFCURVE",
"315 393 OFFCURVE",
"315 393 CURVE SMOOTH",
"315 393 OFFCURVE",
"294 431 OFFCURVE",
"279 454 CURVE SMOOTH",
"114 716 LINE",
"25 716 LINE",
"273 322 LINE",
"273 0 LINE"
);
}
);
width = 630;
}
);
leftKerningGroup = Y;
leftMetricsKey = Y;
note = Yacute;
rightKerningGroup = Y;
rightMetricsKey = Y;
unicode = 00DD;
},
{
glyphname = Ycircumflex;
lastChange = "2024-06-23 12:44:50 +0000";
layers = (
{
hints = (
{
horizontal = 1;
place = "{4, 21}";
target = up;
type = BottomGhost;
},
{
horizontal = 1;
place = "{720, -20}";
target = down;
type = TopGhost;
},
{
horizontal = 1;
place = "{799, 103}";
type = Stem;
},
{
place = "{257, 89}";
type = Stem;
},
{
place = "{299, 47}";
type = Stem;
}
);
layerId = "9382C8E1-E850-40EA-B00A-FA5C7367EA84";
paths = (
{
closed = 1;
nodes = (
"359 795 LINE",
"422 795 LINE",
"359 894 LINE",
"276 894 LINE",
"214 795 LINE",
"276 795 LINE",
"318 860 LINE"
);
},
{
closed = 1;
nodes = (
"352 455 LINE SMOOTH",
"337 432 OFFCURVE",
"315 393 OFFCURVE",
"315 393 CURVE SMOOTH",
"315 393 OFFCURVE",
"294 431 OFFCURVE",
"279 454 CURVE SMOOTH",
"114 716 LINE",
"25 716 LINE",
"273 322 LINE",
"273 0 LINE",
"358 0 LINE",
"358 322 LINE",
"605 716 LINE",
"516 716 LINE"
);
}
);
width = 630;
}
);
leftKerningGroup = Y;
leftMetricsKey = Y;
note = Ycircumflex;
rightKerningGroup = Y;
rightMetricsKey = Y;
unicode = 0176;
},
{
glyphname = Ydieresis;
lastChange = "2024-06-23 12:44:50 +0000";
layers = (
{
hints = (
{
horizontal = 1;
place = "{4, 21}";
target = up;
type = BottomGhost;
},
{
horizontal = 1;
place = "{720, -20}";
target = down;
type = TopGhost;
},
{
horizontal = 1;
place = "{795, 106}";
type = Stem;
},
{
place = "{153, 108}";
type = Stem;
},
{
place = "{347, 108}";
type = Stem;
},
{
place = "{257, 89}";
type = Stem;
}
);
layerId = "9382C8E1-E850-40EA-B00A-FA5C7367EA84";
paths = (
{
closed = 1;
nodes = (
"169 813 OFFCURVE",
"191 791 OFFCURVE",
"221 791 CURVE SMOOTH",
"251 791 OFFCURVE",
"273 813 OFFCURVE",
"273 842 CURVE SMOOTH",
"273 871 OFFCURVE",
"251 893 OFFCURVE",
"221 893 CURVE SMOOTH",
"191 893 OFFCURVE",
"169 871 OFFCURVE",
"169 842 CURVE SMOOTH"
);
},
{
closed = 1;
nodes = (
"363 813 OFFCURVE",
"385 791 OFFCURVE",
"415 791 CURVE SMOOTH",
"445 791 OFFCURVE",
"467 813 OFFCURVE",
"467 842 CURVE SMOOTH",
"467 871 OFFCURVE",
"445 893 OFFCURVE",
"415 893 CURVE SMOOTH",
"385 893 OFFCURVE",
"363 871 OFFCURVE",
"363 842 CURVE SMOOTH"
);
},
{
closed = 1;
nodes = (
"358 0 LINE",
"358 322 LINE",
"605 716 LINE",
"516 716 LINE",
"352 455 LINE SMOOTH",
"337 432 OFFCURVE",
"315 393 OFFCURVE",
"315 393 CURVE SMOOTH",
"315 393 OFFCURVE",
"294 431 OFFCURVE",
"279 454 CURVE SMOOTH",
"114 716 LINE",
"25 716 LINE",
"273 322 LINE",
"273 0 LINE"
);
}
);
width = 630;
}
);
leftKerningGroup = Y;
leftMetricsKey = Y;
note = Ydieresis;
rightKerningGroup = Y;
rightMetricsKey = Y;
unicode = 0178;
},
{
glyphname = Ygrave;
lastChange = "2024-06-23 12:44:50 +0000";
layers = (
{
hints = (
{
horizontal = 1;
place = "{4, 21}";
target = up;
type = BottomGhost;
},
{
horizontal = 1;
place = "{720, -20}";
target = down;
type = TopGhost;
},
{
horizontal = 1;
place = "{799, 103}";
type = Stem;
},
{
place = "{257, 89}";
type = Stem;
}
);
layerId = "9382C8E1-E850-40EA-B00A-FA5C7367EA84";
paths = (
{
closed = 1;
nodes = (
"417 795 LINE",
"383 828 LINE SMOOTH",
"349 861 OFFCURVE",
"309 894 OFFCURVE",
"309 894 CURVE SMOOTH",
"229 894 LINE SMOOTH",
"229 894 OFFCURVE",
"258 861 OFFCURVE",
"293 828 CURVE SMOOTH",
"326 795 LINE"
);
},
{
closed = 1;
nodes = (
"358 0 LINE",
"358 322 LINE",
"605 716 LINE",
"516 716 LINE",
"352 455 LINE SMOOTH",
"337 432 OFFCURVE",
"315 393 OFFCURVE",
"315 393 CURVE SMOOTH",
"315 393 OFFCURVE",
"294 431 OFFCURVE",
"279 454 CURVE SMOOTH",
"114 716 LINE",
"25 716 LINE",
"273 322 LINE",
"273 0 LINE"
);
}
);
width = 630;
}
);
leftKerningGroup = Y;
leftMetricsKey = Y;
note = Ygrave;
rightKerningGroup = Y;
rightMetricsKey = Y;
unicode = 1EF2;
},
{
glyphname = Z;
lastChange = "2024-06-23 16:06:20 +0000";
layers = (
{
hints = (
{
horizontal = 1;
place = "{4, 75}";
type = Stem;
},
{
horizontal = 1;
place = "{648, 75}";
type = Stem;
},
{
place = "{46, 544}";
type = Stem;
}
);
layerId = "9382C8E1-E850-40EA-B00A-FA5C7367EA84";
paths = (
{
closed = 1;
nodes = (
"585 0 LINE",
"585 71 LINE",
"162 71 LINE",
"585 681 LINE",
"585 715 LINE",
"45 715 LINE",
"45 644 LINE",
"468 644 LINE",
"45 35 LINE",
"45 0 LINE"
);
}
);
width = 630;
}
);
leftKerningGroup = V;
note = Z;
rightKerningGroup = V;
unicode = 005A;
},
{
glyphname = a;
lastChange = "2024-06-23 16:15:59 +0000";
layers = (
{
hints = (
{
horizontal = 1;
place = "{4, 74}";
type = Stem;
},
{
horizontal = 1;
place = "{249, 64}";
type = Stem;
},
{
horizontal = 1;
place = "{464, 75}";
type = Stem;
},
{
place = "{47, 86}";
type = Stem;
},
{
place = "{386, 80}";
type = Stem;
}
);
layerId = "9382C8E1-E850-40EA-B00A-FA5C7367EA84";
paths = (
{
closed = 1;
nodes = (
"460 364 LINE SMOOTH",
"460 461 OFFCURVE",
"389 531 OFFCURVE",
"259 531 CURVE SMOOTH",
"149 531 OFFCURVE",
"71 457 OFFCURVE",
"61 368 CURVE",
"145 368 LINE",
"151 432 OFFCURVE",
"201 460 OFFCURVE",
"270 460 CURVE SMOOTH",
"336 460 OFFCURVE",
"384 429 OFFCURVE",
"384 338 CURVE SMOOTH",
"384 304 LINE",
"378 305 OFFCURVE",
"305 313 OFFCURVE",
"236 305 CURVE SMOOTH",
"169 297 OFFCURVE",
"45 269 OFFCURVE",
"45 142 CURVE SMOOTH",
"45 49 OFFCURVE",
"133 -13 OFFCURVE",
"210 -13 CURVE SMOOTH",
"336 -13 OFFCURVE",
"370 50 OFFCURVE",
"385 69 CURVE",
"391 23 OFFCURVE",
"417 0 OFFCURVE",
"476 0 CURVE SMOOTH",
"506 0 OFFCURVE",
"519 4 OFFCURVE",
"519 4 CURVE",
"519 71 LINE",
"478 61 OFFCURVE",
"460 77 OFFCURVE",
"460 121 CURVE SMOOTH"
);
},
{
closed = 1;
nodes = (
"184 55 OFFCURVE",
"127 83 OFFCURVE",
"127 137 CURVE SMOOTH",
"127 196 OFFCURVE",
"170 237 OFFCURVE",
"246 245 CURVE SMOOTH",
"321 253 OFFCURVE",
"366 251 OFFCURVE",
"384 250 CURVE",
"385 179 LINE",
"378 111 OFFCURVE",
"306 55 OFFCURVE",
"236 55 CURVE SMOOTH"
);
}
);
width = 564;
}
);
leftKerningGroup = a;
note = a;
rightKerningGroup = a;
unicode = 0061;
},
{
glyphname = aacute;
lastChange = "2024-06-23 12:38:14 +0000";
layers = (
{
hints = (
{
horizontal = 1;
place = "{-9, 72}";
type = Stem;
},
{
horizontal = 1;
place = "{249, 64}";
type = Stem;
},
{
horizontal = 1;
place = "{464, 75}";
type = Stem;
},
{
horizontal = 1;
place = "{621, 103}";
type = Stem;
},
{
place = "{47, 86}";
type = Stem;
},
{
place = "{386, 80}";
type = Stem;
}
);
layerId = "9382C8E1-E850-40EA-B00A-FA5C7367EA84";
paths = (
{
closed = 1;
nodes = (
"285 650 LINE SMOOTH",
"320 683 OFFCURVE",
"349 716 OFFCURVE",
"349 716 CURVE SMOOTH",
"269 716 LINE SMOOTH",
"269 716 OFFCURVE",
"229 683 OFFCURVE",
"195 650 CURVE SMOOTH",
"161 617 LINE",
"252 617 LINE"
);
},
{
closed = 1;
nodes = (
"462 364 LINE SMOOTH",
"462 461 OFFCURVE",
"391 531 OFFCURVE",
"261 531 CURVE SMOOTH",
"151 531 OFFCURVE",
"73 457 OFFCURVE",
"63 368 CURVE",
"147 368 LINE",
"153 432 OFFCURVE",
"203 460 OFFCURVE",
"272 460 CURVE SMOOTH",
"338 460 OFFCURVE",
"386 429 OFFCURVE",
"386 338 CURVE SMOOTH",
"386 304 LINE",
"380 305 OFFCURVE",
"307 313 OFFCURVE",
"238 305 CURVE SMOOTH",
"171 297 OFFCURVE",
"47 269 OFFCURVE",
"47 142 CURVE SMOOTH",
"47 49 OFFCURVE",
"135 -13 OFFCURVE",
"212 -13 CURVE SMOOTH",
"338 -13 OFFCURVE",
"372 50 OFFCURVE",
"387 69 CURVE",
"393 23 OFFCURVE",
"419 0 OFFCURVE",
"478 0 CURVE SMOOTH",
"508 0 OFFCURVE",
"521 6 OFFCURVE",
"521 6 CURVE",
"521 73 LINE",
"480 63 OFFCURVE",
"462 77 OFFCURVE",
"462 121 CURVE SMOOTH"
);
},
{
closed = 1;
nodes = (
"186 55 OFFCURVE",
"129 83 OFFCURVE",
"129 137 CURVE SMOOTH",
"129 196 OFFCURVE",
"172 237 OFFCURVE",
"248 245 CURVE SMOOTH",
"323 253 OFFCURVE",
"368 251 OFFCURVE",
"386 250 CURVE",
"387 179 LINE",
"380 111 OFFCURVE",
"308 55 OFFCURVE",
"238 55 CURVE SMOOTH"
);
}
);
width = 560;
}
);
leftKerningGroup = a;
leftMetricsKey = a;
note = aacute;
rightKerningGroup = a;
rightMetricsKey = a;
unicode = 00E1;
},
{
glyphname = acircumflex;
lastChange = "2024-06-23 12:38:14 +0000";
layers = (
{
hints = (
{
horizontal = 1;
place = "{-9, 72}";
type = Stem;
},
{
horizontal = 1;
place = "{249, 64}";
type = Stem;
},
{
horizontal = 1;
place = "{464, 75}";
type = Stem;
},
{
horizontal = 1;
place = "{621, 103}";
type = Stem;
},
{
place = "{47, 86}";
type = Stem;
},
{
place = "{386, 80}";
type = Stem;
}
);
layerId = "9382C8E1-E850-40EA-B00A-FA5C7367EA84";
paths = (
{
closed = 1;
nodes = (
"295 617 LINE",
"358 617 LINE",
"295 716 LINE",
"212 716 LINE",
"150 617 LINE",
"212 617 LINE",
"254 682 LINE"
);
},
{
closed = 1;
nodes = (
"462 364 LINE SMOOTH",
"462 461 OFFCURVE",
"391 531 OFFCURVE",
"261 531 CURVE SMOOTH",
"151 531 OFFCURVE",
"73 457 OFFCURVE",
"63 368 CURVE",
"147 368 LINE",
"153 432 OFFCURVE",
"203 460 OFFCURVE",
"272 460 CURVE SMOOTH",
"338 460 OFFCURVE",
"386 429 OFFCURVE",
"386 338 CURVE SMOOTH",
"386 304 LINE",
"380 305 OFFCURVE",
"307 313 OFFCURVE",
"238 305 CURVE SMOOTH",
"171 297 OFFCURVE",
"47 269 OFFCURVE",
"47 142 CURVE SMOOTH",
"47 49 OFFCURVE",
"135 -13 OFFCURVE",
"212 -13 CURVE SMOOTH",
"338 -13 OFFCURVE",
"372 50 OFFCURVE",
"387 69 CURVE",
"393 23 OFFCURVE",
"419 0 OFFCURVE",
"478 0 CURVE SMOOTH",
"508 0 OFFCURVE",
"521 6 OFFCURVE",
"521 6 CURVE",
"521 73 LINE",
"480 63 OFFCURVE",
"462 77 OFFCURVE",
"462 121 CURVE SMOOTH"
);
},
{
closed = 1;
nodes = (
"186 55 OFFCURVE",
"129 83 OFFCURVE",
"129 137 CURVE SMOOTH",
"129 196 OFFCURVE",
"172 237 OFFCURVE",
"248 245 CURVE SMOOTH",
"323 253 OFFCURVE",
"368 251 OFFCURVE",
"386 250 CURVE",
"387 179 LINE",
"380 111 OFFCURVE",
"308 55 OFFCURVE",
"238 55 CURVE SMOOTH"
);
}
);
width = 560;
}
);
leftKerningGroup = a;
leftMetricsKey = a;
note = acircumflex;
rightKerningGroup = a;
rightMetricsKey = a;
unicode = 00E2;
},
{
glyphname = adieresis;
lastChange = "2024-06-23 12:38:14 +0000";
layers = (
{
hints = (
{
horizontal = 1;
place = "{-9, 72}";
type = Stem;
},
{
horizontal = 1;
place = "{249, 64}";
type = Stem;
},
{
horizontal = 1;
place = "{464, 75}";
type = Stem;
},
{
horizontal = 1;
place = "{619, 106}";
type = Stem;
},
{
place = "{47, 86}";
type = Stem;
},
{
place = "{315, 108}";
type = Stem;
},
{
place = "{121, 108}";
type = Stem;
},
{
place = "{386, 80}";
type = Stem;
}
);
layerId = "9382C8E1-E850-40EA-B00A-FA5C7367EA84";
paths = (
{
closed = 1;
nodes = (
"203 615 OFFCURVE",
"225 637 OFFCURVE",
"225 666 CURVE SMOOTH",
"225 695 OFFCURVE",
"203 717 OFFCURVE",
"173 717 CURVE SMOOTH",
"143 717 OFFCURVE",
"121 695 OFFCURVE",
"121 666 CURVE SMOOTH",
"121 637 OFFCURVE",
"143 615 OFFCURVE",
"173 615 CURVE SMOOTH"
);
},
{
closed = 1;
nodes = (
"397 615 OFFCURVE",
"419 637 OFFCURVE",
"419 666 CURVE SMOOTH",
"419 695 OFFCURVE",
"397 717 OFFCURVE",
"367 717 CURVE SMOOTH",
"337 717 OFFCURVE",
"315 695 OFFCURVE",
"315 666 CURVE SMOOTH",
"315 637 OFFCURVE",
"337 615 OFFCURVE",
"367 615 CURVE SMOOTH"
);
},
{
closed = 1;
nodes = (
"462 364 LINE SMOOTH",
"462 461 OFFCURVE",
"391 531 OFFCURVE",
"261 531 CURVE SMOOTH",
"151 531 OFFCURVE",
"73 457 OFFCURVE",
"63 368 CURVE",
"147 368 LINE",
"153 432 OFFCURVE",
"203 460 OFFCURVE",
"272 460 CURVE SMOOTH",
"338 460 OFFCURVE",
"386 429 OFFCURVE",
"386 338 CURVE SMOOTH",
"386 304 LINE",
"380 305 OFFCURVE",
"307 313 OFFCURVE",
"238 305 CURVE SMOOTH",
"171 297 OFFCURVE",
"47 269 OFFCURVE",
"47 142 CURVE SMOOTH",
"47 49 OFFCURVE",
"135 -13 OFFCURVE",
"212 -13 CURVE SMOOTH",
"338 -13 OFFCURVE",
"372 50 OFFCURVE",
"387 69 CURVE",
"393 23 OFFCURVE",
"419 0 OFFCURVE",
"478 0 CURVE SMOOTH",
"508 0 OFFCURVE",
"521 6 OFFCURVE",
"521 6 CURVE",
"521 73 LINE",
"480 63 OFFCURVE",
"462 77 OFFCURVE",
"462 121 CURVE SMOOTH"
);
},
{
closed = 1;
nodes = (
"186 55 OFFCURVE",
"129 83 OFFCURVE",
"129 137 CURVE SMOOTH",
"129 196 OFFCURVE",
"172 237 OFFCURVE",
"248 245 CURVE SMOOTH",
"323 253 OFFCURVE",
"368 251 OFFCURVE",
"386 250 CURVE",
"387 179 LINE",
"380 111 OFFCURVE",
"308 55 OFFCURVE",
"238 55 CURVE SMOOTH"
);
}
);
width = 560;
}
);
leftKerningGroup = a;
leftMetricsKey = a;
note = adieresis;
rightKerningGroup = a;
rightMetricsKey = a;
unicode = 00E4;
},
{
glyphname = agrave;
lastChange = "2024-06-23 12:38:14 +0000";
layers = (
{
hints = (
{
horizontal = 1;
place = "{-9, 72}";
type = Stem;
},
{
horizontal = 1;
place = "{249, 64}";
type = Stem;
},
{
horizontal = 1;
place = "{464, 75}";
type = Stem;
},
{
horizontal = 1;
place = "{621, 103}";
type = Stem;
},
{
place = "{47, 86}";
type = Stem;
},
{
place = "{386, 80}";
type = Stem;
}
);
layerId = "9382C8E1-E850-40EA-B00A-FA5C7367EA84";
paths = (
{
closed = 1;
nodes = (
"279 617 LINE",
"370 617 LINE",
"336 650 LINE SMOOTH",
"302 683 OFFCURVE",
"262 716 OFFCURVE",
"262 716 CURVE SMOOTH",
"182 716 LINE SMOOTH",
"182 716 OFFCURVE",
"211 683 OFFCURVE",
"246 650 CURVE SMOOTH"
);
},
{
closed = 1;
nodes = (
"462 364 LINE SMOOTH",
"462 461 OFFCURVE",
"391 531 OFFCURVE",
"261 531 CURVE SMOOTH",
"151 531 OFFCURVE",
"73 457 OFFCURVE",
"63 368 CURVE",
"147 368 LINE",
"153 432 OFFCURVE",
"203 460 OFFCURVE",
"272 460 CURVE SMOOTH",
"338 460 OFFCURVE",
"386 429 OFFCURVE",
"386 338 CURVE SMOOTH",
"386 304 LINE",
"380 305 OFFCURVE",
"307 313 OFFCURVE",
"238 305 CURVE SMOOTH",
"171 297 OFFCURVE",
"47 269 OFFCURVE",
"47 142 CURVE SMOOTH",
"47 49 OFFCURVE",
"135 -13 OFFCURVE",
"212 -13 CURVE SMOOTH",
"338 -13 OFFCURVE",
"372 50 OFFCURVE",
"387 69 CURVE",
"393 23 OFFCURVE",
"419 0 OFFCURVE",
"478 0 CURVE SMOOTH",
"508 0 OFFCURVE",
"521 6 OFFCURVE",
"521 6 CURVE",
"521 73 LINE",
"480 63 OFFCURVE",
"462 77 OFFCURVE",
"462 121 CURVE SMOOTH"
);
},
{
closed = 1;
nodes = (
"186 55 OFFCURVE",
"129 83 OFFCURVE",
"129 137 CURVE SMOOTH",
"129 196 OFFCURVE",
"172 237 OFFCURVE",
"248 245 CURVE SMOOTH",
"323 253 OFFCURVE",
"368 251 OFFCURVE",
"386 250 CURVE",
"387 179 LINE",
"380 111 OFFCURVE",
"308 55 OFFCURVE",
"238 55 CURVE SMOOTH"
);
}
);
width = 560;
}
);
leftKerningGroup = a;
leftMetricsKey = a;
note = agrave;
rightKerningGroup = a;
rightMetricsKey = a;
unicode = 00E0;
},
{
glyphname = aring;
lastChange = "2024-06-23 12:38:14 +0000";
layers = (
{
hints = (
{
horizontal = 1;
place = "{-9, 72}";
type = Stem;
},
{
horizontal = 1;
place = "{249, 64}";
type = Stem;
},
{
horizontal = 1;
place = "{464, 75}";
type = Stem;
},
{
horizontal = 1;
place = "{600, 40}";
type = Stem;
},
{
horizontal = 1;
place = "{684, 40}";
type = Stem;
},
{
place = "{47, 86}";
type = Stem;
},
{
place = "{208, 42}";
type = Stem;
},
{
place = "{294, 42}";
type = Stem;
},
{
place = "{386, 80}";
type = Stem;
}
);
layerId = "9382C8E1-E850-40EA-B00A-FA5C7367EA84";
paths = (
{
closed = 1;
nodes = (
"305 596 OFFCURVE",
"332 622 OFFCURVE",
"332 656 CURVE SMOOTH",
"332 690 OFFCURVE",
"305 716 OFFCURVE",
"270 716 CURVE SMOOTH",
"235 716 OFFCURVE",
"208 690 OFFCURVE",
"208 656 CURVE SMOOTH",
"208 622 OFFCURVE",
"235 596 OFFCURVE",
"270 596 CURVE SMOOTH"
);
},
{
closed = 1;
nodes = (
"284 680 OFFCURVE",
"294 670 OFFCURVE",
"294 656 CURVE SMOOTH",
"294 643 OFFCURVE",
"284 632 OFFCURVE",
"270 632 CURVE SMOOTH",
"256 632 OFFCURVE",
"246 643 OFFCURVE",
"246 656 CURVE SMOOTH",
"246 670 OFFCURVE",
"256 680 OFFCURVE",
"270 680 CURVE SMOOTH"
);
},
{
closed = 1;
nodes = (
"462 364 LINE SMOOTH",
"462 461 OFFCURVE",
"391 531 OFFCURVE",
"261 531 CURVE SMOOTH",
"151 531 OFFCURVE",
"73 457 OFFCURVE",
"63 368 CURVE",
"147 368 LINE",
"153 432 OFFCURVE",
"203 460 OFFCURVE",
"272 460 CURVE SMOOTH",
"338 460 OFFCURVE",
"386 429 OFFCURVE",
"386 338 CURVE SMOOTH",
"386 304 LINE",
"380 305 OFFCURVE",
"307 313 OFFCURVE",
"238 305 CURVE SMOOTH",
"171 297 OFFCURVE",
"47 269 OFFCURVE",
"47 142 CURVE SMOOTH",
"47 49 OFFCURVE",
"135 -13 OFFCURVE",
"212 -13 CURVE SMOOTH",
"338 -13 OFFCURVE",
"372 50 OFFCURVE",
"387 69 CURVE",
"393 23 OFFCURVE",
"419 0 OFFCURVE",
"478 0 CURVE SMOOTH",
"508 0 OFFCURVE",
"521 6 OFFCURVE",
"521 6 CURVE",
"521 73 LINE",
"480 63 OFFCURVE",
"462 77 OFFCURVE",
"462 121 CURVE SMOOTH"
);
},
{
closed = 1;
nodes = (
"186 55 OFFCURVE",
"129 83 OFFCURVE",
"129 137 CURVE SMOOTH",
"129 196 OFFCURVE",
"172 237 OFFCURVE",
"248 245 CURVE SMOOTH",
"323 253 OFFCURVE",
"368 251 OFFCURVE",
"386 250 CURVE",
"387 179 LINE",
"380 111 OFFCURVE",
"308 55 OFFCURVE",
"238 55 CURVE SMOOTH"
);
}
);
width = 560;
}
);
leftKerningGroup = a;
leftMetricsKey = a;
note = aring;
rightKerningGroup = a;
rightMetricsKey = a;
unicode = 00E5;
},
{
glyphname = atilde;
lastChange = "2024-06-23 12:38:14 +0000";
layers = (
{
hints = (
{
horizontal = 1;
place = "{4, 74}";
type = Stem;
},
{
horizontal = 1;
place = "{249, 64}";
type = Stem;
},
{
horizontal = 1;
place = "{464, 75}";
type = Stem;
},
{
place = "{47, 86}";
type = Stem;
},
{
place = "{386, 80}";
type = Stem;
}
);
layerId = "9382C8E1-E850-40EA-B00A-FA5C7367EA84";
paths = (
{
closed = 1;
nodes = (
"462 364 LINE SMOOTH",
"462 461 OFFCURVE",
"391 531 OFFCURVE",
"261 531 CURVE SMOOTH",
"151 531 OFFCURVE",
"73 457 OFFCURVE",
"63 368 CURVE",
"147 368 LINE",
"153 432 OFFCURVE",
"203 460 OFFCURVE",
"272 460 CURVE SMOOTH",
"338 460 OFFCURVE",
"386 429 OFFCURVE",
"386 338 CURVE SMOOTH",
"386 304 LINE",
"380 305 OFFCURVE",
"307 313 OFFCURVE",
"238 305 CURVE SMOOTH",
"171 297 OFFCURVE",
"47 269 OFFCURVE",
"47 142 CURVE SMOOTH",
"47 49 OFFCURVE",
"135 -13 OFFCURVE",
"212 -13 CURVE SMOOTH",
"338 -13 OFFCURVE",
"372 50 OFFCURVE",
"387 69 CURVE",
"393 23 OFFCURVE",
"419 0 OFFCURVE",
"478 0 CURVE SMOOTH",
"508 0 OFFCURVE",
"521 6 OFFCURVE",
"521 6 CURVE",
"521 73 LINE",
"480 63 OFFCURVE",
"462 77 OFFCURVE",
"462 121 CURVE SMOOTH"
);
},
{
closed = 1;
nodes = (
"186 55 OFFCURVE",
"129 83 OFFCURVE",
"129 137 CURVE SMOOTH",
"129 196 OFFCURVE",
"172 237 OFFCURVE",
"248 245 CURVE SMOOTH",
"323 253 OFFCURVE",
"368 251 OFFCURVE",
"386 250 CURVE",
"387 179 LINE",
"380 111 OFFCURVE",
"308 55 OFFCURVE",
"238 55 CURVE SMOOTH"
);
}
);
width = 560;
}
);
leftKerningGroup = a;
leftMetricsKey = a;
note = atilde;
rightKerningGroup = a;
rightMetricsKey = a;
unicode = 00E3;
},
{
glyphname = ae;
lastChange = "2024-06-23 12:38:20 +0000";
layers = (
{
hints = (
{
horizontal = 1;
place = "{-11, 68}";
type = Stem;
},
{
horizontal = 1;
place = "{249, 69}";
type = Stem;
},
{
horizontal = 1;
place = "{468, 70}";
type = Stem;
},
{
place = "{47, 87}";
type = Stem;
},
{
place = "{387, 93}";
type = Stem;
},
{
place = "{793, 87}";
type = Stem;
}
);
layerId = "9382C8E1-E850-40EA-B00A-FA5C7367EA84";
paths = (
{
closed = 1;
nodes = (
"876 258 LINE SMOOTH",
"876 408 OFFCURVE",
"802 530 OFFCURVE",
"645 530 CURVE SMOOTH",
"562 530 OFFCURVE",
"496 494 OFFCURVE",
"452 438 CURVE",
"429 495 OFFCURVE",
"363 530 OFFCURVE",
"261 530 CURVE SMOOTH",
"151 530 OFFCURVE",
"75 472 OFFCURVE",
"63 367 CURVE",
"145 367 LINE",
"153 440 OFFCURVE",
"203 469 OFFCURVE",
"272 469 CURVE SMOOTH",
"338 469 OFFCURVE",
"385 434 OFFCURVE",
"385 391 CURVE SMOOTH",
"385 338 OFFCURVE",
"331 324 OFFCURVE",
"238 301 CURVE SMOOTH",
"129 277 OFFCURVE",
"47 254 OFFCURVE",
"47 144 CURVE SMOOTH",
"47 51 OFFCURVE",
"134 -15 OFFCURVE",
"226 -15 CURVE SMOOTH",
"299 -15 OFFCURVE",
"398 17 OFFCURVE",
"414 147 CURVE",
"450 52 OFFCURVE",
"532 -14 OFFCURVE",
"645 -14 CURVE SMOOTH",
"767 -14 OFFCURVE",
"840 62 OFFCURVE",
"865 155 CURVE",
"784 155 LINE",
"768 105 OFFCURVE",
"724 53 OFFCURVE",
"645 53 CURVE SMOOTH",
"535 53 OFFCURVE",
"481 142 OFFCURVE",
"476 247 CURVE",
"496 246 OFFCURVE",
"542 245 OFFCURVE",
"583 245 CURVE SMOOTH",
"876 245 LINE"
);
},
{
closed = 1;
nodes = (
"733 464 OFFCURVE",
"783 395 OFFCURVE",
"793 310 CURVE",
"583 310 LINE SMOOTH",
"544 310 OFFCURVE",
"501 309 OFFCURVE",
"480 308 CURVE",
"494 394 OFFCURVE",
"535 464 OFFCURVE",
"646 464 CURVE SMOOTH"
);
},
{
closed = 1;
nodes = (
"387 226 LINE SMOOTH",
"387 120 OFFCURVE",
"320 49 OFFCURVE",
"248 49 CURVE SMOOTH",
"178 49 OFFCURVE",
"130 85 OFFCURVE",
"130 139 CURVE SMOOTH",
"130 181 OFFCURVE",
"153 214 OFFCURVE",
"265 238 CURVE SMOOTH",
"310 248 OFFCURVE",
"353 258 OFFCURVE",
"387 274 CURVE"
);
}
);
width = 920;
}
);
leftKerningGroup = a;
leftMetricsKey = a;
note = ae;
rightKerningGroup = e;
rightMetricsKey = e;
unicode = 00E6;
},
{
glyphname = b;
lastChange = "2024-06-23 12:44:50 +0000";
layers = (
{
hints = (
{
horizontal = 1;
place = "{4, 21}";
target = up;
type = BottomGhost;
},
{
horizontal = 1;
place = "{465, 73}";
type = Stem;
},
{
horizontal = 1;
place = "{721, -20}";
target = down;
type = TopGhost;
},
{
place = "{81, 85}";
type = Stem;
},
{
place = "{464, 87}";
type = Stem;
}
);
layerId = "9382C8E1-E850-40EA-B00A-FA5C7367EA84";
paths = (
{
closed = 1;
nodes = (
"453 -15 OFFCURVE",
"551 87 OFFCURVE",
"551 258 CURVE SMOOTH",
"551 428 OFFCURVE",
"454 530 OFFCURVE",
"343 530 CURVE SMOOTH",
"254 530 OFFCURVE",
"188 481 OFFCURVE",
"166 435 CURVE",
"166 717 LINE",
"85 717 LINE",
"85 0 LINE",
"166 0 LINE",
"166 80 LINE",
"188 34 OFFCURVE",
"254 -15 OFFCURVE",
"343 -15 CURVE SMOOTH"
);
},
{
closed = 1;
nodes = (
"166 371 OFFCURVE",
"219 461 OFFCURVE",
"318 461 CURVE SMOOTH",
"396 461 OFFCURVE",
"468 391 OFFCURVE",
"468 257 CURVE SMOOTH",
"468 125 OFFCURVE",
"397 55 OFFCURVE",
"318 55 CURVE SMOOTH",
"219 55 OFFCURVE",
"166 145 OFFCURVE",
"166 257 CURVE SMOOTH"
);
}
);
width = 600;
}
);
leftKerningGroup = n;
leftMetricsKey = n;
note = b;
rightKerningGroup = o;
rightMetricsKey = o;
unicode = 0062;
},
{
glyphname = c;
lastChange = "2024-06-23 12:44:50 +0000";
layers = (
{
hints = (
{
horizontal = 1;
place = "{-12, 76}";
type = Stem;
},
{
horizontal = 1;
place = "{461, 75}";
type = Stem;
},
{
place = "{47, 87}";
type = Stem;
}
);
layerId = "9382C8E1-E850-40EA-B00A-FA5C7367EA84";
paths = (
{
closed = 1;
nodes = (
"424 -16 OFFCURVE",
"502 63 OFFCURVE",
"522 165 CURVE",
"441 165 LINE",
"426 108 OFFCURVE",
"373 56 OFFCURVE",
"299 56 CURVE SMOOTH",
"193 56 OFFCURVE",
"132 149 OFFCURVE",
"132 255 CURVE SMOOTH",
"132 365 OFFCURVE",
"192 457 OFFCURVE",
"300 457 CURVE SMOOTH",
"373 457 OFFCURVE",
"425 404 OFFCURVE",
"440 348 CURVE",
"523 348 LINE",
"503 449 OFFCURVE",
"425 528 OFFCURVE",
"299 528 CURVE SMOOTH",
"145 528 OFFCURVE",
"49 406 OFFCURVE",
"49 256 CURVE SMOOTH",
"49 106 OFFCURVE",
"145 -16 OFFCURVE",
"299 -16 CURVE SMOOTH"
);
}
);
width = 572;
}
);
leftKerningGroup = o;
leftMetricsKey = o;
note = c;
rightKerningGroup = o;
rightMetricsKey = o;
unicode = 0063;
},
{
glyphname = ccedilla;
lastChange = "2024-06-23 10:44:54 +0000";
layers = (
{
hints = (
{
horizontal = 1;
place = "{-12, 76}";
type = Stem;
},
{
horizontal = 1;
place = "{461, 75}";
type = Stem;
},
{
place = "{47, 87}";
type = Stem;
}
);
layerId = "9382C8E1-E850-40EA-B00A-FA5C7367EA84";
paths = (
{
closed = 1;
nodes = (
"422 -16 OFFCURVE",
"500 63 OFFCURVE",
"520 165 CURVE",
"439 165 LINE",
"424 108 OFFCURVE",
"371 56 OFFCURVE",
"297 56 CURVE SMOOTH",
"191 56 OFFCURVE",
"130 149 OFFCURVE",
"130 255 CURVE SMOOTH",
"130 365 OFFCURVE",
"190 457 OFFCURVE",
"298 457 CURVE SMOOTH",
"371 457 OFFCURVE",
"423 404 OFFCURVE",
"438 348 CURVE",
"521 348 LINE",
"501 449 OFFCURVE",
"423 528 OFFCURVE",
"297 528 CURVE SMOOTH",
"143 528 OFFCURVE",
"47 406 OFFCURVE",
"47 256 CURVE SMOOTH",
"47 106 OFFCURVE",
"143 -16 OFFCURVE",
"297 -16 CURVE SMOOTH"
);
}
);
width = 562;
}
);
note = ccedilla;
unicode = 00E7;
},
{
glyphname = d;
lastChange = "2024-06-23 13:52:01 +0000";
layers = (
{
hints = (
{
horizontal = 1;
place = "{4, 21}";
target = up;
type = BottomGhost;
},
{
horizontal = 1;
place = "{465, 73}";
type = Stem;
},
{
horizontal = 1;
place = "{721, -20}";
target = down;
type = TopGhost;
},
{
place = "{47, 87}";
type = Stem;
},
{
place = "{432, 85}";
type = Stem;
}
);
layerId = "9382C8E1-E850-40EA-B00A-FA5C7367EA84";
paths = (
{
closed = 1;
nodes = (
"346 -15 OFFCURVE",
"412 34 OFFCURVE",
"434 80 CURVE",
"434 0 LINE",
"515 0 LINE",
"515 717 LINE",
"434 717 LINE",
"434 435 LINE",
"412 481 OFFCURVE",
"346 530 OFFCURVE",
"257 530 CURVE SMOOTH",
"146 530 OFFCURVE",
"49 428 OFFCURVE",
"49 258 CURVE SMOOTH",
"49 87 OFFCURVE",
"147 -15 OFFCURVE",
"257 -15 CURVE SMOOTH"
);
},
{
closed = 1;
nodes = (
"132 391 OFFCURVE",
"204 461 OFFCURVE",
"282 461 CURVE SMOOTH",
"381 461 OFFCURVE",
"434 371 OFFCURVE",
"434 257 CURVE SMOOTH",
"434 145 OFFCURVE",
"381 55 OFFCURVE",
"282 55 CURVE SMOOTH",
"203 55 OFFCURVE",
"132 125 OFFCURVE",
"132 257 CURVE SMOOTH"
);
}
);
width = 600;
}
);
leftKerningGroup = o;
leftMetricsKey = o;
note = d;
rightKerningGroup = h;
rightMetricsKey = n;
unicode = 0064;
},
{
glyphname = e;
lastChange = "2024-06-23 16:14:56 +0000";
layers = (
{
hints = (
{
horizontal = 1;
place = "{-10, 71}";
type = Stem;
},
{
horizontal = 1;
place = "{249, 69}";
type = Stem;
},
{
horizontal = 1;
place = "{468, 70}";
type = Stem;
},
{
place = "{47, 85}";
type = Stem;
},
{
place = "{445, 87}";
type = Stem;
}
);
layerId = "9382C8E1-E850-40EA-B00A-FA5C7367EA84";
paths = (
{
closed = 1;
nodes = (
"421 -14 OFFCURVE",
"494 62 OFFCURVE",
"519 155 CURVE",
"438 155 LINE",
"422 105 OFFCURVE",
"378 53 OFFCURVE",
"299 53 CURVE SMOOTH",
"189 53 OFFCURVE",
"135 142 OFFCURVE",
"130 247 CURVE",
"150 246 OFFCURVE",
"196 245 OFFCURVE",
"237 245 CURVE SMOOTH",
"530 245 LINE",
"530 258 LINE SMOOTH",
"530 408 OFFCURVE",
"456 530 OFFCURVE",
"299 530 CURVE SMOOTH",
"145 530 OFFCURVE",
"49 408 OFFCURVE",
"49 258 CURVE SMOOTH",
"49 108 OFFCURVE",
"145 -14 OFFCURVE",
"299 -14 CURVE SMOOTH"
);
},
{
closed = 1;
nodes = (
"148 394 OFFCURVE",
"189 464 OFFCURVE",
"300 464 CURVE SMOOTH",
"387 464 OFFCURVE",
"437 395 OFFCURVE",
"447 310 CURVE",
"237 310 LINE SMOOTH",
"198 310 OFFCURVE",
"155 309 OFFCURVE",
"134 308 CURVE"
);
}
);
width = 579;
}
);
leftKerningGroup = o;
leftMetricsKey = o;
note = e;
rightKerningGroup = o;
rightMetricsKey = o;
unicode = 0065;
},
{
glyphname = eacute;
lastChange = "2024-06-23 12:44:50 +0000";
layers = (
{
hints = (
{
horizontal = 1;
place = "{-10, 71}";
type = Stem;
},
{
horizontal = 1;
place = "{249, 69}";
type = Stem;
},
{
horizontal = 1;
place = "{468, 70}";
type = Stem;
},
{
horizontal = 1;
place = "{621, 103}";
type = Stem;
},
{
place = "{47, 85}";
type = Stem;
},
{
place = "{445, 87}";
type = Stem;
}
);
layerId = "9382C8E1-E850-40EA-B00A-FA5C7367EA84";
paths = (
{
closed = 1;
nodes = (
"294 650 LINE SMOOTH",
"329 683 OFFCURVE",
"358 716 OFFCURVE",
"358 716 CURVE SMOOTH",
"278 716 LINE SMOOTH",
"278 716 OFFCURVE",
"238 683 OFFCURVE",
"204 650 CURVE SMOOTH",
"170 617 LINE",
"261 617 LINE"
);
},
{
closed = 1;
nodes = (
"421 -14 OFFCURVE",
"494 62 OFFCURVE",
"519 155 CURVE",
"438 155 LINE",
"422 105 OFFCURVE",
"378 53 OFFCURVE",
"299 53 CURVE SMOOTH",
"189 53 OFFCURVE",
"135 142 OFFCURVE",
"130 247 CURVE",
"150 246 OFFCURVE",
"196 245 OFFCURVE",
"237 245 CURVE SMOOTH",
"530 245 LINE",
"530 258 LINE SMOOTH",
"530 408 OFFCURVE",
"456 530 OFFCURVE",
"299 530 CURVE SMOOTH",
"145 530 OFFCURVE",
"49 408 OFFCURVE",
"49 258 CURVE SMOOTH",
"49 108 OFFCURVE",
"145 -14 OFFCURVE",
"299 -14 CURVE SMOOTH"
);
},
{
closed = 1;
nodes = (
"148 394 OFFCURVE",
"189 464 OFFCURVE",
"300 464 CURVE SMOOTH",
"387 464 OFFCURVE",
"437 395 OFFCURVE",
"447 310 CURVE",
"237 310 LINE SMOOTH",
"198 310 OFFCURVE",
"155 309 OFFCURVE",
"134 308 CURVE"
);
}
);
width = 579;
}
);
leftKerningGroup = e;
leftMetricsKey = e;
note = eacute;
rightKerningGroup = e;
rightMetricsKey = e;
unicode = 00E9;
},
{
glyphname = ecircumflex;
lastChange = "2024-06-23 12:44:50 +0000";
layers = (
{
hints = (
{
horizontal = 1;
place = "{-10, 71}";
type = Stem;
},
{
horizontal = 1;
place = "{249, 69}";
type = Stem;
},
{
horizontal = 1;
place = "{468, 70}";
type = Stem;
},
{
horizontal = 1;
place = "{686, 38}";
type = Stem;
},
{
place = "{47, 85}";
type = Stem;
},
{
place = "{445, 87}";
type = Stem;
}
);
layerId = "9382C8E1-E850-40EA-B00A-FA5C7367EA84";
paths = (
{
closed = 1;
nodes = (
"305 617 LINE",
"368 617 LINE",
"305 716 LINE",
"222 716 LINE",
"160 617 LINE",
"222 617 LINE",
"264 682 LINE"
);
},
{
closed = 1;
nodes = (
"530 258 LINE SMOOTH",
"530 408 OFFCURVE",
"456 530 OFFCURVE",
"299 530 CURVE SMOOTH",
"145 530 OFFCURVE",
"49 408 OFFCURVE",
"49 258 CURVE SMOOTH",
"49 108 OFFCURVE",
"145 -14 OFFCURVE",
"299 -14 CURVE SMOOTH",
"421 -14 OFFCURVE",
"494 62 OFFCURVE",
"519 155 CURVE",
"438 155 LINE",
"422 105 OFFCURVE",
"378 53 OFFCURVE",
"299 53 CURVE SMOOTH",
"189 53 OFFCURVE",
"135 142 OFFCURVE",
"130 247 CURVE",
"150 246 OFFCURVE",
"196 245 OFFCURVE",
"237 245 CURVE SMOOTH",
"530 245 LINE"
);
},
{
closed = 1;
nodes = (
"387 464 OFFCURVE",
"437 395 OFFCURVE",
"447 310 CURVE",
"237 310 LINE SMOOTH",
"198 310 OFFCURVE",
"155 309 OFFCURVE",
"134 308 CURVE",
"148 394 OFFCURVE",
"189 464 OFFCURVE",
"300 464 CURVE SMOOTH"
);
}
);
width = 579;
}
);
leftKerningGroup = e;
leftMetricsKey = e;
note = ecircumflex;
rightKerningGroup = e;
rightMetricsKey = e;
unicode = 00EA;
},
{
glyphname = edieresis;
lastChange = "2024-06-23 12:44:50 +0000";
layers = (
{
hints = (
{
horizontal = 1;
place = "{-10, 71}";
type = Stem;
},
{
horizontal = 1;
place = "{249, 69}";
type = Stem;
},
{
horizontal = 1;
place = "{468, 70}";
type = Stem;
},
{
horizontal = 1;
place = "{634, 106}";
type = Stem;
},
{
place = "{121, 108}";
type = Stem;
},
{
place = "{315, 108}";
type = Stem;
},
{
place = "{445, 87}";
type = Stem;
},
{
place = "{47, 85}";
type = Stem;
}
);
layerId = "9382C8E1-E850-40EA-B00A-FA5C7367EA84";
paths = (
{
closed = 1;
nodes = (
"123 652 OFFCURVE",
"145 630 OFFCURVE",
"175 630 CURVE SMOOTH",
"205 630 OFFCURVE",
"227 652 OFFCURVE",
"227 681 CURVE SMOOTH",
"227 710 OFFCURVE",
"205 732 OFFCURVE",
"175 732 CURVE SMOOTH",
"145 732 OFFCURVE",
"123 710 OFFCURVE",
"123 681 CURVE SMOOTH"
);
},
{
closed = 1;
nodes = (
"317 652 OFFCURVE",
"339 630 OFFCURVE",
"369 630 CURVE SMOOTH",
"399 630 OFFCURVE",
"421 652 OFFCURVE",
"421 681 CURVE SMOOTH",
"421 710 OFFCURVE",
"399 732 OFFCURVE",
"369 732 CURVE SMOOTH",
"339 732 OFFCURVE",
"317 710 OFFCURVE",
"317 681 CURVE SMOOTH"
);
},
{
closed = 1;
nodes = (
"421 -14 OFFCURVE",
"494 62 OFFCURVE",
"519 155 CURVE",
"438 155 LINE",
"422 105 OFFCURVE",
"378 53 OFFCURVE",
"299 53 CURVE SMOOTH",
"189 53 OFFCURVE",
"135 142 OFFCURVE",
"130 247 CURVE",
"150 246 OFFCURVE",
"196 245 OFFCURVE",
"237 245 CURVE SMOOTH",
"530 245 LINE",
"530 258 LINE SMOOTH",
"530 408 OFFCURVE",
"456 530 OFFCURVE",
"299 530 CURVE SMOOTH",
"145 530 OFFCURVE",
"49 408 OFFCURVE",
"49 258 CURVE SMOOTH",
"49 108 OFFCURVE",
"145 -14 OFFCURVE",
"299 -14 CURVE SMOOTH"
);
},
{
closed = 1;
nodes = (
"148 394 OFFCURVE",
"189 464 OFFCURVE",
"300 464 CURVE SMOOTH",
"387 464 OFFCURVE",
"437 395 OFFCURVE",
"447 310 CURVE",
"237 310 LINE SMOOTH",
"198 310 OFFCURVE",
"155 309 OFFCURVE",
"134 308 CURVE"
);
}
);
width = 579;
}
);
leftKerningGroup = e;
leftMetricsKey = e;
note = edieresis;
rightKerningGroup = e;
rightMetricsKey = e;
unicode = 00EB;
},
{
glyphname = egrave;
lastChange = "2024-06-23 12:44:50 +0000";
layers = (
{
hints = (
{
horizontal = 1;
place = "{-10, 71}";
type = Stem;
},
{
horizontal = 1;
place = "{249, 69}";
type = Stem;
},
{
horizontal = 1;
place = "{468, 70}";
type = Stem;
},
{
horizontal = 1;
place = "{621, 103}";
type = Stem;
},
{
place = "{47, 85}";
type = Stem;
},
{
place = "{445, 87}";
type = Stem;
}
);
layerId = "9382C8E1-E850-40EA-B00A-FA5C7367EA84";
paths = (
{
closed = 1;
nodes = (
"379 617 LINE",
"345 650 LINE SMOOTH",
"311 683 OFFCURVE",
"271 716 OFFCURVE",
"271 716 CURVE SMOOTH",
"191 716 LINE SMOOTH",
"191 716 OFFCURVE",
"220 683 OFFCURVE",
"255 650 CURVE SMOOTH",
"288 617 LINE"
);
},
{
closed = 1;
nodes = (
"421 -14 OFFCURVE",
"494 62 OFFCURVE",
"519 155 CURVE",
"438 155 LINE",
"422 105 OFFCURVE",
"378 53 OFFCURVE",
"299 53 CURVE SMOOTH",
"189 53 OFFCURVE",
"135 142 OFFCURVE",
"130 247 CURVE",
"150 246 OFFCURVE",
"196 245 OFFCURVE",
"237 245 CURVE SMOOTH",
"530 245 LINE",
"530 258 LINE SMOOTH",
"530 408 OFFCURVE",
"456 530 OFFCURVE",
"299 530 CURVE SMOOTH",
"145 530 OFFCURVE",
"49 408 OFFCURVE",
"49 258 CURVE SMOOTH",
"49 108 OFFCURVE",
"145 -14 OFFCURVE",
"299 -14 CURVE SMOOTH"
);
},
{
closed = 1;
nodes = (
"148 394 OFFCURVE",
"189 464 OFFCURVE",
"300 464 CURVE SMOOTH",
"387 464 OFFCURVE",
"437 395 OFFCURVE",
"447 310 CURVE",
"237 310 LINE SMOOTH",
"198 310 OFFCURVE",
"155 309 OFFCURVE",
"134 308 CURVE"
);
}
);
width = 579;
}
);
leftKerningGroup = e;
leftMetricsKey = e;
note = egrave;
rightKerningGroup = e;
rightMetricsKey = e;
unicode = 00E8;
},
{
glyphname = f;
lastChange = "2024-06-23 16:15:15 +0000";
layers = (
{
hints = (
{
horizontal = 1;
place = "{4, 21}";
target = up;
type = BottomGhost;
},
{
horizontal = 1;
place = "{454, 71}";
type = Stem;
},
{
horizontal = 1;
place = "{654, 70}";
type = Stem;
},
{
place = "{206, 116}";
type = Stem;
},
{
place = "{126, 85}";
type = Stem;
}
);
layerId = "9382C8E1-E850-40EA-B00A-FA5C7367EA84";
paths = (
{
closed = 1;
nodes = (
"129 646 OFFCURVE",
"169 716 OFFCURVE",
"264 716 CURVE SMOOTH",
"307 716 OFFCURVE",
"333 710 OFFCURVE",
"333 710 CURVE",
"333 640 LINE",
"333 640 OFFCURVE",
"309 644 OFFCURVE",
"282 644 CURVE SMOOTH",
"216 644 OFFCURVE",
"210 609 OFFCURVE",
"210 546 CURVE",
"209 516 LINE",
"209 516 OFFCURVE",
"240 517 OFFCURVE",
"257 517 CURVE SMOOTH",
"333 517 LINE",
"333 450 LINE",
"257 450 LINE SMOOTH",
"240 450 OFFCURVE",
"209 451 OFFCURVE",
"209 451 CURVE SMOOTH",
"209 451 OFFCURVE",
"210 391 OFFCURVE",
"210 362 CURVE SMOOTH",
"210 0 LINE",
"129 0 LINE",
"129 362 LINE SMOOTH",
"129 392 OFFCURVE",
"130 451 OFFCURVE",
"130 451 CURVE SMOOTH",
"130 451 OFFCURVE",
"100 450 OFFCURVE",
"85 450 CURVE SMOOTH",
"37 450 LINE",
"37 517 LINE",
"85 517 LINE SMOOTH",
"100 517 OFFCURVE",
"130 516 OFFCURVE",
"130 516 CURVE SMOOTH",
"130 516 OFFCURVE",
"129 550 OFFCURVE",
"129 550 CURVE SMOOTH",
"129 585 LINE SMOOTH"
);
}
);
width = 378;
}
);
note = f;
rightKerningGroup = f;
unicode = 0066;
},
{
glyphname = g;
lastChange = "2024-06-23 15:55:48 +0000";
layers = (
{
hints = (
{
horizontal = 1;
place = "{-177, 75}";
type = Stem;
},
{
horizontal = 1;
place = "{209, 63}";
type = Stem;
},
{
horizontal = 1;
place = "{464, 75}";
type = Stem;
},
{
place = "{95, 75}";
type = Stem;
},
{
place = "{390, 85}";
type = Stem;
},
{
place = "{86, 85}";
type = Stem;
},
{
place = "{54, 85}";
type = Stem;
},
{
place = "{444, 85}";
type = Stem;
}
);
layerId = "9382C8E1-E850-40EA-B00A-FA5C7367EA84";
paths = (
{
closed = 1;
nodes = (
"180 122 OFFCURVE",
"161 143 OFFCURVE",
"161 166 CURVE SMOOTH",
"161 188 OFFCURVE",
"175 203 OFFCURVE",
"205 205 CURVE",
"227 197 OFFCURVE",
"251 193 OFFCURVE",
"273 193 CURVE SMOOTH",
"372 193 OFFCURVE",
"466 258 OFFCURVE",
"466 363 CURVE SMOOTH",
"466 403 OFFCURVE",
"451 438 OFFCURVE",
"428 465 CURVE",
"447 485 OFFCURVE",
"479 496 OFFCURVE",
"499 493 CURVE",
"499 558 LINE",
"499 558 OFFCURVE",
"496 562 OFFCURVE",
"466 562 CURVE SMOOTH",
"427 562 OFFCURVE",
"398 535 OFFCURVE",
"381 503 CURVE",
"349 521 OFFCURVE",
"311 531 OFFCURVE",
"273 531 CURVE SMOOTH",
"173 531 OFFCURVE",
"81 465 OFFCURVE",
"81 363 CURVE SMOOTH",
"81 311 OFFCURVE",
"107 268 OFFCURVE",
"144 238 CURVE",
"108 225 OFFCURVE",
"90 199 OFFCURVE",
"90 166 CURVE SMOOTH",
"90 145 OFFCURVE",
"98 121 OFFCURVE",
"119 101 CURVE",
"75 79 OFFCURVE",
"49 39 OFFCURVE",
"49 -27 CURVE SMOOTH",
"49 -136 OFFCURVE",
"156 -181 OFFCURVE",
"287 -181 CURVE SMOOTH",
"418 -181 OFFCURVE",
"519 -136 OFFCURVE",
"520 -27 CURVE SMOOTH",
"520 89 OFFCURVE",
"420 129 OFFCURVE",
"282 125 CURVE SMOOTH"
);
},
{
closed = 1;
nodes = (
"341 460 OFFCURVE",
"385 429 OFFCURVE",
"385 362 CURVE SMOOTH",
"385 293 OFFCURVE",
"341 264 OFFCURVE",
"274 264 CURVE SMOOTH",
"206 265 OFFCURVE",
"163 295 OFFCURVE",
"162 362 CURVE",
"162 428 OFFCURVE",
"207 460 OFFCURVE",
"274 460 CURVE SMOOTH"
);
},
{
closed = 1;
nodes = (
"194 -110 OFFCURVE",
"131 -80 OFFCURVE",
"130 -27 CURVE",
"130 18 OFFCURVE",
"153 54 OFFCURVE",
"285 54 CURVE SMOOTH",
"403 54 OFFCURVE",
"439 18 OFFCURVE",
"439 -27 CURVE SMOOTH",
"439 -78 OFFCURVE",
"385 -110 OFFCURVE",
"288 -110 CURVE SMOOTH"
);
}
);
width = 559;
}
);
leftKerningGroup = g;
note = g;
unicode = 0067;
},
{
glyphname = h;
lastChange = "2024-06-23 12:44:50 +0000";
layers = (
{
hints = (
{
horizontal = 1;
place = "{4, 21}";
target = up;
type = BottomGhost;
},
{
horizontal = 1;
place = "{465, 74}";
type = Stem;
},
{
horizontal = 1;
place = "{720, -20}";
target = down;
type = TopGhost;
},
{
place = "{81, 85}";
type = Stem;
},
{
place = "{421, 85}";
type = Stem;
}
);
layerId = "9382C8E1-E850-40EA-B00A-FA5C7367EA84";
paths = (
{
closed = 1;
nodes = (
"166 333 LINE SMOOTH",
"166 389 OFFCURVE",
"224 461 OFFCURVE",
"317 461 CURVE SMOOTH",
"387 461 OFFCURVE",
"425 425 OFFCURVE",
"425 338 CURVE SMOOTH",
"425 0 LINE",
"506 0 LINE",
"506 374 LINE SMOOTH",
"506 471 OFFCURVE",
"435 531 OFFCURVE",
"342 531 CURVE SMOOTH",
"254 531 OFFCURVE",
"187 479 OFFCURVE",
"166 445 CURVE",
"166 716 LINE",
"85 716 LINE",
"85 0 LINE",
"166 0 LINE"
);
}
);
width = 591;
}
);
leftKerningGroup = n;
leftMetricsKey = n;
note = h;
rightKerningGroup = n;
rightMetricsKey = n;
unicode = 0068;
},
{
glyphname = i;
lastChange = "2024-06-23 12:44:50 +0000";
layers = (
{
hints = (
{
place = "{59, 85}";
type = Stem;
}
);
layerId = "9382C8E1-E850-40EA-B00A-FA5C7367EA84";
paths = (
{
closed = 1;
nodes = (
"85 640 OFFCURVE",
"107 618 OFFCURVE",
"137 618 CURVE SMOOTH",
"167 618 OFFCURVE",
"189 640 OFFCURVE",
"189 669 CURVE SMOOTH",
"189 698 OFFCURVE",
"167 720 OFFCURVE",
"137 720 CURVE SMOOTH",
"107 720 OFFCURVE",
"85 698 OFFCURVE",
"85 669 CURVE SMOOTH"
);
},
{
closed = 1;
nodes = (
"178 0 LINE",
"178 517 LINE",
"97 517 LINE",
"97 0 LINE"
);
}
);
width = 274;
}
);
leftKerningGroup = n;
leftMetricsKey = n;
note = i;
rightKerningGroup = n;
rightMetricsKey = n;
unicode = 0069;
},
{
glyphname = iacute;
lastChange = "2024-06-23 12:44:50 +0000";
layers = (
{
hints = (
{
horizontal = 1;
place = "{4, 21}";
target = up;
type = BottomGhost;
},
{
horizontal = 1;
place = "{521, -20}";
target = down;
type = TopGhost;
},
{
horizontal = 1;
place = "{621, 103}";
type = Stem;
},
{
place = "{144, 85}";
type = Stem;
}
);
layerId = "9382C8E1-E850-40EA-B00A-FA5C7367EA84";
paths = (
{
closed = 1;
nodes = (
"209 650 LINE SMOOTH",
"244 683 OFFCURVE",
"273 716 OFFCURVE",
"273 716 CURVE SMOOTH",
"193 716 LINE SMOOTH",
"193 716 OFFCURVE",
"153 683 OFFCURVE",
"119 650 CURVE SMOOTH",
"85 617 LINE",
"176 617 LINE"
);
},
{
closed = 1;
nodes = (
"229 0 LINE",
"229 517 LINE",
"148 517 LINE",
"148 0 LINE"
);
}
);
width = 358;
}
);
leftKerningGroup = i;
leftMetricsKey = i;
widthMetricsKey = i;
note = iacute;
rightKerningGroup = i;
rightMetricsKey = i;
unicode = 00ED;
},
{
glyphname = icircumflex;
lastChange = "2024-06-23 12:44:50 +0000";
layers = (
{
hints = (
{
horizontal = 1;
place = "{4, 21}";
target = up;
type = BottomGhost;
},
{
horizontal = 1;
place = "{521, -20}";
target = down;
type = TopGhost;
},
{
horizontal = 1;
place = "{622, 103}";
type = Stem;
},
{
place = "{81, 85}";
type = Stem;
}
);
layerId = "9382C8E1-E850-40EA-B00A-FA5C7367EA84";
paths = (
{
closed = 1;
nodes = (
"293 618 LINE",
"230 717 LINE",
"147 717 LINE",
"85 618 LINE",
"147 618 LINE",
"189 683 LINE",
"230 618 LINE"
);
},
{
closed = 1;
nodes = (
"233 0 LINE",
"233 517 LINE",
"152 517 LINE",
"152 0 LINE"
);
}
);
width = 378;
}
);
leftKerningGroup = i;
leftMetricsKey = i;
note = icircumflex;
rightKerningGroup = i;
rightMetricsKey = i;
unicode = 00EE;
},
{
glyphname = idieresis;
lastChange = "2024-06-23 12:44:50 +0000";
layers = (
{
hints = (
{
horizontal = 1;
place = "{4, 21}";
target = up;
type = BottomGhost;
},
{
horizontal = 1;
place = "{521, -20}";
target = down;
type = TopGhost;
},
{
horizontal = 1;
place = "{618, 106}";
type = Stem;
},
{
place = "{-31, 108}";
type = Stem;
},
{
place = "{163, 108}";
type = Stem;
},
{
place = "{81, 85}";
type = Stem;
}
);
layerId = "9382C8E1-E850-40EA-B00A-FA5C7367EA84";
paths = (
{
closed = 1;
nodes = (
"85 636 OFFCURVE",
"107 614 OFFCURVE",
"137 614 CURVE SMOOTH",
"167 614 OFFCURVE",
"189 636 OFFCURVE",
"189 665 CURVE SMOOTH",
"189 694 OFFCURVE",
"167 716 OFFCURVE",
"137 716 CURVE SMOOTH",
"107 716 OFFCURVE",
"85 694 OFFCURVE",
"85 665 CURVE SMOOTH"
);
},
{
closed = 1;
nodes = (
"279 636 OFFCURVE",
"301 614 OFFCURVE",
"331 614 CURVE SMOOTH",
"361 614 OFFCURVE",
"383 636 OFFCURVE",
"383 665 CURVE SMOOTH",
"383 694 OFFCURVE",
"361 716 OFFCURVE",
"331 716 CURVE SMOOTH",
"301 716 OFFCURVE",
"279 694 OFFCURVE",
"279 665 CURVE SMOOTH"
);
},
{
closed = 1;
nodes = (
"278 0 LINE",
"278 517 LINE",
"197 517 LINE",
"197 0 LINE"
);
}
);
width = 468;
}
);
leftKerningGroup = i;
leftMetricsKey = i;
widthMetricsKey = i;
note = idieresis;
rightKerningGroup = i;
rightMetricsKey = i;
unicode = 00EF;
},
{
glyphname = igrave;
lastChange = "2024-06-23 12:44:50 +0000";
layers = (
{
hints = (
{
horizontal = 1;
place = "{4, 21}";
target = up;
type = BottomGhost;
},
{
horizontal = 1;
place = "{521, -20}";
target = down;
type = TopGhost;
},
{
horizontal = 1;
place = "{621, 103}";
type = Stem;
},
{
place = "{134, 85}";
type = Stem;
}
);
layerId = "9382C8E1-E850-40EA-B00A-FA5C7367EA84";
paths = (
{
closed = 1;
nodes = (
"273 617 LINE",
"239 650 LINE SMOOTH",
"205 683 OFFCURVE",
"165 716 OFFCURVE",
"165 716 CURVE SMOOTH",
"85 716 LINE SMOOTH",
"85 716 OFFCURVE",
"114 683 OFFCURVE",
"149 650 CURVE SMOOTH",
"182 617 LINE"
);
},
{
closed = 1;
nodes = (
"219 0 LINE",
"219 517 LINE",
"138 517 LINE",
"138 0 LINE"
);
}
);
width = 358;
}
);
leftKerningGroup = i;
leftMetricsKey = i;
widthMetricsKey = i;
note = igrave;
rightKerningGroup = i;
rightMetricsKey = i;
unicode = 00EC;
},
{
glyphname = j;
lastChange = "2024-06-23 12:44:50 +0000";
layers = (
{
hints = (
{
horizontal = 1;
place = "{-92, 71}";
type = Stem;
}
);
layerId = "9382C8E1-E850-40EA-B00A-FA5C7367EA84";
paths = (
{
closed = 1;
nodes = (
"75 640 OFFCURVE",
"97 618 OFFCURVE",
"127 618 CURVE SMOOTH",
"157 618 OFFCURVE",
"179 640 OFFCURVE",
"179 669 CURVE SMOOTH",
"179 698 OFFCURVE",
"157 720 OFFCURVE",
"127 720 CURVE SMOOTH",
"97 720 OFFCURVE",
"75 698 OFFCURVE",
"75 669 CURVE SMOOTH"
);
},
{
closed = 1;
nodes = (
"162 -139 OFFCURVE",
"115 -164 OFFCURVE",
"48 -166 CURVE SMOOTH",
"10 -167 OFFCURVE",
"-6 -161 OFFCURVE",
"-6 -161 CURVE",
"-6 -94 LINE",
"-6 -94 OFFCURVE",
"20 -98 OFFCURVE",
"40 -96 CURVE SMOOTH",
"67 -93 OFFCURVE",
"84 -85 OFFCURVE",
"84 -32 CURVE SMOOTH",
"84 517 LINE",
"165 517 LINE",
"165 -67 LINE"
);
}
);
width = 264;
}
);
leftKerningGroup = j;
note = j;
rightKerningGroup = n;
rightMetricsKey = n;
unicode = 006A;
},
{
glyphname = k;
lastChange = "2024-06-23 16:14:22 +0000";
layers = (
{
hints = (
{
horizontal = 1;
place = "{4, 21}";
target = up;
type = BottomGhost;
},
{
horizontal = 1;
place = "{520, -20}";
target = down;
type = TopGhost;
},
{
horizontal = 1;
place = "{721, -20}";
target = down;
type = TopGhost;
},
{
place = "{82, 85}";
type = Stem;
}
);
layerId = "9382C8E1-E850-40EA-B00A-FA5C7367EA84";
paths = (
{
closed = 1;
nodes = (
"166 197 LINE",
"166 197 OFFCURVE",
"200 232 OFFCURVE",
"217 251 CURVE",
"259 192 LINE",
"399 0 LINE",
"491 0 LINE",
"267 305 LINE",
"459 516 LINE",
"370 516 LINE",
"228 362 LINE SMOOTH",
"207 340 OFFCURVE",
"166 293 OFFCURVE",
"166 293 CURVE",
"166 717 LINE",
"86 717 LINE",
"85 0 LINE",
"166 1 LINE"
);
}
);
width = 520;
}
);
leftMetricsKey = n;
note = k;
rightKerningGroup = x;
rightMetricsKey = x;
unicode = 006B;
},
{
glyphname = l;
lastChange = "2024-06-23 15:58:00 +0000";
layers = (
{
hints = (
{
horizontal = 1;
place = "{4, 21}";
target = up;
type = BottomGhost;
},
{
horizontal = 1;
place = "{720, -20}";
target = down;
type = TopGhost;
},
{
place = "{81, 85}";
type = Stem;
}
);
layerId = "9382C8E1-E850-40EA-B00A-FA5C7367EA84";
paths = (
{
closed = 1;
nodes = (
"85 716 LINE",
"166 716 LINE",
"166 133 LINE SMOOTH",
"166 80 OFFCURVE",
"183 72 OFFCURVE",
"210 69 CURVE SMOOTH",
"230 67 OFFCURVE",
"256 71 OFFCURVE",
"256 71 CURVE",
"256 4 LINE",
"256 4 OFFCURVE",
"240 -2 OFFCURVE",
"202 -1 CURVE SMOOTH",
"135 1 OFFCURVE",
"88 26 OFFCURVE",
"85 98 CURVE"
);
}
);
width = 306;
}
);
leftKerningGroup = n;
leftMetricsKey = n;
note = l;
rightKerningGroup = n;
rightMetricsKey = t;
unicode = 006C;
},
{
glyphname = m;
lastChange = "2024-06-23 12:44:50 +0000";
layers = (
{
hints = (
{
horizontal = 1;
place = "{4, 21}";
target = up;
type = BottomGhost;
},
{
horizontal = 1;
place = "{465, 74}";
type = Stem;
},
{
place = "{81, 85}";
type = Stem;
},
{
place = "{390, 85}";
type = Stem;
},
{
place = "{699, 85}";
type = Stem;
}
);
layerId = "9382C8E1-E850-40EA-B00A-FA5C7367EA84";
paths = (
{
closed = 1;
nodes = (
"552 531 OFFCURVE",
"489 489 OFFCURVE",
"460 448 CURVE",
"435 500 OFFCURVE",
"384 531 OFFCURVE",
"324 531 CURVE SMOOTH",
"236 531 OFFCURVE",
"187 479 OFFCURVE",
"166 445 CURVE",
"166 517 LINE",
"85 517 LINE",
"85 0 LINE",
"166 0 LINE",
"166 333 LINE SMOOTH",
"166 389 OFFCURVE",
"206 461 OFFCURVE",
"299 461 CURVE SMOOTH",
"360 461 OFFCURVE",
"394 425 OFFCURVE",
"394 338 CURVE SMOOTH",
"394 0 LINE",
"475 0 LINE",
"475 333 LINE SMOOTH",
"475 389 OFFCURVE",
"515 461 OFFCURVE",
"608 461 CURVE SMOOTH",
"669 461 OFFCURVE",
"703 425 OFFCURVE",
"703 338 CURVE SMOOTH",
"704 225 OFFCURVE",
"703 113 OFFCURVE",
"703 0 CURVE",
"784 0 LINE",
"784 374 LINE SMOOTH",
"784 471 OFFCURVE",
"717 531 OFFCURVE",
"633 531 CURVE SMOOTH"
);
}
);
width = 869;
}
);
leftKerningGroup = n;
leftMetricsKey = n;
note = m;
rightKerningGroup = n;
rightMetricsKey = n;
unicode = 006D;
},
{
glyphname = n;
lastChange = "2024-06-23 10:44:54 +0000";
layers = (
{
hints = (
{
horizontal = 1;
place = "{465, 72}";
type = Stem;
},
{
place = "{59, 85}";
type = Stem;
},
{
place = "{399, 85}";
type = Stem;
}
);
layerId = "9382C8E1-E850-40EA-B00A-FA5C7367EA84";
paths = (
{
closed = 1;
nodes = (
"166 333 LINE SMOOTH",
"166 389 OFFCURVE",
"224 461 OFFCURVE",
"317 461 CURVE SMOOTH",
"387 461 OFFCURVE",
"425 425 OFFCURVE",
"425 338 CURVE SMOOTH",
"425 0 LINE",
"506 0 LINE",
"506 374 LINE SMOOTH",
"506 471 OFFCURVE",
"435 531 OFFCURVE",
"342 531 CURVE SMOOTH",
"254 531 OFFCURVE",
"187 479 OFFCURVE",
"166 445 CURVE",
"166 517 LINE",
"85 517 LINE",
"85 0 LINE",
"166 0 LINE"
);
}
);
width = 591;
}
);
leftKerningGroup = n;
note = n;
unicode = 006E;
},
{
glyphname = ntilde;
lastChange = "2024-06-23 10:44:54 +0000";
layers = (
{
hints = (
{
horizontal = 1;
place = "{465, 72}";
type = Stem;
},
{
place = "{59, 85}";
type = Stem;
},
{
place = "{399, 85}";
type = Stem;
}
);
layerId = "9382C8E1-E850-40EA-B00A-FA5C7367EA84";
paths = (
{
closed = 1;
nodes = (
"162 333 LINE SMOOTH",
"162 389 OFFCURVE",
"220 461 OFFCURVE",
"313 461 CURVE SMOOTH",
"383 461 OFFCURVE",
"421 425 OFFCURVE",
"421 338 CURVE SMOOTH",
"421 0 LINE",
"502 0 LINE",
"502 374 LINE SMOOTH",
"502 471 OFFCURVE",
"431 531 OFFCURVE",
"338 531 CURVE SMOOTH",
"250 531 OFFCURVE",
"183 479 OFFCURVE",
"162 445 CURVE",
"162 517 LINE",
"81 517 LINE",
"81 0 LINE",
"162 0 LINE"
);
}
);
width = 583;
}
);
note = ntilde;
unicode = 00F1;
},
{
glyphname = o;
lastChange = "2024-06-23 15:56:01 +0000";
layers = (
{
hints = (
{
horizontal = 1;
place = "{-10, 85}";
type = Stem;
},
{
horizontal = 1;
place = "{453, 85}";
type = Stem;
},
{
place = "{26, 87}";
type = Stem;
},
{
place = "{442, 87}";
type = Stem;
}
);
layerId = "9382C8E1-E850-40EA-B00A-FA5C7367EA84";
paths = (
{
closed = 1;
nodes = (
"454 -14 OFFCURVE",
"548 108 OFFCURVE",
"548 258 CURVE SMOOTH",
"548 408 OFFCURVE",
"456 530 OFFCURVE",
"299 530 CURVE SMOOTH",
"145 530 OFFCURVE",
"49 408 OFFCURVE",
"49 258 CURVE SMOOTH",
"49 108 OFFCURVE",
"145 -14 OFFCURVE",
"299 -14 CURVE SMOOTH"
);
},
{
closed = 1;
nodes = (
"132 366 OFFCURVE",
"192 459 OFFCURVE",
"299 459 CURVE SMOOTH",
"409 459 OFFCURVE",
"466 366 OFFCURVE",
"466 258 CURVE SMOOTH",
"466 151 OFFCURVE",
"406 58 OFFCURVE",
"299 58 CURVE SMOOTH",
"193 58 OFFCURVE",
"132 151 OFFCURVE",
"132 258 CURVE SMOOTH"
);
}
);
width = 597;
}
);
leftKerningGroup = o;
note = o;
rightKerningGroup = o;
unicode = 006F;
},
{
glyphname = oacute;
lastChange = "2024-06-23 12:38:49 +0000";
layers = (
{
hints = (
{
horizontal = 1;
place = "{-10, 85}";
type = Stem;
},
{
horizontal = 1;
place = "{453, 85}";
type = Stem;
},
{
horizontal = 1;
place = "{621, 103}";
type = Stem;
},
{
place = "{26, 87}";
type = Stem;
},
{
place = "{172, 192}";
type = Stem;
},
{
place = "{442, 87}";
type = Stem;
}
);
layerId = "9382C8E1-E850-40EA-B00A-FA5C7367EA84";
paths = (
{
closed = 1;
nodes = (
"301 650 LINE SMOOTH",
"336 683 OFFCURVE",
"365 716 OFFCURVE",
"365 716 CURVE SMOOTH",
"285 716 LINE SMOOTH",
"285 716 OFFCURVE",
"245 683 OFFCURVE",
"211 650 CURVE SMOOTH",
"177 617 LINE",
"268 617 LINE"
);
},
{
closed = 1;
nodes = (
"454 -14 OFFCURVE",
"548 108 OFFCURVE",
"548 258 CURVE SMOOTH",
"548 408 OFFCURVE",
"456 530 OFFCURVE",
"299 530 CURVE SMOOTH",
"145 530 OFFCURVE",
"49 408 OFFCURVE",
"49 258 CURVE SMOOTH",
"49 108 OFFCURVE",
"145 -14 OFFCURVE",
"299 -14 CURVE SMOOTH"
);
},
{
closed = 1;
nodes = (
"132 366 OFFCURVE",
"192 459 OFFCURVE",
"299 459 CURVE SMOOTH",
"409 459 OFFCURVE",
"466 366 OFFCURVE",
"466 258 CURVE SMOOTH",
"466 151 OFFCURVE",
"406 58 OFFCURVE",
"299 58 CURVE SMOOTH",
"193 58 OFFCURVE",
"132 151 OFFCURVE",
"132 258 CURVE SMOOTH"
);
}
);
width = 597;
}
);
leftKerningGroup = o;
leftMetricsKey = o;
widthMetricsKey = o;
note = oacute;
rightKerningGroup = o;
rightMetricsKey = o;
unicode = 00F3;
},
{
glyphname = ocircumflex;
lastChange = "2024-06-23 12:38:49 +0000";
layers = (
{
hints = (
{
horizontal = 1;
place = "{-10, 85}";
type = Stem;
},
{
horizontal = 1;
place = "{453, 85}";
type = Stem;
},
{
horizontal = 1;
place = "{686, 38}";
type = Stem;
},
{
place = "{26, 87}";
type = Stem;
},
{
place = "{167, 212}";
type = Stem;
},
{
place = "{442, 87}";
type = Stem;
}
);
layerId = "9382C8E1-E850-40EA-B00A-FA5C7367EA84";
paths = (
{
closed = 1;
nodes = (
"234 716 LINE",
"172 617 LINE",
"234 617 LINE",
"276 682 LINE",
"317 617 LINE",
"380 617 LINE",
"317 716 LINE"
);
},
{
closed = 1;
nodes = (
"454 -14 OFFCURVE",
"548 108 OFFCURVE",
"548 258 CURVE SMOOTH",
"548 408 OFFCURVE",
"456 530 OFFCURVE",
"299 530 CURVE SMOOTH",
"145 530 OFFCURVE",
"49 408 OFFCURVE",
"49 258 CURVE SMOOTH",
"49 108 OFFCURVE",
"145 -14 OFFCURVE",
"299 -14 CURVE SMOOTH"
);
},
{
closed = 1;
nodes = (
"132 366 OFFCURVE",
"192 459 OFFCURVE",
"299 459 CURVE SMOOTH",
"409 459 OFFCURVE",
"466 366 OFFCURVE",
"466 258 CURVE SMOOTH",
"466 151 OFFCURVE",
"406 58 OFFCURVE",
"299 58 CURVE SMOOTH",
"193 58 OFFCURVE",
"132 151 OFFCURVE",
"132 258 CURVE SMOOTH"
);
}
);
width = 597;
}
);
leftKerningGroup = o;
leftMetricsKey = o;
widthMetricsKey = o;
note = ocircumflex;
rightKerningGroup = o;
rightMetricsKey = o;
unicode = 00F4;
},
{
glyphname = odieresis;
lastChange = "2024-06-23 12:38:49 +0000";
layers = (
{
hints = (
{
horizontal = 1;
place = "{-10, 85}";
type = Stem;
},
{
horizontal = 1;
place = "{453, 85}";
type = Stem;
},
{
horizontal = 1;
place = "{618, 106}";
type = Stem;
},
{
place = "{26, 87}";
type = Stem;
},
{
place = "{140, 108}";
type = Stem;
},
{
place = "{334, 108}";
type = Stem;
}
);
layerId = "9382C8E1-E850-40EA-B00A-FA5C7367EA84";
paths = (
{
closed = 1;
nodes = (
"145 636 OFFCURVE",
"167 614 OFFCURVE",
"197 614 CURVE SMOOTH",
"227 614 OFFCURVE",
"249 636 OFFCURVE",
"249 665 CURVE SMOOTH",
"249 694 OFFCURVE",
"227 716 OFFCURVE",
"197 716 CURVE SMOOTH",
"167 716 OFFCURVE",
"145 694 OFFCURVE",
"145 665 CURVE SMOOTH"
);
},
{
closed = 1;
nodes = (
"339 636 OFFCURVE",
"361 614 OFFCURVE",
"391 614 CURVE SMOOTH",
"421 614 OFFCURVE",
"443 636 OFFCURVE",
"443 665 CURVE SMOOTH",
"443 694 OFFCURVE",
"421 716 OFFCURVE",
"391 716 CURVE SMOOTH",
"361 716 OFFCURVE",
"339 694 OFFCURVE",
"339 665 CURVE SMOOTH"
);
},
{
closed = 1;
nodes = (
"454 -14 OFFCURVE",
"548 108 OFFCURVE",
"548 258 CURVE SMOOTH",
"548 408 OFFCURVE",
"456 530 OFFCURVE",
"299 530 CURVE SMOOTH",
"145 530 OFFCURVE",
"49 408 OFFCURVE",
"49 258 CURVE SMOOTH",
"49 108 OFFCURVE",
"145 -14 OFFCURVE",
"299 -14 CURVE SMOOTH"
);
},
{
closed = 1;
nodes = (
"132 366 OFFCURVE",
"192 459 OFFCURVE",
"299 459 CURVE SMOOTH",
"409 459 OFFCURVE",
"466 366 OFFCURVE",
"466 258 CURVE SMOOTH",
"466 151 OFFCURVE",
"406 58 OFFCURVE",
"299 58 CURVE SMOOTH",
"193 58 OFFCURVE",
"132 151 OFFCURVE",
"132 258 CURVE SMOOTH"
);
}
);
width = 597;
}
);
leftKerningGroup = o;
leftMetricsKey = o;
widthMetricsKey = o;
note = odieresis;
rightKerningGroup = o;
rightMetricsKey = o;
unicode = 00F6;
},
{
glyphname = ograve;
lastChange = "2024-06-23 12:38:49 +0000";
layers = (
{
hints = (
{
horizontal = 1;
place = "{-10, 85}";
type = Stem;
},
{
horizontal = 1;
place = "{453, 85}";
type = Stem;
},
{
horizontal = 1;
place = "{621, 103}";
type = Stem;
},
{
place = "{190, 192}";
type = Stem;
},
{
place = "{561, 87}";
type = Stem;
}
);
layerId = "9382C8E1-E850-40EA-B00A-FA5C7367EA84";
paths = (
{
closed = 1;
nodes = (
"319 650 LINE SMOOTH",
"354 683 OFFCURVE",
"383 716 OFFCURVE",
"383 716 CURVE SMOOTH",
"303 716 LINE SMOOTH",
"303 716 OFFCURVE",
"263 683 OFFCURVE",
"229 650 CURVE SMOOTH",
"195 617 LINE",
"286 617 LINE"
);
},
{
closed = 1;
nodes = (
"452 -14 OFFCURVE",
"548 108 OFFCURVE",
"548 258 CURVE SMOOTH",
"548 408 OFFCURVE",
"452 530 OFFCURVE",
"298 530 CURVE SMOOTH",
"141 530 OFFCURVE",
"49 408 OFFCURVE",
"49 258 CURVE SMOOTH",
"49 108 OFFCURVE",
"143 -14 OFFCURVE",
"298 -14 CURVE SMOOTH"
);
},
{
closed = 1;
nodes = (
"465 151 OFFCURVE",
"404 58 OFFCURVE",
"298 58 CURVE SMOOTH",
"191 58 OFFCURVE",
"131 151 OFFCURVE",
"131 258 CURVE SMOOTH",
"131 366 OFFCURVE",
"188 459 OFFCURVE",
"298 459 CURVE SMOOTH",
"405 459 OFFCURVE",
"465 366 OFFCURVE",
"465 258 CURVE SMOOTH"
);
}
);
width = 597;
}
);
leftKerningGroup = o;
leftMetricsKey = o;
widthMetricsKey = o;
note = ograve;
rightKerningGroup = o;
rightMetricsKey = o;
unicode = 00F2;
},
{
glyphname = oslash;
lastChange = "2024-06-23 12:44:50 +0000";
layers = (
{
hints = (
{
horizontal = 1;
place = "{-90, 21}";
target = up;
type = BottomGhost;
},
{
horizontal = 1;
place = "{-10, 85}";
type = Stem;
},
{
horizontal = 1;
place = "{453, 85}";
type = Stem;
},
{
horizontal = 1;
place = "{656, -20}";
target = down;
type = TopGhost;
},
{
place = "{26, 87}";
type = Stem;
},
{
place = "{442, 87}";
type = Stem;
}
);
layerId = "9382C8E1-E850-40EA-B00A-FA5C7367EA84";
paths = (
{
closed = 1;
nodes = (
"574 652 LINE",
"487 652 LINE",
"404 509 LINE",
"373 522 OFFCURVE",
"338 530 OFFCURVE",
"299 530 CURVE SMOOTH",
"145 530 OFFCURVE",
"49 408 OFFCURVE",
"49 258 CURVE SMOOTH",
"49 173 OFFCURVE",
"80 96 OFFCURVE",
"135 46 CURVE",
"54 -94 LINE",
"141 -94 LINE",
"199 6 LINE",
"229 -7 OFFCURVE",
"262 -14 OFFCURVE",
"299 -14 CURVE SMOOTH",
"454 -14 OFFCURVE",
"548 108 OFFCURVE",
"548 258 CURVE SMOOTH",
"548 342 OFFCURVE",
"519 417 OFFCURVE",
"467 467 CURVE"
);
},
{
closed = 1;
nodes = (
"132 366 OFFCURVE",
"192 459 OFFCURVE",
"299 459 CURVE SMOOTH",
"324 459 OFFCURVE",
"347 454 OFFCURVE",
"367 445 CURVE",
"176 117 LINE",
"148 154 OFFCURVE",
"132 204 OFFCURVE",
"132 258 CURVE SMOOTH"
);
},
{
closed = 1;
nodes = (
"276 58 OFFCURVE",
"255 62 OFFCURVE",
"236 70 CURVE",
"426 396 LINE",
"452 360 OFFCURVE",
"466 311 OFFCURVE",
"466 258 CURVE SMOOTH",
"466 151 OFFCURVE",
"406 58 OFFCURVE",
"299 58 CURVE SMOOTH"
);
}
);
width = 623;
}
);
leftKerningGroup = o;
leftMetricsKey = o;
widthMetricsKey = o;
note = oslash;
rightKerningGroup = o;
rightMetricsKey = o;
unicode = 00F8;
},
{
glyphname = otilde;
lastChange = "2024-06-23 12:38:49 +0000";
layers = (
{
hints = (
{
horizontal = 1;
place = "{-10, 85}";
type = Stem;
},
{
horizontal = 1;
place = "{453, 85}";
type = Stem;
},
{
place = "{26, 87}";
type = Stem;
},
{
place = "{442, 87}";
type = Stem;
}
);
layerId = "9382C8E1-E850-40EA-B00A-FA5C7367EA84";
paths = (
{
closed = 1;
nodes = (
"454 -14 OFFCURVE",
"548 108 OFFCURVE",
"548 258 CURVE SMOOTH",
"548 408 OFFCURVE",
"456 530 OFFCURVE",
"299 530 CURVE SMOOTH",
"145 530 OFFCURVE",
"49 408 OFFCURVE",
"49 258 CURVE SMOOTH",
"49 108 OFFCURVE",
"145 -14 OFFCURVE",
"299 -14 CURVE SMOOTH"
);
},
{
closed = 1;
nodes = (
"132 366 OFFCURVE",
"192 459 OFFCURVE",
"299 459 CURVE SMOOTH",
"409 459 OFFCURVE",
"466 366 OFFCURVE",
"466 258 CURVE SMOOTH",
"466 151 OFFCURVE",
"406 58 OFFCURVE",
"299 58 CURVE SMOOTH",
"193 58 OFFCURVE",
"132 151 OFFCURVE",
"132 258 CURVE SMOOTH"
);
}
);
width = 597;
}
);
leftKerningGroup = o;
leftMetricsKey = o;
widthMetricsKey = o;
note = otilde;
rightKerningGroup = o;
rightMetricsKey = o;
unicode = 00F5;
},
{
glyphname = oe;
lastChange = "2024-06-23 12:38:56 +0000";
layers = (
{
hints = (
{
horizontal = 1;
place = "{-10, 85}";
type = Stem;
},
{
horizontal = 1;
place = "{453, 85}";
type = Stem;
},
{
place = "{26, 87}";
type = Stem;
},
{
place = "{442, 87}";
type = Stem;
}
);
layerId = "9382C8E1-E850-40EA-B00A-FA5C7367EA84";
paths = (
{
closed = 1;
nodes = (
"839 -14 OFFCURVE",
"912 62 OFFCURVE",
"937 161 CURVE",
"856 160 LINE",
"840 105 OFFCURVE",
"796 53 OFFCURVE",
"717 53 CURVE SMOOTH",
"607 53 OFFCURVE",
"553 142 OFFCURVE",
"548 244 CURVE",
"568 243 OFFCURVE",
"614 242 OFFCURVE",
"655 242 CURVE SMOOTH",
"948 242 LINE",
"948 258 LINE SMOOTH",
"948 408 OFFCURVE",
"874 530 OFFCURVE",
"717 530 CURVE SMOOTH",
"623 530 OFFCURVE",
"545 484 OFFCURVE",
"508 374 CURVE",
"472 484 OFFCURVE",
"395 530 OFFCURVE",
"299 530 CURVE SMOOTH",
"145 530 OFFCURVE",
"49 408 OFFCURVE",
"49 258 CURVE SMOOTH",
"49 108 OFFCURVE",
"145 -14 OFFCURVE",
"299 -14 CURVE SMOOTH",
"394 -14 OFFCURVE",
"471 32 OFFCURVE",
"508 142 CURVE",
"545 32 OFFCURVE",
"623 -14 OFFCURVE",
"717 -14 CURVE SMOOTH"
);
},
{
closed = 1;
nodes = (
"566 394 OFFCURVE",
"607 464 OFFCURVE",
"718 464 CURVE SMOOTH",
"805 464 OFFCURVE",
"855 395 OFFCURVE",
"865 307 CURVE",
"655 307 LINE SMOOTH",
"616 307 OFFCURVE",
"573 306 OFFCURVE",
"552 305 CURVE"
);
},
{
closed = 1;
nodes = (
"132 366 OFFCURVE",
"192 459 OFFCURVE",
"299 459 CURVE SMOOTH",
"409 459 OFFCURVE",
"466 366 OFFCURVE",
"466 258 CURVE SMOOTH",
"466 151 OFFCURVE",
"406 58 OFFCURVE",
"299 58 CURVE SMOOTH",
"193 58 OFFCURVE",
"132 151 OFFCURVE",
"132 258 CURVE SMOOTH"
);
}
);
width = 997;
}
);
leftKerningGroup = e;
leftMetricsKey = o;
note = oe;
rightKerningGroup = e;
rightMetricsKey = o;
unicode = 0153;
},
{
glyphname = p;
lastChange = "2024-06-23 12:44:50 +0000";
layers = (
{
hints = (
{
horizontal = 1;
place = "{-162, 21}";
target = up;
type = BottomGhost;
},
{
horizontal = 1;
place = "{-11, 73}";
type = Stem;
},
{
horizontal = 1;
place = "{521, -20}";
target = down;
type = TopGhost;
},
{
place = "{81, 85}";
type = Stem;
},
{
place = "{465, 86}";
type = Stem;
}
);
layerId = "9382C8E1-E850-40EA-B00A-FA5C7367EA84";
paths = (
{
closed = 1;
nodes = (
"166 -166 LINE",
"166 80 LINE",
"188 34 OFFCURVE",
"254 -15 OFFCURVE",
"343 -15 CURVE SMOOTH",
"454 -15 OFFCURVE",
"551 87 OFFCURVE",
"551 257 CURVE SMOOTH",
"551 428 OFFCURVE",
"453 530 OFFCURVE",
"343 530 CURVE SMOOTH",
"254 530 OFFCURVE",
"188 481 OFFCURVE",
"166 435 CURVE",
"166 517 LINE",
"85 517 LINE",
"85 -166 LINE"
);
},
{
closed = 1;
nodes = (
"166 370 OFFCURVE",
"219 460 OFFCURVE",
"318 460 CURVE SMOOTH",
"397 460 OFFCURVE",
"469 390 OFFCURVE",
"469 258 CURVE SMOOTH",
"469 124 OFFCURVE",
"396 54 OFFCURVE",
"318 54 CURVE SMOOTH",
"219 54 OFFCURVE",
"166 144 OFFCURVE",
"166 258 CURVE SMOOTH"
);
}
);
width = 600;
}
);
leftKerningGroup = n;
leftMetricsKey = n;
note = p;
rightKerningGroup = o;
rightMetricsKey = o;
unicode = 0070;
},
{
glyphname = thorn;
lastChange = "2024-06-23 12:44:50 +0000";
layers = (
{
hints = (
{
horizontal = 1;
place = "{-162, 21}";
target = up;
type = BottomGhost;
},
{
horizontal = 1;
place = "{-11, 73}";
type = Stem;
},
{
horizontal = 1;
place = "{464, 74}";
type = Stem;
},
{
horizontal = 1;
place = "{720, -20}";
target = down;
type = TopGhost;
},
{
place = "{81, 85}";
type = Stem;
},
{
place = "{465, 86}";
type = Stem;
}
);
layerId = "9382C8E1-E850-40EA-B00A-FA5C7367EA84";
paths = (
{
closed = 1;
nodes = (
"166 -166 LINE",
"166 80 LINE",
"188 34 OFFCURVE",
"254 -15 OFFCURVE",
"343 -15 CURVE SMOOTH",
"454 -15 OFFCURVE",
"551 87 OFFCURVE",
"551 257 CURVE SMOOTH",
"551 428 OFFCURVE",
"453 530 OFFCURVE",
"343 530 CURVE SMOOTH",
"254 530 OFFCURVE",
"188 481 OFFCURVE",
"166 435 CURVE",
"166 716 LINE",
"85 716 LINE",
"85 -166 LINE"
);
},
{
closed = 1;
nodes = (
"166 370 OFFCURVE",
"219 460 OFFCURVE",
"318 460 CURVE SMOOTH",
"397 460 OFFCURVE",
"469 390 OFFCURVE",
"469 258 CURVE SMOOTH",
"469 124 OFFCURVE",
"396 54 OFFCURVE",
"318 54 CURVE SMOOTH",
"219 54 OFFCURVE",
"166 144 OFFCURVE",
"166 258 CURVE SMOOTH"
);
}
);
width = 600;
}
);
leftKerningGroup = p;
leftMetricsKey = p;
widthMetricsKey = p;
note = thorn;
rightKerningGroup = p;
rightMetricsKey = p;
unicode = 00FE;
},
{
glyphname = q;
lastChange = "2024-06-23 10:44:54 +0000";
layers = (
{
hints = (
{
horizontal = 1;
place = "{-162, 21}";
target = up;
type = BottomGhost;
},
{
horizontal = 1;
place = "{-11, 73}";
type = Stem;
},
{
horizontal = 1;
place = "{521, -20}";
target = down;
type = TopGhost;
},
{
place = "{47, 86}";
type = Stem;
},
{
place = "{432, 85}";
type = Stem;
}
);
layerId = "9382C8E1-E850-40EA-B00A-FA5C7367EA84";
paths = (
{
closed = 1;
nodes = (
"513 -166 LINE",
"513 517 LINE",
"432 517 LINE",
"432 435 LINE",
"410 481 OFFCURVE",
"344 530 OFFCURVE",
"255 530 CURVE SMOOTH",
"145 530 OFFCURVE",
"47 428 OFFCURVE",
"47 257 CURVE SMOOTH",
"47 87 OFFCURVE",
"144 -15 OFFCURVE",
"255 -15 CURVE SMOOTH",
"344 -15 OFFCURVE",
"410 34 OFFCURVE",
"432 80 CURVE",
"432 -166 LINE"
);
},
{
closed = 1;
nodes = (
"129 390 OFFCURVE",
"201 460 OFFCURVE",
"280 460 CURVE SMOOTH",
"379 460 OFFCURVE",
"432 370 OFFCURVE",
"432 258 CURVE SMOOTH",
"432 144 OFFCURVE",
"379 54 OFFCURVE",
"280 54 CURVE SMOOTH",
"202 54 OFFCURVE",
"129 124 OFFCURVE",
"129 258 CURVE SMOOTH"
);
}
);
width = 594;
}
);
note = q;
unicode = 0071;
},
{
glyphname = r;
lastChange = "2024-06-23 13:51:54 +0000";
layers = (
{
hints = (
{
horizontal = 1;
place = "{4, 21}";
target = up;
type = BottomGhost;
},
{
horizontal = 1;
place = "{465, 74}";
type = Stem;
},
{
place = "{81, 85}";
type = Stem;
}
);
layerId = "9382C8E1-E850-40EA-B00A-FA5C7367EA84";
paths = (
{
closed = 1;
nodes = (
"342 531 LINE",
"254 531 OFFCURVE",
"187 479 OFFCURVE",
"166 445 CURVE",
"166 517 LINE",
"85 517 LINE",
"85 0 LINE",
"166 0 LINE",
"166 333 LINE SMOOTH",
"166 389 OFFCURVE",
"224 461 OFFCURVE",
"342 461 CURVE"
);
}
);
width = 379;
}
);
leftKerningGroup = h;
leftMetricsKey = n;
note = r;
rightKerningGroup = f;
rightMetricsKey = f;
unicode = 0072;
},
{
glyphname = s;
lastChange = "2024-06-23 13:53:28 +0000";
layers = (
{
hints = (
{
horizontal = 1;
place = "{-11, 549}";
type = Stem;
},
{
place = "{59, 429}";
type = Stem;
}
);
layerId = "9382C8E1-E850-40EA-B00A-FA5C7367EA84";
paths = (
{
closed = 1;
nodes = (
"144 147 LINE",
"150 83 OFFCURVE",
"203 55 OFFCURVE",
"269 55 CURVE SMOOTH",
"349 55 OFFCURVE",
"403 85 OFFCURVE",
"403 141 CURVE SMOOTH",
"404 181 OFFCURVE",
"378 207 OFFCURVE",
"267 231 CURVE SMOOTH",
"163 253 OFFCURVE",
"70 281 OFFCURVE",
"70 390 CURVE SMOOTH",
"70 473 OFFCURVE",
"151 530 OFFCURVE",
"271 530 CURVE SMOOTH",
"391 530 OFFCURVE",
"466 457 OFFCURVE",
"476 368 CURVE",
"392 368 LINE",
"386 432 OFFCURVE",
"334 460 OFFCURVE",
"268 460 CURVE SMOOTH",
"202 460 OFFCURVE",
"152 434 OFFCURVE",
"152 390 CURVE SMOOTH",
"152 338 OFFCURVE",
"202 325 OFFCURVE",
"294 301 CURVE SMOOTH",
"403 276 OFFCURVE",
"485 254 OFFCURVE",
"485 142 CURVE SMOOTH",
"485 51 OFFCURVE",
"401 -15 OFFCURVE",
"266 -15 CURVE SMOOTH",
"146 -15 OFFCURVE",
"70 58 OFFCURVE",
"60 147 CURVE"
);
}
);
width = 545;
}
);
leftKerningGroup = s;
note = s;
unicode = 0073;
},
{
glyphname = germandbls;
lastChange = "2024-06-23 12:39:12 +0000";
layers = (
{
hints = (
{
horizontal = 1;
place = "{4, 21}";
target = up;
type = BottomGhost;
},
{
horizontal = 1;
place = "{349, 75}";
type = Stem;
},
{
horizontal = 1;
place = "{660, 79}";
type = Stem;
},
{
place = "{79, 89}";
type = Stem;
},
{
place = "{449, 90}";
type = Stem;
},
{
place = "{413, 90}";
type = Stem;
}
);
layerId = "9382C8E1-E850-40EA-B00A-FA5C7367EA84";
paths = (
{
closed = 1;
nodes = (
"164 0 LINE",
"164 528 LINE SMOOTH",
"164 596 OFFCURVE",
"215 656 OFFCURVE",
"284 656 CURVE SMOOTH",
"365 656 OFFCURVE",
"413 603 OFFCURVE",
"413 537 CURVE SMOOTH",
"413 471 OFFCURVE",
"363 416 OFFCURVE",
"270 416 CURVE SMOOTH",
"264 416 LINE",
"264 345 LINE",
"287 345 LINE SMOOTH",
"389 345 OFFCURVE",
"449 277 OFFCURVE",
"449 201 CURVE SMOOTH",
"449 124 OFFCURVE",
"401 62 OFFCURVE",
"316 62 CURVE SMOOTH",
"269 62 OFFCURVE",
"257 68 OFFCURVE",
"257 68 CURVE",
"257 -9 LINE",
"257 -9 OFFCURVE",
"277 -15 OFFCURVE",
"330 -15 CURVE SMOOTH",
"461 -15 OFFCURVE",
"535 82 OFFCURVE",
"535 201 CURVE SMOOTH",
"535 294 OFFCURVE",
"480 359 OFFCURVE",
"393 383 CURVE",
"460 408 OFFCURVE",
"499 463 OFFCURVE",
"499 537 CURVE SMOOTH",
"499 644 OFFCURVE",
"412 731 OFFCURVE",
"284 731 CURVE SMOOTH",
"155 731 OFFCURVE",
"79 637 OFFCURVE",
"79 533 CURVE SMOOTH",
"80 0 LINE"
);
}
);
width = 575;
}
);
leftKerningGroup = B;
leftMetricsKey = B;
note = germandbls;
rightKerningGroup = B;
rightMetricsKey = B;
unicode = 00DF;
},
{
glyphname = t;
lastChange = "2024-06-23 10:44:54 +0000";
layers = (
{
hints = (
{
horizontal = 1;
place = "{1, 663}";
type = Stem;
},
{
place = "{36, 300}";
type = Stem;
}
);
layerId = "9382C8E1-E850-40EA-B00A-FA5C7367EA84";
paths = (
{
closed = 1;
nodes = (
"128 451 LINE",
"128 451 OFFCURVE",
"99 450 OFFCURVE",
"84 450 CURVE SMOOTH",
"36 450 LINE",
"36 517 LINE",
"84 517 LINE SMOOTH",
"99 517 OFFCURVE",
"129 516 OFFCURVE",
"129 516 CURVE",
"128 632 LINE",
"128 656 LINE",
"209 656 LINE",
"209 632 LINE",
"208 516 LINE",
"208 516 OFFCURVE",
"236 517 OFFCURVE",
"251 517 CURVE SMOOTH",
"332 517 LINE",
"332 450 LINE",
"251 450 LINE SMOOTH",
"236 450 OFFCURVE",
"209 451 OFFCURVE",
"209 451 CURVE",
"209 131 LINE SMOOTH",
"209 78 OFFCURVE",
"226 67 OFFCURVE",
"253 67 CURVE SMOOTH",
"293 67 OFFCURVE",
"329 74 OFFCURVE",
"329 74 CURVE",
"329 7 LINE",
"329 7 OFFCURVE",
"316 -3 OFFCURVE",
"245 -3 CURVE SMOOTH",
"178 -3 OFFCURVE",
"131 21 OFFCURVE",
"128 91 CURVE"
);
}
);
width = 382;
}
);
leftKerningGroup = f;
note = t;
rightKerningGroup = f;
rightMetricsKey = "=f+13";
unicode = 0074;
},
{
glyphname = u;
lastChange = "2024-06-23 13:46:17 +0000";
layers = (
{
hints = (
{
horizontal = 1;
place = "{4, 60}";
type = Stem;
},
{
horizontal = 1;
place = "{521, -20}";
target = down;
type = TopGhost;
},
{
place = "{81, 85}";
type = Stem;
},
{
place = "{412, 85}";
type = Stem;
}
);
layerId = "9382C8E1-E850-40EA-B00A-FA5C7367EA84";
paths = (
{
closed = 1;
nodes = (
"345 -14 OFFCURVE",
"395 35 OFFCURVE",
"416 69 CURVE",
"416 0 LINE",
"497 0 LINE",
"497 517 LINE",
"416 517 LINE",
"416 175 LINE SMOOTH",
"416 119 OFFCURVE",
"355 56 OFFCURVE",
"287 56 CURVE SMOOTH",
"206 56 OFFCURVE",
"166 91 OFFCURVE",
"166 189 CURVE SMOOTH",
"166 517 LINE",
"85 517 LINE",
"85 164 LINE SMOOTH",
"85 46 OFFCURVE",
"159 -14 OFFCURVE",
"262 -14 CURVE SMOOTH"
);
}
);
width = 582;
}
);
leftKerningGroup = n;
leftMetricsKey = n;
note = u;
rightKerningGroup = n;
rightMetricsKey = n;
unicode = 0075;
},
{
glyphname = uacute;
lastChange = "2024-06-23 12:44:50 +0000";
layers = (
{
hints = (
{
horizontal = 1;
place = "{4, 60}";
type = Stem;
},
{
horizontal = 1;
place = "{521, -20}";
target = down;
type = TopGhost;
},
{
horizontal = 1;
place = "{621, 103}";
type = Stem;
},
{
place = "{81, 85}";
type = Stem;
},
{
place = "{412, 85}";
type = Stem;
}
);
layerId = "9382C8E1-E850-40EA-B00A-FA5C7367EA84";
paths = (
{
closed = 1;
nodes = (
"276 650 LINE SMOOTH",
"311 683 OFFCURVE",
"340 716 OFFCURVE",
"340 716 CURVE SMOOTH",
"260 716 LINE SMOOTH",
"260 716 OFFCURVE",
"220 683 OFFCURVE",
"186 650 CURVE SMOOTH",
"152 617 LINE",
"243 617 LINE"
);
},
{
closed = 1;
nodes = (
"345 -14 OFFCURVE",
"395 35 OFFCURVE",
"416 69 CURVE",
"416 0 LINE",
"497 0 LINE",
"497 517 LINE",
"416 517 LINE",
"416 175 LINE SMOOTH",
"416 119 OFFCURVE",
"355 56 OFFCURVE",
"287 56 CURVE SMOOTH",
"206 56 OFFCURVE",
"166 91 OFFCURVE",
"166 189 CURVE SMOOTH",
"166 517 LINE",
"85 517 LINE",
"85 164 LINE SMOOTH",
"85 46 OFFCURVE",
"159 -14 OFFCURVE",
"262 -14 CURVE SMOOTH"
);
}
);
width = 582;
}
);
leftKerningGroup = u;
leftMetricsKey = u;
widthMetricsKey = u;
note = uacute;
rightKerningGroup = u;
rightMetricsKey = u;
unicode = 00FA;
},
{
glyphname = ucircumflex;
lastChange = "2024-06-23 12:44:50 +0000";
layers = (
{
hints = (
{
horizontal = 1;
place = "{4, 60}";
type = Stem;
},
{
horizontal = 1;
place = "{521, -20}";
target = down;
type = TopGhost;
},
{
horizontal = 1;
place = "{621, 103}";
type = Stem;
},
{
place = "{81, 85}";
type = Stem;
},
{
place = "{412, 85}";
type = Stem;
}
);
layerId = "9382C8E1-E850-40EA-B00A-FA5C7367EA84";
paths = (
{
closed = 1;
nodes = (
"245 716 LINE",
"183 617 LINE",
"245 617 LINE",
"287 682 LINE",
"328 617 LINE",
"391 617 LINE",
"328 716 LINE"
);
},
{
closed = 1;
nodes = (
"345 -14 OFFCURVE",
"395 35 OFFCURVE",
"416 69 CURVE",
"416 0 LINE",
"497 0 LINE",
"497 517 LINE",
"416 517 LINE",
"416 175 LINE SMOOTH",
"416 119 OFFCURVE",
"355 56 OFFCURVE",
"287 56 CURVE SMOOTH",
"206 56 OFFCURVE",
"166 91 OFFCURVE",
"166 189 CURVE SMOOTH",
"166 517 LINE",
"85 517 LINE",
"85 164 LINE SMOOTH",
"85 46 OFFCURVE",
"159 -14 OFFCURVE",
"262 -14 CURVE SMOOTH"
);
}
);
width = 582;
}
);
leftKerningGroup = u;
leftMetricsKey = u;
widthMetricsKey = u;
note = ucircumflex;
rightKerningGroup = u;
rightMetricsKey = u;
unicode = 00FB;
},
{
glyphname = udieresis;
lastChange = "2024-06-23 12:44:50 +0000";
layers = (
{
hints = (
{
horizontal = 1;
place = "{4, 60}";
type = Stem;
},
{
horizontal = 1;
place = "{521, -20}";
target = down;
type = TopGhost;
},
{
horizontal = 1;
place = "{619, 106}";
type = Stem;
},
{
place = "{129, 108}";
type = Stem;
},
{
place = "{412, 85}";
type = Stem;
},
{
place = "{81, 85}";
type = Stem;
},
{
place = "{323, 108}";
type = Stem;
}
);
layerId = "9382C8E1-E850-40EA-B00A-FA5C7367EA84";
paths = (
{
closed = 1;
nodes = (
"133 637 OFFCURVE",
"155 615 OFFCURVE",
"185 615 CURVE SMOOTH",
"215 615 OFFCURVE",
"237 637 OFFCURVE",
"237 666 CURVE SMOOTH",
"237 695 OFFCURVE",
"215 717 OFFCURVE",
"185 717 CURVE SMOOTH",
"155 717 OFFCURVE",
"133 695 OFFCURVE",
"133 666 CURVE SMOOTH"
);
},
{
closed = 1;
nodes = (
"327 637 OFFCURVE",
"349 615 OFFCURVE",
"379 615 CURVE SMOOTH",
"409 615 OFFCURVE",
"431 637 OFFCURVE",
"431 666 CURVE SMOOTH",
"431 695 OFFCURVE",
"409 717 OFFCURVE",
"379 717 CURVE SMOOTH",
"349 717 OFFCURVE",
"327 695 OFFCURVE",
"327 666 CURVE SMOOTH"
);
},
{
closed = 1;
nodes = (
"345 -14 OFFCURVE",
"395 35 OFFCURVE",
"416 69 CURVE",
"416 0 LINE",
"497 0 LINE",
"497 517 LINE",
"416 517 LINE",
"416 175 LINE SMOOTH",
"416 119 OFFCURVE",
"355 56 OFFCURVE",
"287 56 CURVE SMOOTH",
"206 56 OFFCURVE",
"166 91 OFFCURVE",
"166 189 CURVE SMOOTH",
"166 517 LINE",
"85 517 LINE",
"85 164 LINE SMOOTH",
"85 46 OFFCURVE",
"159 -14 OFFCURVE",
"262 -14 CURVE SMOOTH"
);
}
);
width = 582;
}
);
leftKerningGroup = u;
leftMetricsKey = u;
widthMetricsKey = u;
note = udieresis;
rightKerningGroup = u;
rightMetricsKey = u;
unicode = 00FC;
},
{
glyphname = ugrave;
lastChange = "2024-06-23 12:44:50 +0000";
layers = (
{
hints = (
{
horizontal = 1;
place = "{4, 60}";
type = Stem;
},
{
horizontal = 1;
place = "{521, -20}";
target = down;
type = TopGhost;
},
{
horizontal = 1;
place = "{621, 103}";
type = Stem;
},
{
place = "{81, 85}";
type = Stem;
},
{
place = "{412, 85}";
type = Stem;
}
);
layerId = "9382C8E1-E850-40EA-B00A-FA5C7367EA84";
paths = (
{
closed = 1;
nodes = (
"245 650 LINE",
"278 617 LINE",
"369 617 LINE",
"335 650 LINE SMOOTH",
"301 683 OFFCURVE",
"261 716 OFFCURVE",
"261 716 CURVE SMOOTH",
"181 716 LINE"
);
},
{
closed = 1;
nodes = (
"345 -14 OFFCURVE",
"395 35 OFFCURVE",
"416 69 CURVE",
"416 0 LINE",
"497 0 LINE",
"497 517 LINE",
"416 517 LINE",
"416 175 LINE SMOOTH",
"416 119 OFFCURVE",
"355 56 OFFCURVE",
"287 56 CURVE SMOOTH",
"206 56 OFFCURVE",
"166 91 OFFCURVE",
"166 189 CURVE SMOOTH",
"166 517 LINE",
"85 517 LINE",
"85 164 LINE SMOOTH",
"85 46 OFFCURVE",
"159 -14 OFFCURVE",
"262 -14 CURVE SMOOTH"
);
}
);
width = 582;
}
);
leftKerningGroup = u;
leftMetricsKey = u;
widthMetricsKey = u;
note = ugrave;
rightKerningGroup = u;
rightMetricsKey = u;
unicode = 00F9;
},
{
glyphname = v;
lastChange = "2024-06-23 15:55:16 +0000";
layers = (
{
hints = (
{
horizontal = 1;
place = "{6, 85}";
type = Stem;
}
);
layerId = "9382C8E1-E850-40EA-B00A-FA5C7367EA84";
paths = (
{
closed = 1;
nodes = (
"292 2 LINE",
"473 517 LINE",
"388 517 LINE SMOOTH",
"388 517 OFFCURVE",
"319 312 OFFCURVE",
"288 209 CURVE SMOOTH",
"249 81 LINE",
"209 211 LINE SMOOTH",
"177 315 OFFCURVE",
"111 517 OFFCURVE",
"111 517 CURVE SMOOTH",
"26 517 LINE",
"206 2 LINE"
);
}
);
width = 499;
}
);
leftKerningGroup = v;
note = v;
rightKerningGroup = v;
unicode = 0076;
},
{
glyphname = w;
lastChange = "2024-06-23 12:44:50 +0000";
layers = (
{
hints = (
{
horizontal = 1;
place = "{4, 85}";
type = Stem;
},
{
horizontal = 1;
place = "{440, 85}";
type = Stem;
}
);
layerId = "9382C8E1-E850-40EA-B00A-FA5C7367EA84";
paths = (
{
closed = 1;
nodes = (
"276 0 LINE",
"404 436 LINE",
"531 0 LINE",
"617 0 LINE",
"788 517 LINE",
"703 517 LINE SMOOTH",
"703 517 OFFCURVE",
"637 311 OFFCURVE",
"609 208 CURVE SMOOTH",
"598 165 OFFCURVE",
"575 80 OFFCURVE",
"575 80 CURVE SMOOTH",
"575 80 OFFCURVE",
"549 163 OFFCURVE",
"538 206 CURVE SMOOTH",
"510 313 OFFCURVE",
"446 517 OFFCURVE",
"446 517 CURVE SMOOTH",
"361 517 LINE SMOOTH",
"361 517 OFFCURVE",
"295 312 OFFCURVE",
"268 208 CURVE SMOOTH",
"257 165 OFFCURVE",
"233 80 OFFCURVE",
"233 80 CURVE SMOOTH",
"233 80 OFFCURVE",
"210 166 OFFCURVE",
"197 210 CURVE SMOOTH",
"168 314 OFFCURVE",
"105 517 OFFCURVE",
"105 517 CURVE SMOOTH",
"20 517 LINE",
"190 0 LINE"
);
}
);
width = 808;
}
);
leftKerningGroup = v;
leftMetricsKey = v;
note = w;
rightKerningGroup = v;
rightMetricsKey = v;
unicode = 0077;
},
{
glyphname = wacute;
lastChange = "2024-06-23 12:44:50 +0000";
layers = (
{
hints = (
{
horizontal = 1;
place = "{4, 85}";
type = Stem;
},
{
horizontal = 1;
place = "{440, 85}";
type = Stem;
},
{
horizontal = 1;
place = "{621, 103}";
type = Stem;
},
{
place = "{301, 192}";
type = Stem;
}
);
layerId = "9382C8E1-E850-40EA-B00A-FA5C7367EA84";
paths = (
{
closed = 1;
nodes = (
"416 650 LINE SMOOTH",
"451 683 OFFCURVE",
"480 716 OFFCURVE",
"480 716 CURVE SMOOTH",
"400 716 LINE SMOOTH",
"400 716 OFFCURVE",
"360 683 OFFCURVE",
"326 650 CURVE SMOOTH",
"292 617 LINE",
"383 617 LINE"
);
},
{
closed = 1;
nodes = (
"276 0 LINE",
"404 436 LINE",
"531 0 LINE",
"617 0 LINE",
"788 517 LINE",
"703 517 LINE SMOOTH",
"703 517 OFFCURVE",
"637 311 OFFCURVE",
"609 208 CURVE SMOOTH",
"598 165 OFFCURVE",
"575 80 OFFCURVE",
"575 80 CURVE SMOOTH",
"575 80 OFFCURVE",
"549 163 OFFCURVE",
"538 206 CURVE SMOOTH",
"510 313 OFFCURVE",
"446 517 OFFCURVE",
"446 517 CURVE SMOOTH",
"361 517 LINE SMOOTH",
"361 517 OFFCURVE",
"295 312 OFFCURVE",
"268 208 CURVE SMOOTH",
"257 165 OFFCURVE",
"233 80 OFFCURVE",
"233 80 CURVE SMOOTH",
"233 80 OFFCURVE",
"210 166 OFFCURVE",
"197 210 CURVE SMOOTH",
"168 314 OFFCURVE",
"105 517 OFFCURVE",
"105 517 CURVE SMOOTH",
"20 517 LINE",
"190 0 LINE"
);
}
);
width = 808;
}
);
leftKerningGroup = w;
leftMetricsKey = w;
note = wacute;
rightKerningGroup = w;
rightMetricsKey = w;
unicode = 1E83;
},
{
glyphname = wcircumflex;
lastChange = "2024-06-23 12:44:50 +0000";
layers = (
{
hints = (
{
horizontal = 1;
place = "{4, 85}";
type = Stem;
},
{
horizontal = 1;
place = "{440, 85}";
type = Stem;
},
{
horizontal = 1;
place = "{686, 38}";
type = Stem;
},
{
place = "{296, 212}";
type = Stem;
}
);
layerId = "9382C8E1-E850-40EA-B00A-FA5C7367EA84";
paths = (
{
closed = 1;
nodes = (
"287 617 LINE",
"349 617 LINE",
"391 682 LINE",
"432 617 LINE",
"495 617 LINE",
"432 716 LINE",
"349 716 LINE"
);
},
{
closed = 1;
nodes = (
"276 0 LINE",
"404 436 LINE",
"531 0 LINE",
"617 0 LINE",
"788 517 LINE",
"703 517 LINE SMOOTH",
"703 517 OFFCURVE",
"637 311 OFFCURVE",
"609 208 CURVE SMOOTH",
"598 165 OFFCURVE",
"575 80 OFFCURVE",
"575 80 CURVE SMOOTH",
"575 80 OFFCURVE",
"549 163 OFFCURVE",
"538 206 CURVE SMOOTH",
"510 313 OFFCURVE",
"446 517 OFFCURVE",
"446 517 CURVE SMOOTH",
"361 517 LINE SMOOTH",
"361 517 OFFCURVE",
"295 312 OFFCURVE",
"268 208 CURVE SMOOTH",
"257 165 OFFCURVE",
"233 80 OFFCURVE",
"233 80 CURVE SMOOTH",
"233 80 OFFCURVE",
"210 166 OFFCURVE",
"197 210 CURVE SMOOTH",
"168 314 OFFCURVE",
"105 517 OFFCURVE",
"105 517 CURVE SMOOTH",
"20 517 LINE",
"190 0 LINE"
);
}
);
width = 808;
}
);
leftKerningGroup = w;
leftMetricsKey = w;
note = wcircumflex;
rightKerningGroup = w;
rightMetricsKey = w;
unicode = 0175;
},
{
glyphname = wdieresis;
lastChange = "2024-06-23 12:44:50 +0000";
layers = (
{
hints = (
{
horizontal = 1;
place = "{4, 85}";
type = Stem;
},
{
horizontal = 1;
place = "{440, 85}";
type = Stem;
},
{
horizontal = 1;
place = "{634, 106}";
type = Stem;
},
{
place = "{262, 108}";
type = Stem;
},
{
place = "{456, 108}";
type = Stem;
}
);
layerId = "9382C8E1-E850-40EA-B00A-FA5C7367EA84";
paths = (
{
closed = 1;
nodes = (
"253 652 OFFCURVE",
"275 630 OFFCURVE",
"305 630 CURVE SMOOTH",
"335 630 OFFCURVE",
"357 652 OFFCURVE",
"357 681 CURVE SMOOTH",
"357 710 OFFCURVE",
"335 732 OFFCURVE",
"305 732 CURVE SMOOTH",
"275 732 OFFCURVE",
"253 710 OFFCURVE",
"253 681 CURVE SMOOTH"
);
},
{
closed = 1;
nodes = (
"447 652 OFFCURVE",
"469 630 OFFCURVE",
"499 630 CURVE SMOOTH",
"529 630 OFFCURVE",
"551 652 OFFCURVE",
"551 681 CURVE SMOOTH",
"551 710 OFFCURVE",
"529 732 OFFCURVE",
"499 732 CURVE SMOOTH",
"469 732 OFFCURVE",
"447 710 OFFCURVE",
"447 681 CURVE SMOOTH"
);
},
{
closed = 1;
nodes = (
"276 0 LINE",
"404 436 LINE",
"531 0 LINE",
"617 0 LINE",
"788 517 LINE",
"703 517 LINE SMOOTH",
"703 517 OFFCURVE",
"637 311 OFFCURVE",
"609 208 CURVE SMOOTH",
"598 165 OFFCURVE",
"575 80 OFFCURVE",
"575 80 CURVE SMOOTH",
"575 80 OFFCURVE",
"549 163 OFFCURVE",
"538 206 CURVE SMOOTH",
"510 313 OFFCURVE",
"446 517 OFFCURVE",
"446 517 CURVE SMOOTH",
"361 517 LINE SMOOTH",
"361 517 OFFCURVE",
"295 312 OFFCURVE",
"268 208 CURVE SMOOTH",
"257 165 OFFCURVE",
"233 80 OFFCURVE",
"233 80 CURVE SMOOTH",
"233 80 OFFCURVE",
"210 166 OFFCURVE",
"197 210 CURVE SMOOTH",
"168 314 OFFCURVE",
"105 517 OFFCURVE",
"105 517 CURVE SMOOTH",
"20 517 LINE",
"190 0 LINE"
);
}
);
width = 808;
}
);
leftKerningGroup = w;
leftMetricsKey = w;
note = wdieresis;
rightKerningGroup = w;
rightMetricsKey = w;
unicode = 1E85;
},
{
glyphname = wgrave;
lastChange = "2024-06-23 12:44:50 +0000";
layers = (
{
hints = (
{
horizontal = 1;
place = "{4, 85}";
type = Stem;
},
{
horizontal = 1;
place = "{440, 85}";
type = Stem;
},
{
horizontal = 1;
place = "{621, 103}";
type = Stem;
},
{
place = "{322, 192}";
type = Stem;
}
);
layerId = "9382C8E1-E850-40EA-B00A-FA5C7367EA84";
paths = (
{
closed = 1;
nodes = (
"377 650 LINE",
"410 617 LINE",
"501 617 LINE",
"467 650 LINE SMOOTH",
"433 683 OFFCURVE",
"393 716 OFFCURVE",
"393 716 CURVE SMOOTH",
"313 716 LINE"
);
},
{
closed = 1;
nodes = (
"276 0 LINE",
"404 436 LINE",
"531 0 LINE",
"617 0 LINE",
"788 517 LINE",
"703 517 LINE SMOOTH",
"703 517 OFFCURVE",
"637 311 OFFCURVE",
"609 208 CURVE SMOOTH",
"598 165 OFFCURVE",
"575 80 OFFCURVE",
"575 80 CURVE SMOOTH",
"575 80 OFFCURVE",
"549 163 OFFCURVE",
"538 206 CURVE SMOOTH",
"510 313 OFFCURVE",
"446 517 OFFCURVE",
"446 517 CURVE SMOOTH",
"361 517 LINE SMOOTH",
"361 517 OFFCURVE",
"295 312 OFFCURVE",
"268 208 CURVE SMOOTH",
"257 165 OFFCURVE",
"233 80 OFFCURVE",
"233 80 CURVE SMOOTH",
"233 80 OFFCURVE",
"210 166 OFFCURVE",
"197 210 CURVE SMOOTH",
"168 314 OFFCURVE",
"105 517 OFFCURVE",
"105 517 CURVE SMOOTH",
"20 517 LINE",
"190 0 LINE"
);
}
);
width = 808;
}
);
leftKerningGroup = w;
leftMetricsKey = w;
note = wgrave;
rightKerningGroup = w;
rightMetricsKey = w;
unicode = 1E81;
},
{
glyphname = x;
lastChange = "2024-06-23 16:14:51 +0000";
layers = (
{
hints = (
{
horizontal = 1;
place = "{4, 21}";
target = up;
type = BottomGhost;
},
{
horizontal = 1;
place = "{521, -20}";
target = down;
type = TopGhost;
},
{
place = "{29, 456}";
type = Stem;
}
);
layerId = "9382C8E1-E850-40EA-B00A-FA5C7367EA84";
paths = (
{
closed = 1;
nodes = (
"116 0 LINE",
"207 130 LINE SMOOTH",
"222 151 OFFCURVE",
"237 174 OFFCURVE",
"252 195 CURVE",
"297 129 LINE",
"388 0 LINE",
"478 0 LINE",
"340 198 LINE SMOOTH",
"326 218 OFFCURVE",
"309 239 OFFCURVE",
"295 259 CURVE",
"309 279 OFFCURVE",
"326 300 OFFCURVE",
"340 320 CURVE SMOOTH",
"478 517 LINE",
"388 517 LINE",
"296 385 LINE SMOOTH",
"281 364 OFFCURVE",
"267 342 OFFCURVE",
"252 321 CURVE",
"237 342 OFFCURVE",
"223 364 OFFCURVE",
"208 385 CURVE SMOOTH",
"116 517 LINE",
"26 517 LINE",
"168 315 LINE SMOOTH",
"181 296 OFFCURVE",
"196 278 OFFCURVE",
"209 259 CURVE",
"169 204 LINE",
"26 0 LINE"
);
}
);
width = 504;
}
);
leftMetricsKey = v;
note = x;
rightKerningGroup = x;
rightMetricsKey = v;
unicode = 0078;
},
{
glyphname = y;
lastChange = "2024-06-23 12:44:50 +0000";
layers = (
{
hints = (
{
horizontal = 1;
place = "{-168, 21}";
target = up;
type = BottomGhost;
},
{
horizontal = 1;
place = "{521, -20}";
target = down;
type = TopGhost;
},
{
place = "{29, 451}";
type = Stem;
}
);
layerId = "9382C8E1-E850-40EA-B00A-FA5C7367EA84";
paths = (
{
closed = 1;
nodes = (
"231 -163 OFFCURVE",
"196 -181 OFFCURVE",
"129 -181 CURVE SMOOTH",
"68 -181 OFFCURVE",
"55 -171 OFFCURVE",
"55 -171 CURVE",
"55 -104 LINE",
"55 -104 OFFCURVE",
"81 -111 OFFCURVE",
"121 -111 CURVE SMOOTH",
"148 -111 OFFCURVE",
"161 -100 OFFCURVE",
"177 -59 CURVE SMOOTH",
"200 2 LINE",
"20 517 LINE",
"105 517 LINE SMOOTH",
"105 517 OFFCURVE",
"171 315 OFFCURVE",
"203 211 CURVE SMOOTH",
"243 81 LINE",
"282 209 LINE SMOOTH",
"313 312 OFFCURVE",
"382 517 OFFCURVE",
"382 517 CURVE SMOOTH",
"467 517 LINE",
"264 -67 LINE SMOOTH"
);
}
);
width = 487;
}
);
leftKerningGroup = v;
leftMetricsKey = v;
note = y;
rightKerningGroup = v;
rightMetricsKey = v;
unicode = 0079;
},
{
glyphname = yacute;
lastChange = "2024-06-23 12:44:50 +0000";
layers = (
{
hints = (
{
horizontal = 1;
place = "{-168, 21}";
target = up;
type = BottomGhost;
},
{
horizontal = 1;
place = "{521, -20}";
target = down;
type = TopGhost;
},
{
horizontal = 1;
place = "{621, 103}";
type = Stem;
},
{
place = "{29, 451}";
type = Stem;
}
);
layerId = "9382C8E1-E850-40EA-B00A-FA5C7367EA84";
paths = (
{
closed = 1;
nodes = (
"255 650 LINE SMOOTH",
"290 683 OFFCURVE",
"319 716 OFFCURVE",
"319 716 CURVE SMOOTH",
"239 716 LINE SMOOTH",
"239 716 OFFCURVE",
"199 683 OFFCURVE",
"165 650 CURVE SMOOTH",
"131 617 LINE",
"222 617 LINE"
);
},
{
closed = 1;
nodes = (
"177 -59 LINE SMOOTH",
"161 -102 OFFCURVE",
"138 -111 OFFCURVE",
"111 -111 CURVE SMOOTH",
"91 -111 OFFCURVE",
"65 -105 OFFCURVE",
"65 -105 CURVE",
"65 -172 LINE",
"65 -172 OFFCURVE",
"86 -181 OFFCURVE",
"129 -181 CURVE SMOOTH",
"198 -181 OFFCURVE",
"237 -132 OFFCURVE",
"264 -67 CURVE",
"467 517 LINE",
"382 517 LINE SMOOTH",
"382 517 OFFCURVE",
"313 312 OFFCURVE",
"282 209 CURVE SMOOTH",
"243 81 LINE",
"203 211 LINE SMOOTH",
"171 315 OFFCURVE",
"105 517 OFFCURVE",
"105 517 CURVE SMOOTH",
"20 517 LINE",
"200 2 LINE"
);
}
);
width = 487;
}
);
leftKerningGroup = y;
leftMetricsKey = y;
note = yacute;
rightKerningGroup = y;
rightMetricsKey = y;
unicode = 00FD;
},
{
glyphname = ycircumflex;
lastChange = "2024-06-23 12:44:50 +0000";
layers = (
{
hints = (
{
horizontal = 1;
place = "{-168, 21}";
target = up;
type = BottomGhost;
},
{
horizontal = 1;
place = "{521, -20}";
target = down;
type = TopGhost;
},
{
horizontal = 1;
place = "{686, 38}";
type = Stem;
},
{
place = "{29, 451}";
type = Stem;
}
);
layerId = "9382C8E1-E850-40EA-B00A-FA5C7367EA84";
paths = (
{
closed = 1;
nodes = (
"126 617 LINE",
"188 617 LINE",
"230 682 LINE",
"271 617 LINE",
"334 617 LINE",
"271 716 LINE",
"188 716 LINE"
);
},
{
closed = 1;
nodes = (
"177 -59 LINE SMOOTH",
"161 -102 OFFCURVE",
"138 -111 OFFCURVE",
"111 -111 CURVE SMOOTH",
"91 -111 OFFCURVE",
"65 -105 OFFCURVE",
"65 -105 CURVE",
"65 -172 LINE",
"65 -172 OFFCURVE",
"86 -181 OFFCURVE",
"129 -181 CURVE SMOOTH",
"198 -181 OFFCURVE",
"237 -132 OFFCURVE",
"264 -67 CURVE",
"467 517 LINE",
"382 517 LINE SMOOTH",
"382 517 OFFCURVE",
"313 312 OFFCURVE",
"282 209 CURVE SMOOTH",
"243 81 LINE",
"203 211 LINE SMOOTH",
"171 315 OFFCURVE",
"105 517 OFFCURVE",
"105 517 CURVE SMOOTH",
"20 517 LINE",
"200 2 LINE"
);
}
);
width = 487;
}
);
leftKerningGroup = y;
leftMetricsKey = y;
note = ycircumflex;
rightKerningGroup = y;
rightMetricsKey = y;
unicode = 0177;
},
{
glyphname = ydieresis;
lastChange = "2024-06-23 12:44:50 +0000";
layers = (
{
hints = (
{
horizontal = 1;
place = "{-168, 21}";
target = up;
type = BottomGhost;
},
{
horizontal = 1;
place = "{521, -20}";
target = down;
type = TopGhost;
},
{
horizontal = 1;
place = "{634, 106}";
type = Stem;
},
{
place = "{121, 108}";
type = Stem;
},
{
place = "{315, 108}";
type = Stem;
}
);
layerId = "9382C8E1-E850-40EA-B00A-FA5C7367EA84";
paths = (
{
closed = 1;
nodes = (
"112 652 OFFCURVE",
"134 630 OFFCURVE",
"164 630 CURVE SMOOTH",
"194 630 OFFCURVE",
"216 652 OFFCURVE",
"216 681 CURVE SMOOTH",
"216 710 OFFCURVE",
"194 732 OFFCURVE",
"164 732 CURVE SMOOTH",
"134 732 OFFCURVE",
"112 710 OFFCURVE",
"112 681 CURVE SMOOTH"
);
},
{
closed = 1;
nodes = (
"306 652 OFFCURVE",
"328 630 OFFCURVE",
"358 630 CURVE SMOOTH",
"388 630 OFFCURVE",
"410 652 OFFCURVE",
"410 681 CURVE SMOOTH",
"410 710 OFFCURVE",
"388 732 OFFCURVE",
"358 732 CURVE SMOOTH",
"328 732 OFFCURVE",
"306 710 OFFCURVE",
"306 681 CURVE SMOOTH"
);
},
{
closed = 1;
nodes = (
"177 -59 LINE SMOOTH",
"161 -102 OFFCURVE",
"138 -111 OFFCURVE",
"111 -111 CURVE SMOOTH",
"91 -111 OFFCURVE",
"65 -105 OFFCURVE",
"65 -105 CURVE",
"65 -172 LINE",
"65 -172 OFFCURVE",
"86 -181 OFFCURVE",
"129 -181 CURVE SMOOTH",
"198 -181 OFFCURVE",
"237 -132 OFFCURVE",
"264 -67 CURVE",
"467 517 LINE",
"382 517 LINE SMOOTH",
"382 517 OFFCURVE",
"313 312 OFFCURVE",
"282 209 CURVE SMOOTH",
"243 81 LINE",
"203 211 LINE SMOOTH",
"171 315 OFFCURVE",
"105 517 OFFCURVE",
"105 517 CURVE SMOOTH",
"20 517 LINE",
"200 2 LINE"
);
}
);
width = 487;
}
);
leftKerningGroup = y;
leftMetricsKey = y;
note = ydieresis;
rightKerningGroup = y;
rightMetricsKey = y;
unicode = 00FF;
},
{
glyphname = ygrave;
lastChange = "2024-06-23 12:44:50 +0000";
layers = (
{
hints = (
{
horizontal = 1;
place = "{-168, 21}";
target = up;
type = BottomGhost;
},
{
horizontal = 1;
place = "{521, -20}";
target = down;
type = TopGhost;
},
{
horizontal = 1;
place = "{621, 103}";
type = Stem;
},
{
place = "{29, 451}";
type = Stem;
}
);
layerId = "9382C8E1-E850-40EA-B00A-FA5C7367EA84";
paths = (
{
closed = 1;
nodes = (
"217 650 LINE",
"250 617 LINE",
"341 617 LINE",
"307 650 LINE SMOOTH",
"273 683 OFFCURVE",
"233 716 OFFCURVE",
"233 716 CURVE SMOOTH",
"153 716 LINE"
);
},
{
closed = 1;
nodes = (
"177 -59 LINE SMOOTH",
"161 -102 OFFCURVE",
"138 -111 OFFCURVE",
"111 -111 CURVE SMOOTH",
"91 -111 OFFCURVE",
"65 -105 OFFCURVE",
"65 -105 CURVE",
"65 -172 LINE",
"65 -172 OFFCURVE",
"86 -181 OFFCURVE",
"129 -181 CURVE SMOOTH",
"198 -181 OFFCURVE",
"237 -132 OFFCURVE",
"264 -67 CURVE",
"467 517 LINE",
"382 517 LINE SMOOTH",
"382 517 OFFCURVE",
"313 312 OFFCURVE",
"282 209 CURVE SMOOTH",
"243 81 LINE",
"203 211 LINE SMOOTH",
"171 315 OFFCURVE",
"105 517 OFFCURVE",
"105 517 CURVE SMOOTH",
"20 517 LINE",
"200 2 LINE"
);
}
);
width = 487;
}
);
leftKerningGroup = y;
leftMetricsKey = y;
note = ygrave;
rightKerningGroup = y;
rightMetricsKey = y;
unicode = 1EF3;
},
{
glyphname = z;
lastChange = "2024-06-23 16:06:16 +0000";
layers = (
{
hints = (
{
horizontal = 1;
place = "{4, 71}";
type = Stem;
},
{
horizontal = 1;
place = "{454, 71}";
type = Stem;
},
{
place = "{29, 410}";
type = Stem;
}
);
layerId = "9382C8E1-E850-40EA-B00A-FA5C7367EA84";
paths = (
{
closed = 1;
nodes = (
"451 67 LINE",
"134 67 LINE",
"206 154 LINE",
"446 452 LINE",
"446 517 LINE",
"70 517 LINE",
"70 450 LINE",
"357 450 LINE",
"357 450 OFFCURVE",
"315 401 OFFCURVE",
"297 378 CURVE SMOOTH",
"45 65 LINE",
"45 1 LINE",
"451 0 LINE"
);
}
);
width = 496;
}
);
leftKerningGroup = x;
note = z;
rightKerningGroup = x;
unicode = 007A;
},
{
glyphname = g.001;
lastChange = "2024-06-23 12:39:38 +0000";
layers = (
{
hints = (
{
horizontal = 1;
place = "{-178, 72}";
type = Stem;
},
{
horizontal = 1;
place = "{22, 69}";
type = Stem;
},
{
horizontal = 1;
place = "{521, -20}";
target = down;
type = TopGhost;
},
{
place = "{68, 85}";
type = Stem;
},
{
place = "{432, 85}";
type = Stem;
},
{
place = "{47, 86}";
type = Stem;
}
);
layerId = "9382C8E1-E850-40EA-B00A-FA5C7367EA84";
paths = (
{
closed = 1;
nodes = (
"415 -182 OFFCURVE",
"515 -116 OFFCURVE",
"515 60 CURVE SMOOTH",
"515 517 LINE",
"434 517 LINE",
"434 441 LINE",
"412 483 OFFCURVE",
"346 530 OFFCURVE",
"257 530 CURVE SMOOTH",
"147 530 OFFCURVE",
"49 434 OFFCURVE",
"49 274 CURVE SMOOTH",
"49 115 OFFCURVE",
"146 18 OFFCURVE",
"257 18 CURVE SMOOTH",
"346 18 OFFCURVE",
"412 64 OFFCURVE",
"434 108 CURVE",
"434 68 LINE SMOOTH",
"434 -65 OFFCURVE",
"385 -114 OFFCURVE",
"284 -114 CURVE SMOOTH",
"174 -114 OFFCURVE",
"160 -64 OFFCURVE",
"151 -32 CURVE",
"70 -31 LINE",
"80 -108 OFFCURVE",
"144 -182 OFFCURVE",
"284 -182 CURVE SMOOTH"
);
},
{
closed = 1;
nodes = (
"131 398 OFFCURVE",
"203 465 OFFCURVE",
"282 465 CURVE SMOOTH",
"381 465 OFFCURVE",
"434 380 OFFCURVE",
"434 275 CURVE SMOOTH",
"434 167 OFFCURVE",
"381 83 OFFCURVE",
"282 83 CURVE SMOOTH",
"204 83 OFFCURVE",
"131 149 OFFCURVE",
"131 275 CURVE SMOOTH"
);
}
);
width = 554;
}
);
leftKerningGroup = g;
leftMetricsKey = g;
note = g.001;
rightKerningGroup = g;
rightMetricsKey = g;
},
{
export = 0;
glyphname = a.001;
lastChange = "2024-06-23 12:40:08 +0000";
layers = (
{
hints = (
{
horizontal = 1;
place = "{1, 71}";
type = Stem;
},
{
horizontal = 1;
place = "{464, 75}";
type = Stem;
},
{
place = "{47, 86}";
type = Stem;
},
{
place = "{387, 79}";
type = Stem;
},
{
horizontal = 1;
place = "{-9, 72}";
type = Stem;
}
);
layerId = "9382C8E1-E850-40EA-B00A-FA5C7367EA84";
paths = (
{
closed = 1;
nodes = (
"462 207 LINE SMOOTH",
"462 266 OFFCURVE",
"463 342 OFFCURVE",
"462 389 CURVE SMOOTH",
"461 474 OFFCURVE",
"390 531 OFFCURVE",
"261 531 CURVE SMOOTH",
"151 531 OFFCURVE",
"73 457 OFFCURVE",
"63 368 CURVE",
"147 368 LINE",
"153 432 OFFCURVE",
"203 460 OFFCURVE",
"272 460 CURVE SMOOTH",
"338 460 OFFCURVE",
"380 435 OFFCURVE",
"380 392 CURVE SMOOTH",
"380 339 OFFCURVE",
"330 326 OFFCURVE",
"238 302 CURVE SMOOTH",
"129 277 OFFCURVE",
"47 255 OFFCURVE",
"47 145 CURVE SMOOTH",
"47 52 OFFCURVE",
"135 -13 OFFCURVE",
"212 -13 CURVE SMOOTH",
"338 -13 OFFCURVE",
"372 50 OFFCURVE",
"387 69 CURVE",
"393 23 OFFCURVE",
"429 -3 OFFCURVE",
"488 -3 CURVE SMOOTH",
"518 -3 OFFCURVE",
"521 -1 OFFCURVE",
"521 -1 CURVE",
"521 64 LINE",
"480 64 OFFCURVE",
"462 77 OFFCURVE",
"462 121 CURVE SMOOTH"
);
},
{
closed = 1;
nodes = (
"186 55 OFFCURVE",
"129 86 OFFCURVE",
"129 140 CURVE SMOOTH",
"129 182 OFFCURVE",
"147 215 OFFCURVE",
"248 239 CURVE SMOOTH",
"309 253 OFFCURVE",
"356 270 OFFCURVE",
"386 292 CURVE",
"387 226 LINE",
"387 192 LINE SMOOTH",
"388 119 OFFCURVE",
"312 55 OFFCURVE",
"238 55 CURVE SMOOTH"
);
}
);
width = 560;
}
);
leftKerningGroup = a;
leftMetricsKey = a;
note = a.001;
rightKerningGroup = a;
rightMetricsKey = a;
},
{
export = 0;
glyphname = r.001;
lastChange = "2024-06-23 12:44:50 +0000";
layers = (
{
hints = (
{
horizontal = 1;
place = "{4, 21}";
target = up;
type = BottomGhost;
},
{
horizontal = 1;
place = "{465, 74}";
type = Stem;
},
{
place = "{81, 85}";
type = Stem;
}
);
layerId = "9382C8E1-E850-40EA-B00A-FA5C7367EA84";
paths = (
{
closed = 1;
nodes = (
"342 531 LINE",
"254 531 OFFCURVE",
"187 479 OFFCURVE",
"166 445 CURVE",
"166 517 LINE",
"85 517 LINE",
"85 0 LINE",
"166 0 LINE",
"166 333 LINE SMOOTH",
"166 389 OFFCURVE",
"224 461 OFFCURVE",
"342 461 CURVE"
);
}
);
width = 379;
}
);
leftKerningGroup = h;
leftMetricsKey = h;
note = r;
rightKerningGroup = f;
rightMetricsKey = f;
},
{
export = 0;
glyphname = r.002;
lastChange = "2024-06-23 12:44:50 +0000";
layers = (
{
hints = (
{
horizontal = 1;
place = "{4, 21}";
target = up;
type = BottomGhost;
},
{
horizontal = 1;
place = "{465, 74}";
type = Stem;
},
{
place = "{81, 85}";
type = Stem;
}
);
layerId = "9382C8E1-E850-40EA-B00A-FA5C7367EA84";
paths = (
{
closed = 1;
nodes = (
"342 531 LINE",
"254 531 OFFCURVE",
"187 479 OFFCURVE",
"166 445 CURVE",
"166 517 LINE",
"85 517 LINE",
"85 0 LINE",
"166 0 LINE",
"166 333 LINE SMOOTH",
"166 389 OFFCURVE",
"224 461 OFFCURVE",
"342 461 CURVE"
);
}
);
width = 379;
}
);
leftKerningGroup = h;
leftMetricsKey = h;
note = r;
rightKerningGroup = f;
rightMetricsKey = f;
},
{
glyphname = zero;
lastChange = "2024-06-23 12:40:18 +0000";
layers = (
{
hints = (
{
horizontal = 1;
place = "{-11, 79}";
type = Stem;
},
{
horizontal = 1;
place = "{659, 79}";
type = Stem;
},
{
place = "{46, 91}";
type = Stem;
},
{
place = "{482, 91}";
type = Stem;
}
);
layerId = "9382C8E1-E850-40EA-B00A-FA5C7367EA84";
paths = (
{
closed = 1;
nodes = (
"469 -15 OFFCURVE",
"569 102 OFFCURVE",
"569 357 CURVE SMOOTH",
"569 613 OFFCURVE",
"469 730 OFFCURVE",
"308 730 CURVE SMOOTH",
"149 730 OFFCURVE",
"46 613 OFFCURVE",
"46 357 CURVE SMOOTH",
"46 102 OFFCURVE",
"149 -15 OFFCURVE",
"308 -15 CURVE SMOOTH"
);
},
{
closed = 1;
nodes = (
"133 567 OFFCURVE",
"200 655 OFFCURVE",
"309 655 CURVE SMOOTH",
"418 655 OFFCURVE",
"482 567 OFFCURVE",
"482 356 CURVE SMOOTH",
"482 147 OFFCURVE",
"418 60 OFFCURVE",
"309 60 CURVE SMOOTH",
"200 60 OFFCURVE",
"133 147 OFFCURVE",
"133 356 CURVE SMOOTH"
);
}
);
width = 615;
}
);
leftKerningGroup = O;
leftMetricsKey = O;
note = zero;
rightKerningGroup = O;
rightMetricsKey = O;
unicode = 0030;
},
{
glyphname = one;
lastChange = "2024-06-23 12:40:29 +0000";
layers = (
{
hints = (
{
horizontal = 1;
place = "{4, 21}";
target = up;
type = BottomGhost;
},
{
horizontal = 1;
place = "{535, 188}";
type = Stem;
},
{
place = "{188, 89}";
type = Stem;
}
);
layerId = "9382C8E1-E850-40EA-B00A-FA5C7367EA84";
paths = (
{
closed = 1;
nodes = (
"269 0 LINE",
"269 715 LINE",
"184 715 LINE",
"184 634 OFFCURVE",
"92 589 OFFCURVE",
"37 589 CURVE",
"37 531 LINE",
"184 531 LINE",
"184 0 LINE"
);
}
);
width = 306;
}
);
leftKerningGroup = f;
leftMetricsKey = f;
note = one;
rightKerningGroup = f;
rightMetricsKey = f;
unicode = 0031;
},
{
glyphname = two;
lastChange = "2024-06-23 12:44:50 +0000";
layers = (
{
hints = (
{
horizontal = 1;
place = "{4, 75}";
type = Stem;
},
{
horizontal = 1;
place = "{661, 79}";
type = Stem;
},
{
place = "{57, 89}";
type = Stem;
},
{
place = "{427, 91}";
type = Stem;
}
);
layerId = "9382C8E1-E850-40EA-B00A-FA5C7367EA84";
paths = (
{
closed = 1;
nodes = (
"495 0 LINE",
"495 71 LINE",
"140 71 LINE",
"171 205 OFFCURVE",
"294 238 OFFCURVE",
"429 390 CURVE SMOOTH",
"468 434 OFFCURVE",
"493 481 OFFCURVE",
"493 548 CURVE SMOOTH",
"493 650 OFFCURVE",
"400 732 OFFCURVE",
"264 732 CURVE SMOOTH",
"129 732 OFFCURVE",
"36 650 OFFCURVE",
"36 548 CURVE",
"121 548 LINE",
"121 606 OFFCURVE",
"175 657 OFFCURVE",
"264 657 CURVE SMOOTH",
"354 657 OFFCURVE",
"406 606 OFFCURVE",
"406 540 CURVE SMOOTH",
"406 515 OFFCURVE",
"400 471 OFFCURVE",
"365 430 CURVE SMOOTH",
"255 301 OFFCURVE",
"81 265 OFFCURVE",
"25 0 CURVE"
);
}
);
width = 520;
}
);
leftKerningGroup = Z;
leftMetricsKey = Z;
note = two;
rightKerningGroup = Z;
rightMetricsKey = Z;
unicode = 0032;
},
{
glyphname = three;
lastChange = "2024-06-23 12:40:52 +0000";
layers = (
{
hints = (
{
horizontal = 1;
place = "{-11, 79}";
type = Stem;
},
{
horizontal = 1;
place = "{359, 75}";
type = Stem;
},
{
horizontal = 1;
place = "{664, 76}";
type = Stem;
},
{
place = "{46, 89}";
type = Stem;
},
{
place = "{444, 91}";
type = Stem;
},
{
place = "{60, 89}";
type = Stem;
},
{
place = "{430, 91}";
type = Stem;
}
);
layerId = "9382C8E1-E850-40EA-B00A-FA5C7367EA84";
paths = (
{
closed = 1;
nodes = (
"433 -15 OFFCURVE",
"531 78 OFFCURVE",
"531 195 CURVE SMOOTH",
"531 281 OFFCURVE",
"480 355 OFFCURVE",
"398 389 CURVE",
"472 419 OFFCURVE",
"517 478 OFFCURVE",
"517 548 CURVE SMOOTH",
"517 650 OFFCURVE",
"424 732 OFFCURVE",
"288 732 CURVE SMOOTH",
"153 732 OFFCURVE",
"60 650 OFFCURVE",
"60 548 CURVE",
"145 548 LINE",
"145 610 OFFCURVE",
"203 660 OFFCURVE",
"288 660 CURVE SMOOTH",
"374 660 OFFCURVE",
"430 610 OFFCURVE",
"430 545 CURVE SMOOTH",
"430 482 OFFCURVE",
"384 426 OFFCURVE",
"298 426 CURVE SMOOTH",
"238 426 LINE",
"237 355 LINE",
"298 355 LINE SMOOTH",
"398 355 OFFCURVE",
"444 286 OFFCURVE",
"444 205 CURVE SMOOTH",
"444 124 OFFCURVE",
"388 60 OFFCURVE",
"288 60 CURVE SMOOTH",
"189 60 OFFCURVE",
"131 126 OFFCURVE",
"131 195 CURVE",
"46 195 LINE",
"46 78 OFFCURVE",
"144 -15 OFFCURVE",
"288 -15 CURVE SMOOTH"
);
}
);
width = 571;
}
);
leftKerningGroup = O;
leftMetricsKey = O;
note = three;
rightKerningGroup = B;
rightMetricsKey = B;
unicode = 0033;
},
{
glyphname = four;
lastChange = "2024-06-23 12:41:01 +0000";
layers = (
{
hints = (
{
horizontal = 1;
place = "{4, 21}";
target = up;
type = BottomGhost;
},
{
horizontal = 1;
place = "{191, 75}";
type = Stem;
},
{
horizontal = 1;
place = "{719, -20}";
target = down;
type = TopGhost;
},
{
place = "{397, 89}";
type = Stem;
}
);
layerId = "9382C8E1-E850-40EA-B00A-FA5C7367EA84";
paths = (
{
closed = 1;
nodes = (
"378 187 LINE",
"378 0 LINE",
"463 0 LINE",
"463 187 LINE",
"542 187 LINE",
"542 258 LINE",
"463 258 LINE",
"463 715 LINE",
"378 715 LINE",
"25 258 LINE",
"25 187 LINE"
);
},
{
closed = 1;
nodes = (
"378 594 LINE",
"378 258 LINE",
"122 258 LINE"
);
}
);
width = 579;
}
);
leftKerningGroup = V;
leftMetricsKey = V;
note = four;
rightKerningGroup = f;
rightMetricsKey = f;
unicode = 0034;
},
{
glyphname = five;
lastChange = "2024-06-23 12:41:07 +0000";
layers = (
{
hints = (
{
horizontal = 1;
place = "{-6, 79}";
type = Stem;
},
{
horizontal = 1;
place = "{402, 79}";
type = Stem;
},
{
horizontal = 1;
place = "{648, 75}";
type = Stem;
},
{
place = "{437, 89}";
type = Stem;
}
);
layerId = "9382C8E1-E850-40EA-B00A-FA5C7367EA84";
paths = (
{
closed = 1;
nodes = (
"457 -10 OFFCURVE",
"555 97 OFFCURVE",
"555 232 CURVE SMOOTH",
"555 366 OFFCURVE",
"457 473 OFFCURVE",
"314 473 CURVE SMOOTH",
"257 473 OFFCURVE",
"207 456 OFFCURVE",
"167 427 CURVE",
"195 644 LINE",
"534 644 LINE",
"534 715 LINE",
"128 715 LINE",
"79 333 LINE",
"164 327 LINE",
"192 368 OFFCURVE",
"236 398 OFFCURVE",
"296 398 CURVE SMOOTH",
"414 398 OFFCURVE",
"470 322 OFFCURVE",
"470 232 CURVE SMOOTH",
"470 141 OFFCURVE",
"414 65 OFFCURVE",
"314 65 CURVE SMOOTH",
"239 65 OFFCURVE",
"187 110 OFFCURVE",
"165 169 CURVE",
"80 166 LINE",
"107 64 OFFCURVE",
"194 -10 OFFCURVE",
"314 -10 CURVE SMOOTH"
);
}
);
width = 634;
}
);
leftKerningGroup = N;
leftMetricsKey = N;
note = five;
rightKerningGroup = N;
rightMetricsKey = N;
unicode = 0035;
},
{
glyphname = six;
lastChange = "2024-06-23 12:41:13 +0000";
layers = (
{
hints = (
{
horizontal = 1;
place = "{-11, 79}";
type = Stem;
},
{
horizontal = 1;
place = "{397, 79}";
type = Stem;
},
{
horizontal = 1;
place = "{659, 79}";
type = Stem;
},
{
place = "{46, 84}";
type = Stem;
},
{
place = "{462, 91}";
type = Stem;
}
);
layerId = "9382C8E1-E850-40EA-B00A-FA5C7367EA84";
paths = (
{
closed = 1;
nodes = (
"451 -15 OFFCURVE",
"549 92 OFFCURVE",
"549 226 CURVE SMOOTH",
"549 361 OFFCURVE",
"451 468 OFFCURVE",
"307 468 CURVE SMOOTH",
"228 468 OFFCURVE",
"169 435 OFFCURVE",
"126 382 CURVE",
"132 576 OFFCURVE",
"195 655 OFFCURVE",
"307 655 CURVE SMOOTH",
"387 655 OFFCURVE",
"456 615 OFFCURVE",
"466 520 CURVE",
"551 521 LINE",
"535 663 OFFCURVE",
"427 730 OFFCURVE",
"307 730 CURVE SMOOTH",
"146 730 OFFCURVE",
"46 613 OFFCURVE",
"46 358 CURVE SMOOTH",
"46 272 OFFCURVE",
"57 202 OFFCURVE",
"78 146 CURVE",
"89 112 OFFCURVE",
"108 81 OFFCURVE",
"132 56 CURVE SMOOTH",
"176 8 OFFCURVE",
"236 -15 OFFCURVE",
"307 -15 CURVE SMOOTH"
);
},
{
closed = 1;
nodes = (
"146 320 OFFCURVE",
"204 393 OFFCURVE",
"306 393 CURVE SMOOTH",
"410 393 OFFCURVE",
"462 320 OFFCURVE",
"462 226 CURVE SMOOTH",
"462 133 OFFCURVE",
"410 60 OFFCURVE",
"306 60 CURVE SMOOTH",
"204 60 OFFCURVE",
"146 133 OFFCURVE",
"146 226 CURVE SMOOTH"
);
}
);
width = 597;
}
);
leftKerningGroup = O;
leftMetricsKey = O;
note = six;
rightKerningGroup = O;
rightMetricsKey = O;
unicode = 0036;
},
{
glyphname = seven;
lastChange = "2024-06-23 12:41:17 +0000";
layers = (
{
hints = (
{
horizontal = 1;
place = "{4, 21}";
target = up;
type = BottomGhost;
},
{
horizontal = 1;
place = "{648, 75}";
type = Stem;
},
{
place = "{124, 89}";
type = Stem;
}
);
layerId = "9382C8E1-E850-40EA-B00A-FA5C7367EA84";
paths = (
{
closed = 1;
nodes = (
"193 0 LINE",
"201 305 OFFCURVE",
"371 495 OFFCURVE",
"565 646 CURVE",
"565 715 LINE",
"25 715 LINE",
"25 644 LINE",
"460 644 LINE",
"274 506 OFFCURVE",
"108 252 OFFCURVE",
"108 0 CURVE"
);
}
);
width = 590;
}
);
leftKerningGroup = V;
leftMetricsKey = V;
note = seven;
rightKerningGroup = V;
rightMetricsKey = V;
unicode = 0037;
},
{
glyphname = eight;
lastChange = "2024-06-23 12:41:28 +0000";
layers = (
{
hints = (
{
horizontal = 1;
place = "{-11, 79}";
type = Stem;
},
{
horizontal = 1;
place = "{374, 75}";
type = Stem;
},
{
horizontal = 1;
place = "{660, 79}";
type = Stem;
},
{
place = "{81, 91}";
type = Stem;
},
{
place = "{464, 91}";
type = Stem;
},
{
place = "{46, 91}";
type = Stem;
},
{
place = "{429, 91}";
type = Stem;
}
);
layerId = "9382C8E1-E850-40EA-B00A-FA5C7367EA84";
paths = (
{
closed = 1;
nodes = (
"449 -15 OFFCURVE",
"551 82 OFFCURVE",
"551 204 CURVE SMOOTH",
"551 294 OFFCURVE",
"497 370 OFFCURVE",
"409 404 CURVE",
"476 434 OFFCURVE",
"516 490 OFFCURVE",
"516 555 CURVE SMOOTH",
"516 653 OFFCURVE",
"428 731 OFFCURVE",
"298 731 CURVE SMOOTH",
"169 731 OFFCURVE",
"81 653 OFFCURVE",
"81 555 CURVE SMOOTH",
"81 490 OFFCURVE",
"121 434 OFFCURVE",
"187 404 CURVE",
"100 370 OFFCURVE",
"46 295 OFFCURVE",
"46 204 CURVE SMOOTH",
"46 82 OFFCURVE",
"148 -15 OFFCURVE",
"298 -15 CURVE SMOOTH"
);
},
{
closed = 1;
nodes = (
"168 609 OFFCURVE",
"214 656 OFFCURVE",
"298 656 CURVE SMOOTH",
"383 656 OFFCURVE",
"429 609 OFFCURVE",
"429 548 CURVE SMOOTH",
"429 488 OFFCURVE",
"383 441 OFFCURVE",
"298 441 CURVE SMOOTH",
"214 441 OFFCURVE",
"168 488 OFFCURVE",
"168 548 CURVE SMOOTH"
);
},
{
closed = 1;
nodes = (
"133 302 OFFCURVE",
"192 370 OFFCURVE",
"298 370 CURVE SMOOTH",
"405 370 OFFCURVE",
"464 302 OFFCURVE",
"464 214 CURVE SMOOTH",
"464 129 OFFCURVE",
"405 60 OFFCURVE",
"298 60 CURVE SMOOTH",
"192 60 OFFCURVE",
"133 129 OFFCURVE",
"133 214 CURVE SMOOTH"
);
}
);
width = 597;
}
);
leftKerningGroup = O;
leftMetricsKey = O;
note = eight;
rightKerningGroup = O;
rightMetricsKey = O;
unicode = 0038;
},
{
glyphname = nine;
lastChange = "2024-06-23 12:41:33 +0000";
layers = (
{
hints = (
{
horizontal = 1;
place = "{12, 79}";
type = Stem;
},
{
horizontal = 1;
place = "{274, 79}";
type = Stem;
},
{
horizontal = 1;
place = "{682, 79}";
type = Stem;
},
{
place = "{48, 91}";
type = Stem;
},
{
place = "{471, 84}";
type = Stem;
}
);
layerId = "9382C8E1-E850-40EA-B00A-FA5C7367EA84";
paths = (
{
closed = 1;
nodes = (
"146 753 OFFCURVE",
"48 646 OFFCURVE",
"48 512 CURVE SMOOTH",
"48 377 OFFCURVE",
"146 270 OFFCURVE",
"290 270 CURVE SMOOTH",
"369 270 OFFCURVE",
"428 303 OFFCURVE",
"471 356 CURVE",
"465 162 OFFCURVE",
"402 83 OFFCURVE",
"290 83 CURVE SMOOTH",
"210 83 OFFCURVE",
"141 123 OFFCURVE",
"131 218 CURVE",
"46 217 LINE",
"62 75 OFFCURVE",
"170 8 OFFCURVE",
"290 8 CURVE SMOOTH",
"451 8 OFFCURVE",
"551 125 OFFCURVE",
"551 380 CURVE SMOOTH",
"551 466 OFFCURVE",
"540 536 OFFCURVE",
"519 592 CURVE",
"508 626 OFFCURVE",
"489 657 OFFCURVE",
"465 682 CURVE SMOOTH",
"421 730 OFFCURVE",
"361 753 OFFCURVE",
"290 753 CURVE SMOOTH"
);
},
{
closed = 1;
nodes = (
"451 418 OFFCURVE",
"393 345 OFFCURVE",
"291 345 CURVE SMOOTH",
"187 345 OFFCURVE",
"135 418 OFFCURVE",
"135 512 CURVE SMOOTH",
"135 605 OFFCURVE",
"187 678 OFFCURVE",
"291 678 CURVE SMOOTH",
"393 678 OFFCURVE",
"451 605 OFFCURVE",
"451 512 CURVE SMOOTH"
);
}
);
width = 597;
}
);
leftKerningGroup = O;
leftMetricsKey = O;
note = nine;
rightKerningGroup = O;
rightMetricsKey = O;
unicode = 0039;
},
{
glyphname = fraction;
lastChange = "2024-06-23 10:44:54 +0000";
layers = (
{
hints = (
{
horizontal = 1;
place = "{-11, 21}";
target = up;
type = BottomGhost;
},
{
horizontal = 1;
place = "{735, -20}";
target = down;
type = TopGhost;
},
{
place = "{79, 524}";
type = Stem;
}
);
layerId = "9382C8E1-E850-40EA-B00A-FA5C7367EA84";
paths = (
{
closed = 1;
nodes = (
"166 -15 LINE",
"599 731 LINE",
"512 731 LINE",
"79 -15 LINE"
);
}
);
width = 678;
}
);
note = fraction;
unicode = 2044;
},
{
glyphname = period;
lastChange = "2024-06-23 12:41:52 +0000";
layers = (
{
hints = (
{
horizontal = 1;
place = "{1, 116}";
type = Stem;
},
{
place = "{81, 118}";
type = Stem;
}
);
layerId = "9382C8E1-E850-40EA-B00A-FA5C7367EA84";
paths = (
{
closed = 1;
nodes = (
"85 21 OFFCURVE",
"109 -3 OFFCURVE",
"142 -3 CURVE SMOOTH",
"175 -3 OFFCURVE",
"199 21 OFFCURVE",
"199 53 CURVE SMOOTH",
"199 85 OFFCURVE",
"175 109 OFFCURVE",
"142 109 CURVE SMOOTH",
"109 109 OFFCURVE",
"85 85 OFFCURVE",
"85 53 CURVE SMOOTH"
);
}
);
width = 284;
}
);
leftKerningGroup = n;
leftMetricsKey = n;
note = period;
rightKerningGroup = n;
rightMetricsKey = n;
unicode = 002E;
},
{
glyphname = comma;
lastChange = "2024-06-23 12:41:52 +0000";
layers = (
{
hints = (
{
horizontal = 1;
place = "{-119, 50}";
type = Stem;
},
{
horizontal = 1;
place = "{4, 21}";
target = up;
type = BottomGhost;
},
{
place = "{80, 56}";
type = Stem;
}
);
layerId = "9382C8E1-E850-40EA-B00A-FA5C7367EA84";
paths = (
{
closed = 1;
nodes = (
"87 -123 LINE",
"141 -123 OFFCURVE",
"190 -83 OFFCURVE",
"190 29 CURVE SMOOTH",
"190 50 LINE SMOOTH",
"190 79 OFFCURVE",
"167 103 OFFCURVE",
"137 103 CURVE SMOOTH",
"107 103 OFFCURVE",
"85 80 OFFCURVE",
"85 51 CURVE SMOOTH",
"85 23 OFFCURVE",
"107 0 OFFCURVE",
"137 0 CURVE SMOOTH",
"138 0 LINE",
"138 -2 LINE SMOOTH",
"138 -59 OFFCURVE",
"100 -77 OFFCURVE",
"87 -77 CURVE"
);
}
);
width = 275;
}
);
leftKerningGroup = n;
leftMetricsKey = n;
note = comma;
rightKerningGroup = n;
rightMetricsKey = n;
unicode = 002C;
},
{
glyphname = colon;
lastChange = "2024-06-23 12:41:52 +0000";
layers = (
{
hints = (
{
horizontal = 1;
place = "{-4, 106}";
type = Stem;
},
{
horizontal = 1;
place = "{287, 106}";
type = Stem;
},
{
place = "{79, 108}";
type = Stem;
}
);
layerId = "9382C8E1-E850-40EA-B00A-FA5C7367EA84";
paths = (
{
closed = 1;
nodes = (
"85 305 OFFCURVE",
"107 283 OFFCURVE",
"137 283 CURVE SMOOTH",
"167 283 OFFCURVE",
"189 305 OFFCURVE",
"189 334 CURVE SMOOTH",
"189 363 OFFCURVE",
"167 385 OFFCURVE",
"137 385 CURVE SMOOTH",
"107 385 OFFCURVE",
"85 363 OFFCURVE",
"85 334 CURVE SMOOTH"
);
},
{
closed = 1;
nodes = (
"85 14 OFFCURVE",
"107 -8 OFFCURVE",
"137 -8 CURVE SMOOTH",
"167 -8 OFFCURVE",
"189 14 OFFCURVE",
"189 43 CURVE SMOOTH",
"189 72 OFFCURVE",
"167 94 OFFCURVE",
"137 94 CURVE SMOOTH",
"107 94 OFFCURVE",
"85 72 OFFCURVE",
"85 43 CURVE SMOOTH"
);
}
);
width = 274;
}
);
leftKerningGroup = n;
leftMetricsKey = n;
note = colon;
rightKerningGroup = n;
rightMetricsKey = n;
unicode = 003A;
},
{
glyphname = semicolon;
lastChange = "2024-06-23 12:41:52 +0000";
layers = (
{
hints = (
{
horizontal = 1;
place = "{-119, 50}";
type = Stem;
},
{
horizontal = 1;
place = "{4, 21}";
target = up;
type = BottomGhost;
},
{
horizontal = 1;
place = "{215, 106}";
type = Stem;
},
{
place = "{135, 108}";
type = Stem;
},
{
place = "{134, 56}";
type = Stem;
}
);
layerId = "9382C8E1-E850-40EA-B00A-FA5C7367EA84";
paths = (
{
closed = 1;
nodes = (
"86 237 OFFCURVE",
"108 215 OFFCURVE",
"138 215 CURVE SMOOTH",
"168 215 OFFCURVE",
"190 237 OFFCURVE",
"190 266 CURVE SMOOTH",
"190 295 OFFCURVE",
"168 317 OFFCURVE",
"138 317 CURVE SMOOTH",
"108 317 OFFCURVE",
"86 295 OFFCURVE",
"86 266 CURVE SMOOTH"
);
},
{
closed = 1;
nodes = (
"87 -123 LINE",
"141 -123 OFFCURVE",
"190 -83 OFFCURVE",
"190 29 CURVE SMOOTH",
"190 50 LINE SMOOTH",
"190 79 OFFCURVE",
"167 103 OFFCURVE",
"137 103 CURVE SMOOTH",
"107 103 OFFCURVE",
"85 80 OFFCURVE",
"85 51 CURVE SMOOTH",
"85 23 OFFCURVE",
"107 0 OFFCURVE",
"137 0 CURVE SMOOTH",
"138 0 LINE",
"138 -2 LINE SMOOTH",
"138 -59 OFFCURVE",
"100 -77 OFFCURVE",
"87 -77 CURVE"
);
}
);
width = 275;
}
);
leftKerningGroup = n;
leftMetricsKey = n;
note = semicolon;
rightKerningGroup = n;
rightMetricsKey = n;
unicode = 003B;
},
{
glyphname = ellipsis;
lastChange = "2024-06-23 12:41:52 +0000";
layers = (
{
hints = (
{
horizontal = 1;
place = "{1, 116}";
type = Stem;
},
{
place = "{81, 118}";
type = Stem;
}
);
layerId = "9382C8E1-E850-40EA-B00A-FA5C7367EA84";
paths = (
{
closed = 1;
nodes = (
"109 109 OFFCURVE",
"85 85 OFFCURVE",
"85 53 CURVE SMOOTH",
"85 21 OFFCURVE",
"109 -3 OFFCURVE",
"142 -3 CURVE SMOOTH",
"175 -3 OFFCURVE",
"199 21 OFFCURVE",
"199 53 CURVE SMOOTH",
"199 85 OFFCURVE",
"175 109 OFFCURVE",
"142 109 CURVE SMOOTH"
);
}
);
width = 284;
}
);
leftKerningGroup = n;
leftMetricsKey = n;
note = ellipsis;
rightKerningGroup = n;
rightMetricsKey = n;
unicode = 2026;
},
{
glyphname = exclam;
lastChange = "2024-06-23 12:41:52 +0000";
layers = (
{
hints = (
{
horizontal = 1;
place = "{3, 106}";
type = Stem;
},
{
horizontal = 1;
place = "{720, -20}";
target = down;
type = TopGhost;
},
{
place = "{86, 89}";
type = Stem;
},
{
place = "{79, 108}";
type = Stem;
}
);
layerId = "9382C8E1-E850-40EA-B00A-FA5C7367EA84";
paths = (
{
closed = 1;
nodes = (
"177 199 LINE",
"177 716 LINE",
"92 716 LINE",
"92 199 LINE"
);
},
{
closed = 1;
nodes = (
"85 21 OFFCURVE",
"107 -1 OFFCURVE",
"137 -1 CURVE SMOOTH",
"167 -1 OFFCURVE",
"189 21 OFFCURVE",
"189 50 CURVE SMOOTH",
"189 79 OFFCURVE",
"167 101 OFFCURVE",
"137 101 CURVE SMOOTH",
"107 101 OFFCURVE",
"85 79 OFFCURVE",
"85 50 CURVE SMOOTH"
);
}
);
width = 274;
}
);
leftKerningGroup = n;
leftMetricsKey = n;
note = exclam;
rightKerningGroup = n;
rightMetricsKey = n;
unicode = 0021;
},
{
glyphname = exclamdown;
lastChange = "2024-06-23 12:41:52 +0000";
layers = (
{
hints = (
{
horizontal = 1;
place = "{-162, 21}";
target = up;
type = BottomGhost;
},
{
horizontal = 1;
place = "{453, 106}";
type = Stem;
},
{
place = "{91, 89}";
type = Stem;
},
{
place = "{79, 108}";
type = Stem;
}
);
layerId = "9382C8E1-E850-40EA-B00A-FA5C7367EA84";
paths = (
{
closed = 1;
nodes = (
"189 529 OFFCURVE",
"167 551 OFFCURVE",
"137 551 CURVE SMOOTH",
"107 551 OFFCURVE",
"85 529 OFFCURVE",
"85 500 CURVE SMOOTH",
"85 471 OFFCURVE",
"107 449 OFFCURVE",
"137 449 CURVE SMOOTH",
"167 449 OFFCURVE",
"189 471 OFFCURVE",
"189 500 CURVE SMOOTH"
);
},
{
closed = 1;
nodes = (
"97 351 LINE",
"97 -166 LINE",
"182 -166 LINE",
"182 351 LINE"
);
}
);
width = 274;
}
);
leftKerningGroup = n;
leftMetricsKey = n;
note = exclamdown;
rightKerningGroup = n;
rightMetricsKey = n;
unicode = 00A1;
},
{
glyphname = question;
lastChange = "2024-06-23 12:41:52 +0000";
layers = (
{
hints = (
{
horizontal = 1;
place = "{1, 106}";
type = Stem;
},
{
horizontal = 1;
place = "{657, 79}";
type = Stem;
},
{
place = "{79, 85}";
type = Stem;
},
{
place = "{240, 108}";
type = Stem;
},
{
place = "{431, 91}";
type = Stem;
}
);
layerId = "9382C8E1-E850-40EA-B00A-FA5C7367EA84";
paths = (
{
closed = 1;
nodes = (
"331 193 LINE",
"331 256 OFFCURVE",
"344 301 OFFCURVE",
"409 345 CURVE SMOOTH",
"457 377 OFFCURVE",
"524 443 OFFCURVE",
"524 532 CURVE SMOOTH",
"524 648 OFFCURVE",
"442 728 OFFCURVE",
"311 728 CURVE SMOOTH",
"188 728 OFFCURVE",
"85 648 OFFCURVE",
"85 498 CURVE",
"166 498 LINE",
"165 613 OFFCURVE",
"238 653 OFFCURVE",
"311 653 CURVE SMOOTH",
"394 653 OFFCURVE",
"437 602 OFFCURVE",
"437 544 CURVE SMOOTH",
"437 477 OFFCURVE",
"415 434 OFFCURVE",
"352 390 CURVE SMOOTH",
"286 344 OFFCURVE",
"246 277 OFFCURVE",
"246 193 CURVE"
);
},
{
closed = 1;
nodes = (
"246 19 OFFCURVE",
"268 -3 OFFCURVE",
"298 -3 CURVE SMOOTH",
"328 -3 OFFCURVE",
"350 19 OFFCURVE",
"350 48 CURVE SMOOTH",
"350 77 OFFCURVE",
"328 99 OFFCURVE",
"298 99 CURVE SMOOTH",
"268 99 OFFCURVE",
"246 77 OFFCURVE",
"246 48 CURVE SMOOTH"
);
}
);
width = 609;
}
);
leftKerningGroup = n;
leftMetricsKey = n;
note = question;
rightKerningGroup = n;
rightMetricsKey = n;
unicode = 003F;
},
{
glyphname = questiondown;
lastChange = "2024-06-23 12:41:52 +0000";
layers = (
{
hints = (
{
horizontal = 1;
place = "{-179, 79}";
type = Stem;
},
{
horizontal = 1;
place = "{450, 106}";
type = Stem;
},
{
place = "{79, 91}";
type = Stem;
},
{
place = "{253, 108}";
type = Stem;
},
{
place = "{437, 85}";
type = Stem;
},
{
place = "{272, 89}";
type = Stem;
}
);
layerId = "9382C8E1-E850-40EA-B00A-FA5C7367EA84";
paths = (
{
closed = 1;
nodes = (
"363 526 OFFCURVE",
"341 548 OFFCURVE",
"311 548 CURVE SMOOTH",
"281 548 OFFCURVE",
"259 526 OFFCURVE",
"259 497 CURVE SMOOTH",
"259 468 OFFCURVE",
"281 446 OFFCURVE",
"311 446 CURVE SMOOTH",
"341 446 OFFCURVE",
"363 468 OFFCURVE",
"363 497 CURVE SMOOTH"
);
},
{
closed = 1;
nodes = (
"278 352 LINE",
"278 289 OFFCURVE",
"265 244 OFFCURVE",
"200 200 CURVE SMOOTH",
"152 168 OFFCURVE",
"85 102 OFFCURVE",
"85 13 CURVE SMOOTH",
"85 -103 OFFCURVE",
"167 -183 OFFCURVE",
"298 -183 CURVE SMOOTH",
"421 -183 OFFCURVE",
"524 -103 OFFCURVE",
"524 47 CURVE",
"443 47 LINE",
"444 -68 OFFCURVE",
"371 -108 OFFCURVE",
"298 -108 CURVE SMOOTH",
"215 -108 OFFCURVE",
"172 -57 OFFCURVE",
"172 1 CURVE SMOOTH",
"172 68 OFFCURVE",
"194 111 OFFCURVE",
"257 155 CURVE SMOOTH",
"323 201 OFFCURVE",
"363 268 OFFCURVE",
"363 352 CURVE"
);
}
);
width = 609;
}
);
leftKerningGroup = n;
leftMetricsKey = n;
note = questiondown;
rightKerningGroup = n;
rightMetricsKey = n;
unicode = 00BF;
},
{
glyphname = periodcentered;
lastChange = "2024-06-23 12:41:52 +0000";
layers = (
{
hints = (
{
horizontal = 1;
place = "{255, 106}";
type = Stem;
},
{
place = "{81, 108}";
type = Stem;
}
);
layerId = "9382C8E1-E850-40EA-B00A-FA5C7367EA84";
paths = (
{
closed = 1;
nodes = (
"85 273 OFFCURVE",
"107 251 OFFCURVE",
"137 251 CURVE SMOOTH",
"167 251 OFFCURVE",
"189 273 OFFCURVE",
"189 302 CURVE SMOOTH",
"189 331 OFFCURVE",
"167 353 OFFCURVE",
"137 353 CURVE SMOOTH",
"107 353 OFFCURVE",
"85 331 OFFCURVE",
"85 302 CURVE SMOOTH"
);
}
);
width = 274;
}
);
leftKerningGroup = n;
leftMetricsKey = n;
note = periodcentered;
rightKerningGroup = n;
rightMetricsKey = n;
unicode = 00B7;
},
{
glyphname = bullet;
lastChange = "2024-06-23 12:41:52 +0000";
layers = (
{
hints = (
{
horizontal = 1;
place = "{214, 164}";
type = Stem;
},
{
place = "{81, 168}";
type = Stem;
}
);
layerId = "9382C8E1-E850-40EA-B00A-FA5C7367EA84";
paths = (
{
closed = 1;
nodes = (
"85 244 OFFCURVE",
"120 210 OFFCURVE",
"167 210 CURVE SMOOTH",
"214 210 OFFCURVE",
"249 244 OFFCURVE",
"249 290 CURVE SMOOTH",
"249 336 OFFCURVE",
"214 370 OFFCURVE",
"167 370 CURVE SMOOTH",
"120 370 OFFCURVE",
"85 336 OFFCURVE",
"85 290 CURVE SMOOTH"
);
}
);
width = 334;
}
);
leftKerningGroup = n;
leftMetricsKey = n;
note = bullet;
rightKerningGroup = n;
rightMetricsKey = n;
unicode = 2022;
},
{
glyphname = asterisk;
lastChange = "2024-06-23 12:41:52 +0000";
layers = (
{
hints = (
{
horizontal = 1;
place = "{404, 309}";
type = Stem;
},
{
place = "{196, 64}";
type = Stem;
}
);
layerId = "9382C8E1-E850-40EA-B00A-FA5C7367EA84";
paths = (
{
closed = 1;
nodes = (
"349 655 LINE",
"262 605 LINE",
"262 705 LINE",
"202 705 LINE",
"202 605 LINE",
"115 655 LINE",
"85 603 LINE",
"172 553 LINE",
"85 503 LINE",
"115 451 LINE",
"202 501 LINE",
"202 400 LINE",
"262 400 LINE",
"262 501 LINE",
"349 451 LINE",
"379 503 LINE",
"292 553 LINE",
"379 603 LINE"
);
}
);
width = 464;
}
);
leftKerningGroup = n;
leftMetricsKey = n;
note = asterisk;
rightKerningGroup = n;
rightMetricsKey = n;
unicode = 002A;
},
{
glyphname = numbersign;
lastChange = "2024-06-23 12:41:52 +0000";
layers = (
{
hints = (
{
horizontal = 1;
place = "{4, 206}";
type = Stem;
},
{
horizontal = 1;
place = "{319, 207}";
type = Stem;
},
{
place = "{65, 458}";
type = Stem;
}
);
layerId = "9382C8E1-E850-40EA-B00A-FA5C7367EA84";
paths = (
{
closed = 1;
nodes = (
"197 382 LINE",
"116 382 LINE",
"117 315 LINE",
"186 315 LINE",
"166 202 LINE",
"85 202 LINE",
"85 135 LINE",
"155 135 LINE",
"131 0 LINE",
"205 0 LINE",
"229 135 LINE",
"353 135 LINE",
"329 0 LINE",
"403 0 LINE",
"427 135 LINE",
"508 135 LINE",
"507 202 LINE",
"438 202 LINE",
"458 315 LINE",
"539 315 LINE",
"538 382 LINE",
"469 382 LINE",
"494 518 LINE",
"420 518 LINE",
"395 382 LINE",
"271 382 LINE",
"296 518 LINE",
"222 518 LINE"
);
},
{
closed = 1;
nodes = (
"260 315 LINE",
"384 315 LINE",
"364 202 LINE",
"240 202 LINE"
);
}
);
width = 624;
}
);
leftKerningGroup = n;
leftMetricsKey = n;
note = numbersign;
rightKerningGroup = n;
rightMetricsKey = n;
unicode = 0023;
},
{
glyphname = slash;
lastChange = "2024-06-23 12:41:52 +0000";
layers = (
{
hints = (
{
horizontal = 1;
place = "{-11, 21}";
target = up;
type = BottomGhost;
},
{
horizontal = 1;
place = "{735, -20}";
target = down;
type = TopGhost;
},
{
place = "{79, 213}";
type = Stem;
}
);
layerId = "9382C8E1-E850-40EA-B00A-FA5C7367EA84";
paths = (
{
closed = 1;
nodes = (
"85 -15 LINE",
"162 -15 LINE",
"294 731 LINE",
"217 731 LINE"
);
}
);
width = 379;
}
);
leftKerningGroup = n;
leftMetricsKey = n;
note = slash;
rightKerningGroup = n;
rightMetricsKey = n;
unicode = 002F;
},
{
glyphname = backslash;
lastChange = "2024-06-23 12:41:52 +0000";
layers = (
{
hints = (
{
horizontal = 1;
place = "{-11, 21}";
target = up;
type = BottomGhost;
},
{
horizontal = 1;
place = "{735, -20}";
target = down;
type = TopGhost;
},
{
place = "{79, 213}";
type = Stem;
}
);
layerId = "9382C8E1-E850-40EA-B00A-FA5C7367EA84";
paths = (
{
closed = 1;
nodes = (
"85 731 LINE",
"217 -15 LINE",
"294 -15 LINE",
"162 731 LINE"
);
}
);
width = 379;
}
);
leftKerningGroup = n;
leftMetricsKey = n;
note = backslash;
rightKerningGroup = n;
rightMetricsKey = n;
unicode = 005C;
},
{
glyphname = parenleft;
lastChange = "2024-06-23 12:44:50 +0000";
layers = (
{
hints = (
{
horizontal = 1;
place = "{-56, 839}";
type = Stem;
},
{
place = "{79, 247}";
type = Stem;
}
);
layerId = "9382C8E1-E850-40EA-B00A-FA5C7367EA84";
paths = (
{
closed = 1;
nodes = (
"289 -60 LINE",
"118 0 OFFCURVE",
"46 177 OFFCURVE",
"46 357 CURVE SMOOTH",
"46 538 OFFCURVE",
"118 715 OFFCURVE",
"289 775 CURVE",
"288 691 LINE",
"167 631 OFFCURVE",
"134 486 OFFCURVE",
"134 356 CURVE SMOOTH",
"134 229 OFFCURVE",
"167 84 OFFCURVE",
"288 24 CURVE"
);
}
);
width = 314;
}
);
leftKerningGroup = O;
leftMetricsKey = O;
note = parenleft;
rightKerningGroup = X;
rightMetricsKey = X;
unicode = 0028;
},
{
glyphname = parenright;
lastChange = "2024-06-23 12:44:50 +0000";
layers = (
{
hints = (
{
horizontal = 1;
place = "{-56, 839}";
type = Stem;
},
{
place = "{79, 247}";
type = Stem;
}
);
layerId = "9382C8E1-E850-40EA-B00A-FA5C7367EA84";
paths = (
{
closed = 1;
nodes = (
"26 24 LINE",
"147 84 OFFCURVE",
"180 229 OFFCURVE",
"180 356 CURVE SMOOTH",
"180 486 OFFCURVE",
"147 631 OFFCURVE",
"26 691 CURVE",
"25 775 LINE",
"196 715 OFFCURVE",
"268 538 OFFCURVE",
"268 357 CURVE SMOOTH",
"268 177 OFFCURVE",
"196 0 OFFCURVE",
"25 -60 CURVE"
);
}
);
width = 314;
}
);
leftKerningGroup = X;
leftMetricsKey = X;
note = parenright;
rightKerningGroup = O;
rightMetricsKey = O;
unicode = 0029;
},
{
glyphname = braceleft;
lastChange = "2024-06-23 12:44:50 +0000";
layers = (
{
hints = (
{
horizontal = 1;
place = "{-54, 71}";
type = Stem;
},
{
horizontal = 1;
place = "{328, 71}";
type = Stem;
},
{
horizontal = 1;
place = "{711, 71}";
type = Stem;
},
{
place = "{178, 85}";
type = Stem;
}
);
layerId = "9382C8E1-E850-40EA-B00A-FA5C7367EA84";
paths = (
{
closed = 1;
nodes = (
"145 461 LINE SMOOTH",
"145 381 OFFCURVE",
"83 391 OFFCURVE",
"46 391 CURVE",
"46 324 LINE",
"83 324 OFFCURVE",
"145 334 OFFCURVE",
"145 254 CURVE SMOOTH",
"145 66 LINE SMOOTH",
"145 3 OFFCURVE",
"181 -52 OFFCURVE",
"260 -58 CURVE SMOOTH",
"294 -61 OFFCURVE",
"325 -58 OFFCURVE",
"325 -58 CURVE",
"325 9 LINE",
"288 9 OFFCURVE",
"227 -1 OFFCURVE",
"226 79 CURVE",
"226 267 LINE SMOOTH",
"226 311 OFFCURVE",
"209 341 OFFCURVE",
"171 358 CURVE",
"209 374 OFFCURVE",
"226 404 OFFCURVE",
"226 448 CURVE SMOOTH",
"226 637 LINE SMOOTH",
"226 717 OFFCURVE",
"288 707 OFFCURVE",
"325 707 CURVE",
"325 774 LINE",
"325 774 OFFCURVE",
"294 777 OFFCURVE",
"260 774 CURVE SMOOTH",
"181 768 OFFCURVE",
"145 713 OFFCURVE",
"145 650 CURVE SMOOTH"
);
}
);
width = 350;
}
);
leftKerningGroup = O;
leftMetricsKey = O;
note = braceleft;
rightKerningGroup = X;
rightMetricsKey = X;
unicode = 007B;
},
{
glyphname = braceright;
lastChange = "2024-06-23 12:44:50 +0000";
layers = (
{
hints = (
{
horizontal = 1;
place = "{-54, 71}";
type = Stem;
},
{
horizontal = 1;
place = "{328, 71}";
type = Stem;
},
{
horizontal = 1;
place = "{711, 71}";
type = Stem;
},
{
place = "{178, 85}";
type = Stem;
}
);
layerId = "9382C8E1-E850-40EA-B00A-FA5C7367EA84";
paths = (
{
closed = 1;
nodes = (
"205 650 LINE SMOOTH",
"205 713 OFFCURVE",
"169 768 OFFCURVE",
"90 774 CURVE SMOOTH",
"56 777 OFFCURVE",
"25 774 OFFCURVE",
"25 774 CURVE",
"25 707 LINE",
"62 707 OFFCURVE",
"124 717 OFFCURVE",
"124 637 CURVE SMOOTH",
"124 448 LINE SMOOTH",
"124 404 OFFCURVE",
"141 374 OFFCURVE",
"179 358 CURVE",
"141 341 OFFCURVE",
"124 311 OFFCURVE",
"124 267 CURVE SMOOTH",
"124 79 LINE SMOOTH",
"123 -1 OFFCURVE",
"62 9 OFFCURVE",
"25 9 CURVE",
"25 -58 LINE",
"25 -58 OFFCURVE",
"56 -61 OFFCURVE",
"90 -58 CURVE SMOOTH",
"169 -52 OFFCURVE",
"205 3 OFFCURVE",
"205 66 CURVE SMOOTH",
"205 254 LINE SMOOTH",
"205 334 OFFCURVE",
"267 324 OFFCURVE",
"304 324 CURVE",
"304 391 LINE",
"267 391 OFFCURVE",
"205 381 OFFCURVE",
"205 461 CURVE SMOOTH"
);
}
);
width = 350;
}
);
leftKerningGroup = X;
leftMetricsKey = X;
note = braceright;
rightKerningGroup = O;
rightMetricsKey = O;
unicode = 007D;
},
{
glyphname = bracketleft;
lastChange = "2024-06-23 12:44:50 +0000";
layers = (
{
hints = (
{
horizontal = 1;
place = "{5, 74}";
type = Stem;
},
{
horizontal = 1;
place = "{649, 75}";
type = Stem;
},
{
place = "{79, 89}";
type = Stem;
}
);
layerId = "9382C8E1-E850-40EA-B00A-FA5C7367EA84";
paths = (
{
closed = 1;
nodes = (
"231 1 LINE",
"231 72 LINE",
"131 70 LINE",
"131 645 LINE",
"221 644 LINE",
"221 715 LINE",
"46 715 LINE",
"46 1 LINE"
);
}
);
width = 256;
}
);
leftKerningGroup = O;
leftMetricsKey = O;
note = bracketleft;
rightKerningGroup = X;
rightMetricsKey = X;
unicode = 005B;
},
{
glyphname = bracketright;
lastChange = "2024-06-23 12:44:50 +0000";
layers = (
{
hints = (
{
horizontal = 1;
place = "{5, 74}";
type = Stem;
},
{
horizontal = 1;
place = "{649, 75}";
type = Stem;
},
{
place = "{179, 89}";
type = Stem;
}
);
layerId = "9382C8E1-E850-40EA-B00A-FA5C7367EA84";
paths = (
{
closed = 1;
nodes = (
"210 715 LINE",
"35 715 LINE",
"35 644 LINE",
"125 645 LINE",
"125 70 LINE",
"25 72 LINE",
"25 1 LINE",
"210 1 LINE"
);
}
);
width = 256;
}
);
leftKerningGroup = X;
leftMetricsKey = X;
note = bracketright;
rightKerningGroup = O;
rightMetricsKey = O;
unicode = 005D;
},
{
glyphname = hyphen;
lastChange = "2024-06-23 12:42:20 +0000";
layers = (
{
hints = (
{
horizontal = 1;
place = "{225, 75}";
type = Stem;
},
{
place = "{79, 284}";
type = Stem;
}
);
layerId = "9382C8E1-E850-40EA-B00A-FA5C7367EA84";
paths = (
{
closed = 1;
nodes = (
"365 221 LINE",
"365 292 LINE",
"85 292 LINE",
"85 221 LINE"
);
}
);
width = 450;
}
);
leftKerningGroup = n;
leftMetricsKey = n;
note = hyphen;
rightKerningGroup = n;
rightMetricsKey = n;
unicode = 002D;
},
{
glyphname = endash;
lastChange = "2024-06-23 12:42:20 +0000";
layers = (
{
hints = (
{
horizontal = 1;
place = "{225, 75}";
type = Stem;
},
{
place = "{79, 425}";
type = Stem;
}
);
layerId = "9382C8E1-E850-40EA-B00A-FA5C7367EA84";
paths = (
{
closed = 1;
nodes = (
"506 221 LINE",
"506 292 LINE",
"85 292 LINE",
"85 221 LINE"
);
}
);
width = 591;
}
);
leftKerningGroup = n;
leftMetricsKey = n;
note = endash;
rightKerningGroup = n;
rightMetricsKey = n;
unicode = 2013;
},
{
glyphname = emdash;
lastChange = "2024-06-23 12:42:20 +0000";
layers = (
{
hints = (
{
horizontal = 1;
place = "{222, 75}";
type = Stem;
},
{
place = "{79, 702}";
type = Stem;
}
);
layerId = "9382C8E1-E850-40EA-B00A-FA5C7367EA84";
paths = (
{
closed = 1;
nodes = (
"783 218 LINE",
"783 289 LINE",
"85 289 LINE",
"85 218 LINE"
);
}
);
width = 868;
}
);
leftKerningGroup = n;
leftMetricsKey = n;
note = emdash;
rightKerningGroup = n;
rightMetricsKey = n;
unicode = 2014;
},
{
glyphname = underscore;
lastChange = "2024-06-23 12:42:20 +0000";
layers = (
{
hints = (
{
horizontal = 1;
place = "{-119, 75}";
type = Stem;
},
{
place = "{79, 425}";
type = Stem;
}
);
layerId = "9382C8E1-E850-40EA-B00A-FA5C7367EA84";
paths = (
{
closed = 1;
nodes = (
"506 -123 LINE",
"506 -52 LINE",
"85 -52 LINE",
"85 -123 LINE"
);
}
);
width = 591;
}
);
leftKerningGroup = n;
leftMetricsKey = n;
note = underscore;
rightKerningGroup = n;
rightMetricsKey = n;
unicode = 005F;
},
{
glyphname = quotesinglbase;
lastChange = "2024-06-23 12:42:20 +0000";
layers = (
{
hints = (
{
horizontal = 1;
place = "{-119, 50}";
type = Stem;
},
{
horizontal = 1;
place = "{4, 21}";
target = up;
type = BottomGhost;
},
{
place = "{80, 56}";
type = Stem;
}
);
layerId = "9382C8E1-E850-40EA-B00A-FA5C7367EA84";
paths = (
{
closed = 1;
nodes = (
"87 -123 LINE",
"141 -123 OFFCURVE",
"190 -83 OFFCURVE",
"190 29 CURVE SMOOTH",
"190 50 LINE SMOOTH",
"190 79 OFFCURVE",
"167 103 OFFCURVE",
"137 103 CURVE SMOOTH",
"107 103 OFFCURVE",
"85 80 OFFCURVE",
"85 51 CURVE SMOOTH",
"85 23 OFFCURVE",
"107 0 OFFCURVE",
"137 0 CURVE SMOOTH",
"138 0 LINE",
"138 -2 LINE SMOOTH",
"138 -59 OFFCURVE",
"100 -77 OFFCURVE",
"87 -77 CURVE"
);
}
);
width = 275;
}
);
leftKerningGroup = n;
leftMetricsKey = n;
note = quotesinglbase;
rightKerningGroup = n;
rightMetricsKey = n;
unicode = 201A;
},
{
glyphname = quotedblbase;
lastChange = "2024-06-23 12:42:20 +0000";
layers = (
{
hints = (
{
horizontal = 1;
place = "{-119, 50}";
type = Stem;
},
{
horizontal = 1;
place = "{4, 107}";
type = Stem;
},
{
place = "{80, 56}";
type = Stem;
}
);
layerId = "9382C8E1-E850-40EA-B00A-FA5C7367EA84";
paths = (
{
closed = 1;
nodes = (
"107 103 OFFCURVE",
"85 80 OFFCURVE",
"85 51 CURVE SMOOTH",
"85 23 OFFCURVE",
"107 0 OFFCURVE",
"137 0 CURVE SMOOTH",
"138 0 LINE",
"138 -2 LINE SMOOTH",
"138 -59 OFFCURVE",
"100 -77 OFFCURVE",
"87 -77 CURVE",
"87 -123 LINE",
"141 -123 OFFCURVE",
"190 -83 OFFCURVE",
"190 29 CURVE SMOOTH",
"190 50 LINE SMOOTH",
"190 79 OFFCURVE",
"167 103 OFFCURVE",
"137 103 CURVE SMOOTH"
);
},
{
closed = 1;
nodes = (
"272 103 OFFCURVE",
"250 80 OFFCURVE",
"250 51 CURVE SMOOTH",
"250 23 OFFCURVE",
"272 0 OFFCURVE",
"302 0 CURVE SMOOTH",
"303 0 LINE",
"303 -2 LINE SMOOTH",
"303 -59 OFFCURVE",
"265 -77 OFFCURVE",
"252 -77 CURVE",
"252 -123 LINE",
"306 -123 OFFCURVE",
"355 -83 OFFCURVE",
"355 29 CURVE SMOOTH",
"355 50 LINE SMOOTH",
"355 79 OFFCURVE",
"332 103 OFFCURVE",
"302 103 CURVE SMOOTH"
);
}
);
width = 440;
}
);
leftKerningGroup = n;
leftMetricsKey = n;
note = quotedblbase;
rightKerningGroup = n;
rightMetricsKey = n;
unicode = 201E;
},
{
glyphname = quotedblleft;
lastChange = "2024-06-23 12:42:20 +0000";
layers = (
{
hints = (
{
horizontal = 1;
place = "{509, 244}";
type = Stem;
},
{
place = "{36, 117}";
type = Stem;
}
);
layerId = "9382C8E1-E850-40EA-B00A-FA5C7367EA84";
paths = (
{
closed = 1;
nodes = (
"227 743 LINE",
"236 692 LINE SMOOTH",
"246 636 OFFCURVE",
"278 503 OFFCURVE",
"278 503 CURVE",
"340 503 LINE",
"340 503 OFFCURVE",
"326 636 OFFCURVE",
"316 692 CURVE SMOOTH",
"307 743 LINE"
);
},
{
closed = 1;
nodes = (
"85 743 LINE",
"94 692 LINE SMOOTH",
"104 636 OFFCURVE",
"136 503 OFFCURVE",
"136 503 CURVE",
"198 503 LINE",
"198 503 OFFCURVE",
"184 636 OFFCURVE",
"174 692 CURVE SMOOTH",
"165 743 LINE"
);
}
);
width = 425;
}
);
leftKerningGroup = n;
leftMetricsKey = n;
note = quotedblleft;
rightKerningGroup = n;
rightMetricsKey = n;
unicode = 201C;
},
{
glyphname = quotedblright;
lastChange = "2024-06-23 12:42:20 +0000";
layers = (
{
hints = (
{
horizontal = 1;
place = "{507, 244}";
type = Stem;
},
{
place = "{36, 117}";
type = Stem;
}
);
layerId = "9382C8E1-E850-40EA-B00A-FA5C7367EA84";
paths = (
{
closed = 1;
nodes = (
"109 692 LINE SMOOTH",
"99 636 OFFCURVE",
"85 503 OFFCURVE",
"85 503 CURVE",
"147 503 LINE",
"147 503 OFFCURVE",
"179 636 OFFCURVE",
"189 692 CURVE SMOOTH",
"198 743 LINE",
"118 743 LINE"
);
},
{
closed = 1;
nodes = (
"251 692 LINE SMOOTH",
"241 636 OFFCURVE",
"227 503 OFFCURVE",
"227 503 CURVE",
"289 503 LINE",
"289 503 OFFCURVE",
"321 636 OFFCURVE",
"331 692 CURVE SMOOTH",
"340 743 LINE",
"260 743 LINE"
);
}
);
width = 425;
}
);
leftKerningGroup = n;
leftMetricsKey = n;
note = quotedblright;
rightKerningGroup = n;
rightMetricsKey = n;
unicode = 201D;
},
{
glyphname = quoteleft;
lastChange = "2024-06-23 12:42:20 +0000";
layers = (
{
hints = (
{
horizontal = 1;
place = "{509, 244}";
type = Stem;
},
{
place = "{36, 117}";
type = Stem;
}
);
layerId = "9382C8E1-E850-40EA-B00A-FA5C7367EA84";
paths = (
{
closed = 1;
nodes = (
"174 556 LINE SMOOTH",
"184 612 OFFCURVE",
"198 745 OFFCURVE",
"198 745 CURVE SMOOTH",
"136 745 LINE SMOOTH",
"136 745 OFFCURVE",
"104 612 OFFCURVE",
"94 556 CURVE SMOOTH",
"85 505 LINE",
"165 505 LINE"
);
}
);
width = 283;
}
);
leftKerningGroup = n;
leftMetricsKey = n;
note = quoteleft;
rightKerningGroup = n;
rightMetricsKey = n;
unicode = 2018;
},
{
glyphname = quoteright;
lastChange = "2024-06-23 12:42:20 +0000";
layers = (
{
hints = (
{
horizontal = 1;
place = "{507, 244}";
type = Stem;
},
{
place = "{36, 117}";
type = Stem;
}
);
layerId = "9382C8E1-E850-40EA-B00A-FA5C7367EA84";
paths = (
{
closed = 1;
nodes = (
"109 692 LINE SMOOTH",
"99 636 OFFCURVE",
"85 503 OFFCURVE",
"85 503 CURVE",
"147 503 LINE",
"147 503 OFFCURVE",
"179 636 OFFCURVE",
"189 692 CURVE SMOOTH",
"198 743 LINE",
"118 743 LINE"
);
}
);
width = 283;
}
);
leftKerningGroup = n;
leftMetricsKey = n;
note = quoteright;
rightKerningGroup = n;
rightMetricsKey = n;
unicode = 2019;
},
{
glyphname = guillemetleft;
lastChange = "2024-06-23 12:42:29 +0000";
layers = (
{
hints = (
{
horizontal = 1;
place = "{4, 21}";
target = up;
type = BottomGhost;
},
{
horizontal = 1;
place = "{521, -20}";
target = down;
type = TopGhost;
},
{
place = "{29, 78}";
type = Stem;
}
);
layerId = "9382C8E1-E850-40EA-B00A-FA5C7367EA84";
paths = (
{
closed = 1;
nodes = (
"49 305 LINE",
"49 212 LINE",
"390 0 LINE",
"390 92 LINE",
"123 259 LINE",
"390 425 LINE",
"390 517 LINE"
);
}
);
width = 419;
}
);
leftKerningGroup = o;
leftMetricsKey = o;
note = guillemotleft;
rightKerningGroup = x;
rightMetricsKey = x;
unicode = 00AB;
},
{
glyphname = guillemetright;
lastChange = "2024-06-23 12:42:37 +0000";
layers = (
{
hints = (
{
horizontal = 1;
place = "{4, 21}";
target = up;
type = BottomGhost;
},
{
horizontal = 1;
place = "{521, -20}";
target = down;
type = TopGhost;
},
{
place = "{348, 78}";
type = Stem;
}
);
layerId = "9382C8E1-E850-40EA-B00A-FA5C7367EA84";
paths = (
{
closed = 1;
nodes = (
"29 425 LINE",
"296 259 LINE",
"29 92 LINE",
"29 0 LINE",
"370 212 LINE",
"370 305 LINE",
"29 517 LINE"
);
}
);
width = 419;
}
);
leftKerningGroup = x;
leftMetricsKey = x;
note = guillemotright;
rightKerningGroup = o;
rightMetricsKey = o;
unicode = 00BB;
},
{
glyphname = guilsinglleft;
lastChange = "2024-06-23 12:42:29 +0000";
layers = (
{
hints = (
{
horizontal = 1;
place = "{4, 21}";
target = up;
type = BottomGhost;
},
{
horizontal = 1;
place = "{521, -20}";
target = down;
type = TopGhost;
},
{
place = "{29, 78}";
type = Stem;
}
);
layerId = "9382C8E1-E850-40EA-B00A-FA5C7367EA84";
paths = (
{
closed = 1;
nodes = (
"49 305 LINE",
"49 212 LINE",
"390 0 LINE",
"390 92 LINE",
"123 259 LINE",
"390 425 LINE",
"390 517 LINE"
);
}
);
width = 419;
}
);
leftKerningGroup = o;
leftMetricsKey = o;
note = guilsinglleft;
rightKerningGroup = x;
rightMetricsKey = x;
unicode = 2039;
},
{
glyphname = guilsinglright;
lastChange = "2024-06-23 10:44:55 +0000";
layers = (
{
hints = (
{
horizontal = 1;
place = "{4, 21}";
target = up;
type = BottomGhost;
},
{
horizontal = 1;
place = "{521, -20}";
target = down;
type = TopGhost;
},
{
place = "{348, 78}";
type = Stem;
}
);
layerId = "9382C8E1-E850-40EA-B00A-FA5C7367EA84";
paths = (
{
closed = 1;
nodes = (
"81 425 LINE",
"348 259 LINE",
"81 92 LINE",
"81 0 LINE",
"422 212 LINE",
"422 305 LINE",
"81 517 LINE"
);
}
);
width = 451;
}
);
note = guilsinglright;
unicode = 203A;
},
{
glyphname = quotedbl;
lastChange = "2024-06-23 12:42:20 +0000";
layers = (
{
hints = (
{
horizontal = 1;
place = "{514, 232}";
type = Stem;
},
{
place = "{36, 80}";
type = Stem;
},
{
place = "{176, 80}";
type = Stem;
}
);
layerId = "9382C8E1-E850-40EA-B00A-FA5C7367EA84";
paths = (
{
closed = 1;
nodes = (
"85 690 LINE SMOOTH",
"85 636 OFFCURVE",
"93 510 OFFCURVE",
"93 510 CURVE",
"153 510 LINE",
"153 510 OFFCURVE",
"161 636 OFFCURVE",
"161 690 CURVE SMOOTH",
"161 738 LINE",
"85 738 LINE"
);
},
{
closed = 1;
nodes = (
"225 690 LINE SMOOTH",
"225 636 OFFCURVE",
"233 510 OFFCURVE",
"233 510 CURVE",
"293 510 LINE",
"293 510 OFFCURVE",
"301 636 OFFCURVE",
"301 690 CURVE SMOOTH",
"301 738 LINE",
"225 738 LINE"
);
}
);
width = 386;
}
);
leftKerningGroup = n;
leftMetricsKey = n;
note = quotedbl;
rightKerningGroup = n;
rightMetricsKey = n;
unicode = 0022;
},
{
glyphname = quotesingle;
lastChange = "2024-06-23 12:42:20 +0000";
layers = (
{
hints = (
{
horizontal = 1;
place = "{514, 232}";
type = Stem;
},
{
place = "{36, 80}";
type = Stem;
}
);
layerId = "9382C8E1-E850-40EA-B00A-FA5C7367EA84";
paths = (
{
closed = 1;
nodes = (
"85 690 LINE SMOOTH",
"85 636 OFFCURVE",
"93 510 OFFCURVE",
"93 510 CURVE",
"153 510 LINE",
"153 510 OFFCURVE",
"161 636 OFFCURVE",
"161 690 CURVE SMOOTH",
"161 738 LINE",
"85 738 LINE"
);
}
);
width = 246;
}
);
leftKerningGroup = n;
leftMetricsKey = n;
note = quotesingle;
rightKerningGroup = n;
rightMetricsKey = n;
unicode = 0027;
},
{
glyphname = at;
lastChange = "2024-06-23 12:42:47 +0000";
layers = (
{
hints = (
{
horizontal = 1;
place = "{-106, 72}";
type = Stem;
},
{
horizontal = 1;
place = "{76, 68}";
type = Stem;
},
{
horizontal = 1;
place = "{396, 76}";
type = Stem;
},
{
horizontal = 1;
place = "{575, 68}";
type = Stem;
},
{
place = "{46, 80}";
type = Stem;
},
{
place = "{715, 80}";
type = Stem;
},
{
horizontal = 1;
place = "{73, 75}";
type = Stem;
}
);
layerId = "9382C8E1-E850-40EA-B00A-FA5C7367EA84";
paths = (
{
closed = 1;
nodes = (
"507 -110 OFFCURVE",
"579 -83 OFFCURVE",
"635 -37 CURVE",
"586 17 LINE",
"545 -19 OFFCURVE",
"486 -42 OFFCURVE",
"421 -42 CURVE SMOOTH",
"257 -42 OFFCURVE",
"125 94 OFFCURVE",
"125 263 CURVE SMOOTH",
"125 435 OFFCURVE",
"256 571 OFFCURVE",
"421 571 CURVE SMOOTH",
"591 571 OFFCURVE",
"718 435 OFFCURVE",
"718 304 CURVE SMOOTH",
"718 168 OFFCURVE",
"633 136 OFFCURVE",
"601 136 CURVE",
"580 135 OFFCURVE",
"560 148 OFFCURVE",
"564 180 CURVE SMOOTH",
"597 455 LINE",
"531 455 LINE",
"524 395 LINE",
"512 429 OFFCURVE",
"479 464 OFFCURVE",
"414 464 CURVE SMOOTH",
"334 464 OFFCURVE",
"254 390 OFFCURVE",
"239 266 CURVE SMOOTH",
"224 143 OFFCURVE",
"285 69 OFFCURVE",
"366 69 CURVE SMOOTH",
"430 69 OFFCURVE",
"472 104 OFFCURVE",
"493 136 CURVE",
"492 97 OFFCURVE",
"523 72 OFFCURVE",
"576 72 CURVE SMOOTH",
"719 72 OFFCURVE",
"794 184 OFFCURVE",
"794 303 CURVE SMOOTH",
"794 477 OFFCURVE",
"637 635 OFFCURVE",
"422 635 CURVE SMOOTH",
"211 635 OFFCURVE",
"49 478 OFFCURVE",
"49 262 CURVE SMOOTH",
"49 47 OFFCURVE",
"211 -110 OFFCURVE",
"422 -110 CURVE SMOOTH"
);
},
{
closed = 1;
nodes = (
"344 140 OFFCURVE",
"303 184 OFFCURVE",
"313 267 CURVE SMOOTH",
"324 349 OFFCURVE",
"374 392 OFFCURVE",
"423 392 CURVE SMOOTH",
"484 392 OFFCURVE",
"511 336 OFFCURVE",
"503 267 CURVE SMOOTH",
"493 196 OFFCURVE",
"454 140 OFFCURVE",
"392 140 CURVE SMOOTH"
);
}
);
width = 843;
}
);
leftKerningGroup = o;
leftMetricsKey = o;
note = at;
rightKerningGroup = o;
rightMetricsKey = o;
unicode = 0040;
},
